<svg xmlns="http://www.w3.org/2000/svg" id="structural-svg--proto_sw_1_1--production-seed-100010" data-prototype-id="proto_sw_1_1" data-production-seed="100010" data-backbone-seed="1350424949" data-flower-seed="4141860" data-branch-seed="1989963110" data-unit-seed="3418144302" data-backbone-variant-id="expanded" data-density-level="medium" data-source-case="C004" data-source-contract-id="LocalGreedy" data-source-plan-id="proto_sw_1_1__seed_1989963110__global_l1_flow_v3__density_medium" data-source-selection-id="proto_sw_1_1__seed_1989963110__global_l1_flow_v3__density_medium__unit_candidates_v2__global_unit_selection_sparse5e" data-repeat-mode="triple" viewBox="-1.08 0 3.16 1.1875" width="3160" height="1188"><rect x="-1.08" y="0" width="3.16" height="1.1875" fill="#f1efe9"/><metadata>role_color_identity_v2: backbone=#0000ff; primary_branch=#ff9900; secondary_branch=#00ffff; flower_support=#007800; flower_anchor=#ff0000; unit_boundary=#000000(dashed). data-role is authoritative; stroke color is a visual fallback.</metadata><g id="unit-boundaries" data-instance-id="unit-boundaries" data-role="unit_boundary"><line id="unit-boundary--00" data-instance-id="unit-boundary--00" data-boundary-x="-1" x1="-1" y1="0" x2="-1" y2="1.1875" stroke="#000000" stroke-dasharray="0.012 0.008" stroke-width="0.004"/><line id="unit-boundary--01" data-instance-id="unit-boundary--01" data-boundary-x="0" x1="0" y1="0" x2="0" y2="1.1875" stroke="#000000" stroke-dasharray="0.012 0.008" stroke-width="0.004"/><line id="unit-boundary--02" data-instance-id="unit-boundary--02" data-boundary-x="1" x1="1" y1="0" x2="1" y2="1.1875" stroke="#000000" stroke-dasharray="0.012 0.008" stroke-width="0.004"/><line id="unit-boundary--03" data-instance-id="unit-boundary--03" data-boundary-x="2" x1="2" y1="0" x2="2" y2="1.1875" stroke="#000000" stroke-dasharray="0.012 0.008" stroke-width="0.004"/></g><g id="backbone-layer" data-instance-id="backbone-layer" data-role="backbone"><g id="backbone--repeat_m1" data-instance-id="backbone--repeat_m1" data-repeat-id="repeat_m1" data-repeat-shift="-1"><polyline points="-1,0.6028 -0.9966,0.585 -0.9926,0.5675 -0.9882,0.55 -0.9833,0.5326 -0.978,0.515 -0.9723,0.4972 -0.9661,0.4791 -0.9594,0.4606 -0.9521,0.4417 -0.9441,0.4222 -0.9353,0.4023 -0.9257,0.3817 -0.9151,0.3606 -0.9032,0.339 -0.8897,0.3168 -0.8741,0.2944 -0.8561,0.2718 -0.835,0.2497 -0.8099,0.2285 -0.782,0.2097 -0.7537,0.196 -0.7264,0.1888 -0.7006,0.1905 -0.6766,0.1975 -0.6547,0.2083 -0.635,0.2222 -0.6171,0.2386 -0.6013,0.257 -0.587,0.2768 -0.5743,0.2974 -0.563,0.3185 -0.553,0.3399 -0.5442,0.3612 -0.5368,0.3823 -0.5315,0.4031 -0.5271,0.4236 -0.5227,0.4437 -0.5183,0.4634 -0.5139,0.4829 -0.5094,0.502 -0.505,0.5207 -0.5006,0.5391 -0.4962,0.5574 -0.4918,0.5756 -0.4874,0.594 -0.483,0.6126 -0.4777,0.6316 -0.4714,0.6512 -0.4641,0.6715 -0.4559,0.6928 -0.4466,0.7149 -0.4361,0.7382 -0.424,0.7627 -0.4104,0.7884 -0.3948,0.8153 -0.3771,0.8433 -0.3565,0.8719 -0.3332,0.9007 -0.3074,0.9281 -0.2794,0.9519 -0.2509,0.9699 -0.2228,0.978 -0.1956,0.977 -0.1696,0.968 -0.1486,0.9534 -0.132,0.9309 -0.1169,0.9017 -0.1031,0.8721 -0.0903,0.8436 -0.0785,0.8162 -0.0676,0.7901 -0.0575,0.7653 -0.0481,0.7417 -0.0395,0.7193 -0.0315,0.698 -0.0241,0.6776 -0.0173,0.658 -0.011,0.6391 -0.0053,0.6208 0,0.6028" fill="none" id="repeat_m1--backbone" data-instance-id="repeat_m1--backbone" data-repeat-id="repeat_m1" data-repeat-shift="-1" stroke="#0000ff" stroke-width="0.007" stroke-linejoin="round" stroke-linecap="round"/></g><g id="backbone--repeat_0" data-instance-id="backbone--repeat_0" data-repeat-id="repeat_0" data-repeat-shift="0"><polyline points="0,0.6028 0.0034,0.585 0.0074,0.5675 0.0118,0.55 0.0167,0.5326 0.022,0.515 0.0277,0.4972 0.0339,0.4791 0.0406,0.4606 0.0479,0.4417 0.0559,0.4222 0.0647,0.4023 0.0743,0.3817 0.0849,0.3606 0.0968,0.339 0.1103,0.3168 0.1259,0.2944 0.1439,0.2718 0.165,0.2497 0.1901,0.2285 0.218,0.2097 0.2463,0.196 0.2736,0.1888 0.2994,0.1905 0.3234,0.1975 0.3453,0.2083 0.365,0.2222 0.3829,0.2386 0.3987,0.257 0.413,0.2768 0.4257,0.2974 0.437,0.3185 0.447,0.3399 0.4558,0.3612 0.4632,0.3823 0.4685,0.4031 0.4729,0.4236 0.4773,0.4437 0.4817,0.4634 0.4861,0.4829 0.4906,0.502 0.495,0.5207 0.4994,0.5391 0.5038,0.5574 0.5082,0.5756 0.5126,0.594 0.517,0.6126 0.5223,0.6316 0.5286,0.6512 0.5359,0.6715 0.5441,0.6928 0.5534,0.7149 0.5639,0.7382 0.576,0.7627 0.5896,0.7884 0.6052,0.8153 0.6229,0.8433 0.6435,0.8719 0.6668,0.9007 0.6926,0.9281 0.7206,0.9519 0.7491,0.9699 0.7772,0.978 0.8044,0.977 0.8304,0.968 0.8514,0.9534 0.868,0.9309 0.8831,0.9017 0.8969,0.8721 0.9097,0.8436 0.9215,0.8162 0.9324,0.7901 0.9425,0.7653 0.9519,0.7417 0.9605,0.7193 0.9685,0.698 0.9759,0.6776 0.9827,0.658 0.989,0.6391 0.9947,0.6208 1,0.6028" fill="none" id="repeat_0--backbone" data-instance-id="repeat_0--backbone" data-repeat-id="repeat_0" data-repeat-shift="0" stroke="#0000ff" stroke-width="0.014" stroke-linejoin="round" stroke-linecap="round"/></g><g id="backbone--repeat_p1" data-instance-id="backbone--repeat_p1" data-repeat-id="repeat_p1" data-repeat-shift="1"><polyline points="1,0.6028 1.0034,0.585 1.0074,0.5675 1.0118,0.55 1.0167,0.5326 1.022,0.515 1.0277,0.4972 1.0339,0.4791 1.0406,0.4606 1.0479,0.4417 1.0559,0.4222 1.0647,0.4023 1.0743,0.3817 1.0849,0.3606 1.0968,0.339 1.1103,0.3168 1.1259,0.2944 1.1439,0.2718 1.165,0.2497 1.1901,0.2285 1.218,0.2097 1.2463,0.196 1.2736,0.1888 1.2994,0.1905 1.3234,0.1975 1.3453,0.2083 1.365,0.2222 1.3829,0.2386 1.3987,0.257 1.413,0.2768 1.4257,0.2974 1.437,0.3185 1.447,0.3399 1.4558,0.3612 1.4632,0.3823 1.4685,0.4031 1.4729,0.4236 1.4773,0.4437 1.4817,0.4634 1.4861,0.4829 1.4906,0.502 1.495,0.5207 1.4994,0.5391 1.5038,0.5574 1.5082,0.5756 1.5126,0.594 1.517,0.6126 1.5223,0.6316 1.5286,0.6512 1.5359,0.6715 1.5441,0.6928 1.5534,0.7149 1.5639,0.7382 1.576,0.7627 1.5896,0.7884 1.6052,0.8153 1.6229,0.8433 1.6435,0.8719 1.6668,0.9007 1.6926,0.9281 1.7206,0.9519 1.7491,0.9699 1.7772,0.978 1.8044,0.977 1.8304,0.968 1.8514,0.9534 1.868,0.9309 1.8831,0.9017 1.8969,0.8721 1.9097,0.8436 1.9215,0.8162 1.9324,0.7901 1.9425,0.7653 1.9519,0.7417 1.9605,0.7193 1.9685,0.698 1.9759,0.6776 1.9827,0.658 1.989,0.6391 1.9947,0.6208 2,0.6028" fill="none" id="repeat_p1--backbone" data-instance-id="repeat_p1--backbone" data-repeat-id="repeat_p1" data-repeat-shift="1" stroke="#0000ff" stroke-width="0.007" stroke-linejoin="round" stroke-linecap="round"/></g></g><g id="flower-support-layer" data-instance-id="flower-support-layer" data-role="flower_support"><g id="flower-support--repeat_m1" data-instance-id="flower-support--repeat_m1" data-repeat-id="repeat_m1" data-repeat-shift="-1"><polyline points="-0.1956,0.977 -0.1984,0.9749 -0.2012,0.9728 -0.2038,0.9707 -0.2065,0.9686 -0.209,0.9665 -0.2115,0.9644 -0.2139,0.9623 -0.2162,0.9602 -0.2184,0.9581 -0.2206,0.956 -0.2227,0.9539 -0.2248,0.9517 -0.2268,0.9496 -0.2286,0.9475 -0.2305,0.9454 -0.2322,0.9433 -0.2339,0.9412 -0.2355,0.9391 -0.2371,0.937 -0.2385,0.9349 -0.2399,0.9328 -0.2412,0.9308 -0.2425,0.9287 -0.2437,0.9266 -0.2448,0.9245 -0.2458,0.9225 -0.2468,0.9204 -0.2477,0.9183 -0.2485,0.9163 -0.2493,0.9142 -0.2499,0.9122 -0.2506,0.9102 -0.2511,0.9082 -0.2516,0.9061 -0.252,0.9041 -0.2523,0.9021 -0.2525,0.9001 -0.2527,0.8981 -0.2528,0.8962 -0.2528,0.8942" fill="none" id="repeat_m1--flower-support--proto_sw_1_1__flower_2__flower_support" data-instance-id="repeat_m1--flower-support--proto_sw_1_1__flower_2__flower_support" data-repeat-id="repeat_m1" data-repeat-shift="-1" data-mount-id="proto_sw_1_1__flower_2__flower_support" stroke="#007800" stroke-width="0.010" stroke-linejoin="round" stroke-linecap="round" data-flower-id="flower_2"/><polyline points="-0.3565,0.8719 -0.3676,0.8782 -0.3791,0.884 -0.3908,0.8896 -0.4028,0.8949 -0.415,0.8998 -0.4274,0.9044 -0.4399,0.9087 -0.4526,0.9127 -0.4654,0.9163 -0.4783,0.9197 -0.4911,0.9227 -0.504,0.9254 -0.5169,0.9278 -0.5297,0.9298 -0.5424,0.9316 -0.555,0.933 -0.5675,0.9341 -0.5797,0.9349 -0.5918,0.9353 -0.6036,0.9355 -0.6151,0.9353 -0.6263,0.9348 -0.6372,0.934 -0.6478,0.9328 -0.6579,0.9314 -0.6676,0.9296 -0.6768,0.9275 -0.6856,0.9251 -0.6938,0.9224 -0.7015,0.9193 -0.7086,0.916 -0.7151,0.9123 -0.7209,0.9083 -0.726,0.904 -0.7305,0.8993 -0.7342,0.8944 -0.7371,0.8891 -0.7393,0.8835 -0.7406,0.8776 -0.741,0.8714" fill="none" id="repeat_m1--flower-support--proto_sw_1_1__flower_1__flower_support" data-instance-id="repeat_m1--flower-support--proto_sw_1_1__flower_1__flower_support" data-repeat-id="repeat_m1" data-repeat-shift="-1" data-mount-id="proto_sw_1_1__flower_1__flower_support" stroke="#007800" stroke-width="0.010" stroke-linejoin="round" stroke-linecap="round" data-flower-id="flower_1"/></g><g id="flower-support--repeat_0" data-instance-id="flower-support--repeat_0" data-repeat-id="repeat_0" data-repeat-shift="0"><polyline points="0.8044,0.977 0.8016,0.9749 0.7988,0.9728 0.7962,0.9707 0.7935,0.9686 0.791,0.9665 0.7885,0.9644 0.7861,0.9623 0.7838,0.9602 0.7816,0.9581 0.7794,0.956 0.7773,0.9539 0.7752,0.9517 0.7732,0.9496 0.7714,0.9475 0.7695,0.9454 0.7678,0.9433 0.7661,0.9412 0.7645,0.9391 0.7629,0.937 0.7615,0.9349 0.7601,0.9328 0.7588,0.9308 0.7575,0.9287 0.7563,0.9266 0.7552,0.9245 0.7542,0.9225 0.7532,0.9204 0.7523,0.9183 0.7515,0.9163 0.7507,0.9142 0.7501,0.9122 0.7494,0.9102 0.7489,0.9082 0.7484,0.9061 0.748,0.9041 0.7477,0.9021 0.7475,0.9001 0.7473,0.8981 0.7472,0.8962 0.7472,0.8942" fill="none" id="repeat_0--flower-support--proto_sw_1_1__flower_2__flower_support" data-instance-id="repeat_0--flower-support--proto_sw_1_1__flower_2__flower_support" data-repeat-id="repeat_0" data-repeat-shift="0" data-mount-id="proto_sw_1_1__flower_2__flower_support" stroke="#007800" stroke-width="0.010" stroke-linejoin="round" stroke-linecap="round" data-flower-id="flower_2"/><polyline points="0.6435,0.8719 0.6324,0.8782 0.6209,0.884 0.6092,0.8896 0.5972,0.8949 0.585,0.8998 0.5726,0.9044 0.5601,0.9087 0.5474,0.9127 0.5346,0.9163 0.5217,0.9197 0.5089,0.9227 0.496,0.9254 0.4831,0.9278 0.4703,0.9298 0.4576,0.9316 0.445,0.933 0.4325,0.9341 0.4203,0.9349 0.4082,0.9353 0.3964,0.9355 0.3849,0.9353 0.3737,0.9348 0.3628,0.934 0.3522,0.9328 0.3421,0.9314 0.3324,0.9296 0.3232,0.9275 0.3144,0.9251 0.3062,0.9224 0.2985,0.9193 0.2914,0.916 0.2849,0.9123 0.2791,0.9083 0.274,0.904 0.2695,0.8993 0.2658,0.8944 0.2629,0.8891 0.2607,0.8835 0.2594,0.8776 0.259,0.8714" fill="none" id="repeat_0--flower-support--proto_sw_1_1__flower_1__flower_support" data-instance-id="repeat_0--flower-support--proto_sw_1_1__flower_1__flower_support" data-repeat-id="repeat_0" data-repeat-shift="0" data-mount-id="proto_sw_1_1__flower_1__flower_support" stroke="#007800" stroke-width="0.010" stroke-linejoin="round" stroke-linecap="round" data-flower-id="flower_1"/></g><g id="flower-support--repeat_p1" data-instance-id="flower-support--repeat_p1" data-repeat-id="repeat_p1" data-repeat-shift="1"><polyline points="1.8044,0.977 1.8016,0.9749 1.7988,0.9728 1.7962,0.9707 1.7935,0.9686 1.791,0.9665 1.7885,0.9644 1.7861,0.9623 1.7838,0.9602 1.7816,0.9581 1.7794,0.956 1.7773,0.9539 1.7752,0.9517 1.7732,0.9496 1.7714,0.9475 1.7695,0.9454 1.7678,0.9433 1.7661,0.9412 1.7645,0.9391 1.7629,0.937 1.7615,0.9349 1.7601,0.9328 1.7588,0.9308 1.7575,0.9287 1.7563,0.9266 1.7552,0.9245 1.7542,0.9225 1.7532,0.9204 1.7523,0.9183 1.7515,0.9163 1.7507,0.9142 1.7501,0.9122 1.7494,0.9102 1.7489,0.9082 1.7484,0.9061 1.748,0.9041 1.7477,0.9021 1.7475,0.9001 1.7473,0.8981 1.7472,0.8962 1.7472,0.8942" fill="none" id="repeat_p1--flower-support--proto_sw_1_1__flower_2__flower_support" data-instance-id="repeat_p1--flower-support--proto_sw_1_1__flower_2__flower_support" data-repeat-id="repeat_p1" data-repeat-shift="1" data-mount-id="proto_sw_1_1__flower_2__flower_support" stroke="#007800" stroke-width="0.010" stroke-linejoin="round" stroke-linecap="round" data-flower-id="flower_2"/><polyline points="1.6435,0.8719 1.6324,0.8782 1.6209,0.884 1.6092,0.8896 1.5972,0.8949 1.585,0.8998 1.5726,0.9044 1.5601,0.9087 1.5474,0.9127 1.5346,0.9163 1.5217,0.9197 1.5089,0.9227 1.496,0.9254 1.4831,0.9278 1.4703,0.9298 1.4576,0.9316 1.445,0.933 1.4325,0.9341 1.4203,0.9349 1.4082,0.9353 1.3964,0.9355 1.3849,0.9353 1.3737,0.9348 1.3628,0.934 1.3522,0.9328 1.3421,0.9314 1.3324,0.9296 1.3232,0.9275 1.3144,0.9251 1.3062,0.9224 1.2985,0.9193 1.2914,0.916 1.2849,0.9123 1.2791,0.9083 1.274,0.904 1.2695,0.8993 1.2658,0.8944 1.2629,0.8891 1.2607,0.8835 1.2594,0.8776 1.259,0.8714" fill="none" id="repeat_p1--flower-support--proto_sw_1_1__flower_1__flower_support" data-instance-id="repeat_p1--flower-support--proto_sw_1_1__flower_1__flower_support" data-repeat-id="repeat_p1" data-repeat-shift="1" data-mount-id="proto_sw_1_1__flower_1__flower_support" stroke="#007800" stroke-width="0.010" stroke-linejoin="round" stroke-linecap="round" data-flower-id="flower_1"/></g></g><g id="flower-anchor-layer" data-instance-id="flower-anchor-layer" data-role="flower_anchor"><g id="flower-anchor--repeat_m1" data-instance-id="flower-anchor--repeat_m1" data-repeat-id="repeat_m1" data-repeat-shift="-1"><ellipse id="repeat_m1--flower-anchor--flower_1" data-instance-id="repeat_m1--flower-anchor--flower_1" data-repeat-id="repeat_m1" data-repeat-shift="-1" cx="-0.741" cy="0.628" rx="0.1355" ry="0.2434" fill="#fff7fb" stroke="#ff0000" stroke-width="0.006" data-flower-id="flower_1"/><ellipse id="repeat_m1--flower-anchor--flower_2" data-instance-id="repeat_m1--flower-anchor--flower_2" data-repeat-id="repeat_m1" data-repeat-shift="-1" cx="-0.2528" cy="0.6368" rx="0.1335" ry="0.2574" fill="#fff7fb" stroke="#ff0000" stroke-width="0.006" data-flower-id="flower_2"/></g><g id="flower-anchor--repeat_0" data-instance-id="flower-anchor--repeat_0" data-repeat-id="repeat_0" data-repeat-shift="0"><ellipse id="repeat_0--flower-anchor--flower_1" data-instance-id="repeat_0--flower-anchor--flower_1" data-repeat-id="repeat_0" data-repeat-shift="0" cx="0.259" cy="0.628" rx="0.1355" ry="0.2434" fill="#fff7fb" stroke="#ff0000" stroke-width="0.006" data-flower-id="flower_1"/><ellipse id="repeat_0--flower-anchor--flower_2" data-instance-id="repeat_0--flower-anchor--flower_2" data-repeat-id="repeat_0" data-repeat-shift="0" cx="0.7472" cy="0.6368" rx="0.1335" ry="0.2574" fill="#fff7fb" stroke="#ff0000" stroke-width="0.006" data-flower-id="flower_2"/></g><g id="flower-anchor--repeat_p1" data-instance-id="flower-anchor--repeat_p1" data-repeat-id="repeat_p1" data-repeat-shift="1"><ellipse id="repeat_p1--flower-anchor--flower_1" data-instance-id="repeat_p1--flower-anchor--flower_1" data-repeat-id="repeat_p1" data-repeat-shift="1" cx="1.259" cy="0.628" rx="0.1355" ry="0.2434" fill="#fff7fb" stroke="#ff0000" stroke-width="0.006" data-flower-id="flower_1"/><ellipse id="repeat_p1--flower-anchor--flower_2" data-instance-id="repeat_p1--flower-anchor--flower_2" data-repeat-id="repeat_p1" data-repeat-shift="1" cx="1.7472" cy="0.6368" rx="0.1335" ry="0.2574" fill="#fff7fb" stroke="#ff0000" stroke-width="0.006" data-flower-id="flower_2"/></g></g><g id="branches-layer" data-instance-id="branches-layer" data-role="branches"><g id="branches--repeat_m1" data-instance-id="branches--repeat_m1" data-repeat-id="repeat_m1" data-repeat-shift="-1"><path id="repeat_m1--curve--proto_sw_1_1__seed_1989963110__global_l1_flow_v3__density_medium__selected_l1_002.L1" data-instance-id="repeat_m1--curve--proto_sw_1_1__seed_1989963110__global_l1_flow_v3__density_medium__selected_l1_002.L1" data-repeat-id="repeat_m1" data-repeat-shift="-1" d="M -0.8055,0.2256 C -0.8601,0.248 -0.8904,0.1895 -0.9173,0.2404" fill="none" stroke="#ff9900" stroke-width="0.01" stroke-linejoin="round" stroke-linecap="round" data-role="primary_branch" data-level="L1" data-curve-id="proto_sw_1_1__seed_1989963110__global_l1_flow_v3__density_medium__selected_l1_002.L1" data-parent-curve-id="None" data-lane-id="selected_l1_002" data-unit-id="proto_sw_1_1__seed_1989963110__global_l1_flow_v3__density_medium__selected_l1_002__L1-Only__independent_l1__context_preferred__sample_0025"/><path id="repeat_m1--curve--proto_sw_1_1__seed_1989963110__global_l1_flow_v3__density_medium__selected_l1_004.L1" data-instance-id="repeat_m1--curve--proto_sw_1_1__seed_1989963110__global_l1_flow_v3__density_medium__selected_l1_004.L1" data-repeat-id="repeat_m1" data-repeat-shift="-1" d="M -0.5159,0.4741 C -0.4826,0.552 -0.4448,0.4849 -0.4164,0.5273" fill="none" stroke="#ff9900" stroke-width="0.01" stroke-linejoin="round" stroke-linecap="round" data-role="primary_branch" data-level="L1" data-curve-id="proto_sw_1_1__seed_1989963110__global_l1_flow_v3__density_medium__selected_l1_004.L1" data-parent-curve-id="None" data-lane-id="selected_l1_004" data-unit-id="proto_sw_1_1__seed_1989963110__global_l1_flow_v3__density_medium__selected_l1_004__L1-Only__independent_l1__context_preferred__sample_0075"/><path id="repeat_m1--curve--proto_sw_1_1__seed_1989963110__global_l1_flow_v3__density_medium__selected_l1_001.L1" data-instance-id="repeat_m1--curve--proto_sw_1_1__seed_1989963110__global_l1_flow_v3__density_medium__selected_l1_001.L1" data-repeat-id="repeat_m1" data-repeat-shift="-1" d="M -0.9659,0.4785 C -0.9418,0.3763 -1.0788,0.3312 -1.0753,0.2489" fill="none" stroke="#ff9900" stroke-width="0.01" stroke-linejoin="round" stroke-linecap="round" data-role="primary_branch" data-level="L1" data-curve-id="proto_sw_1_1__seed_1989963110__global_l1_flow_v3__density_medium__selected_l1_001.L1" data-parent-curve-id="None" data-lane-id="selected_l1_001" data-unit-id="proto_sw_1_1__seed_1989963110__global_l1_flow_v3__density_medium__selected_l1_001__L1-Only__independent_l1__context_preferred__sample_0000"/><path id="repeat_m1--curve--proto_sw_1_1__seed_1989963110__global_l1_flow_v3__density_medium__selected_l1_005.L1" data-instance-id="repeat_m1--curve--proto_sw_1_1__seed_1989963110__global_l1_flow_v3__density_medium__selected_l1_005.L1" data-repeat-id="repeat_m1" data-repeat-shift="-1" d="M -0.0322,0.6998 C -0.0025,0.7702 -0.0219,0.8509 -0.066,0.9519" fill="none" stroke="#ff9900" stroke-width="0.01" stroke-linejoin="round" stroke-linecap="round" data-role="primary_branch" data-level="L1" data-curve-id="proto_sw_1_1__seed_1989963110__global_l1_flow_v3__density_medium__selected_l1_005.L1" data-parent-curve-id="None" data-lane-id="selected_l1_005" data-unit-id="proto_sw_1_1__seed_1989963110__global_l1_flow_v3__density_medium__selected_l1_005__Y-2C__nested_s__context_preferred__sample_0109"/><path id="repeat_m1--curve--proto_sw_1_1__seed_1989963110__global_l1_flow_v3__density_medium__selected_l1_005.L2.1" data-instance-id="repeat_m1--curve--proto_sw_1_1__seed_1989963110__global_l1_flow_v3__density_medium__selected_l1_005.L2.1" data-repeat-id="repeat_m1" data-repeat-shift="-1" d="M -0.018,0.7741 C -0.002,0.7904 0.0088,0.811 0.0131,0.8334 C 0.0171,0.854 0.0245,0.8738 0.0352,0.8919" fill="none" stroke="#00ffff" stroke-width="0.007" stroke-linejoin="round" stroke-linecap="round" data-role="secondary_branch" data-level="L2" data-curve-id="proto_sw_1_1__seed_1989963110__global_l1_flow_v3__density_medium__selected_l1_005.L2.1" data-parent-curve-id="proto_sw_1_1__seed_1989963110__global_l1_flow_v3__density_medium__selected_l1_005.L1" data-lane-id="selected_l1_005" data-unit-id="proto_sw_1_1__seed_1989963110__global_l1_flow_v3__density_medium__selected_l1_005__Y-2C__nested_s__context_preferred__sample_0109"/><path id="repeat_m1--curve--proto_sw_1_1__seed_1989963110__global_l1_flow_v3__density_medium__selected_l1_005.L2.2" data-instance-id="repeat_m1--curve--proto_sw_1_1__seed_1989963110__global_l1_flow_v3__density_medium__selected_l1_005.L2.2" data-repeat-id="repeat_m1" data-repeat-shift="-1" d="M -0.0329,0.8636 C -0.0517,0.8741 -0.0668,0.89 -0.0764,0.9094 C -0.0862,0.9293 -0.0996,0.9474 -0.1158,0.9626" fill="none" stroke="#00ffff" stroke-width="0.007" stroke-linejoin="round" stroke-linecap="round" data-role="secondary_branch" data-level="L2" data-curve-id="proto_sw_1_1__seed_1989963110__global_l1_flow_v3__density_medium__selected_l1_005.L2.2" data-parent-curve-id="proto_sw_1_1__seed_1989963110__global_l1_flow_v3__density_medium__selected_l1_005.L1" data-lane-id="selected_l1_005" data-unit-id="proto_sw_1_1__seed_1989963110__global_l1_flow_v3__density_medium__selected_l1_005__Y-2C__nested_s__context_preferred__sample_0109"/><path id="repeat_m1--curve--proto_sw_1_1__seed_1989963110__global_l1_flow_v3__density_medium__selected_l1_003.L1" data-instance-id="repeat_m1--curve--proto_sw_1_1__seed_1989963110__global_l1_flow_v3__density_medium__selected_l1_003.L1" data-repeat-id="repeat_m1" data-repeat-shift="-1" d="M -0.5602,0.3244 C -0.5876,0.2302 -0.4478,0.1489 -0.4598,0.0907" fill="none" stroke="#ff9900" stroke-width="0.01" stroke-linejoin="round" stroke-linecap="round" data-role="primary_branch" data-level="L1" data-curve-id="proto_sw_1_1__seed_1989963110__global_l1_flow_v3__density_medium__selected_l1_003.L1" data-parent-curve-id="None" data-lane-id="selected_l1_003" data-unit-id="proto_sw_1_1__seed_1989963110__global_l1_flow_v3__density_medium__selected_l1_003__L1-Only__independent_l1__context_preferred__sample_0050"/></g><g id="branches--repeat_0" data-instance-id="branches--repeat_0" data-repeat-id="repeat_0" data-repeat-shift="0"><path id="repeat_0--curve--proto_sw_1_1__seed_1989963110__global_l1_flow_v3__density_medium__selected_l1_002.L1" data-instance-id="repeat_0--curve--proto_sw_1_1__seed_1989963110__global_l1_flow_v3__density_medium__selected_l1_002.L1" data-repeat-id="repeat_0" data-repeat-shift="0" d="M 0.1945,0.2256 C 0.1399,0.248 0.1096,0.1895 0.0827,0.2404" fill="none" stroke="#ff9900" stroke-width="0.01" stroke-linejoin="round" stroke-linecap="round" data-role="primary_branch" data-level="L1" data-curve-id="proto_sw_1_1__seed_1989963110__global_l1_flow_v3__density_medium__selected_l1_002.L1" data-parent-curve-id="None" data-lane-id="selected_l1_002" data-unit-id="proto_sw_1_1__seed_1989963110__global_l1_flow_v3__density_medium__selected_l1_002__L1-Only__independent_l1__context_preferred__sample_0025"/><path id="repeat_0--curve--proto_sw_1_1__seed_1989963110__global_l1_flow_v3__density_medium__selected_l1_004.L1" data-instance-id="repeat_0--curve--proto_sw_1_1__seed_1989963110__global_l1_flow_v3__density_medium__selected_l1_004.L1" data-repeat-id="repeat_0" data-repeat-shift="0" d="M 0.4841,0.4741 C 0.5174,0.552 0.5552,0.4849 0.5836,0.5273" fill="none" stroke="#ff9900" stroke-width="0.01" stroke-linejoin="round" stroke-linecap="round" data-role="primary_branch" data-level="L1" data-curve-id="proto_sw_1_1__seed_1989963110__global_l1_flow_v3__density_medium__selected_l1_004.L1" data-parent-curve-id="None" data-lane-id="selected_l1_004" data-unit-id="proto_sw_1_1__seed_1989963110__global_l1_flow_v3__density_medium__selected_l1_004__L1-Only__independent_l1__context_preferred__sample_0075"/><path id="repeat_0--curve--proto_sw_1_1__seed_1989963110__global_l1_flow_v3__density_medium__selected_l1_001.L1" data-instance-id="repeat_0--curve--proto_sw_1_1__seed_1989963110__global_l1_flow_v3__density_medium__selected_l1_001.L1" data-repeat-id="repeat_0" data-repeat-shift="0" d="M 0.0341,0.4785 C 0.0582,0.3763 -0.0788,0.3312 -0.0753,0.2489" fill="none" stroke="#ff9900" stroke-width="0.01" stroke-linejoin="round" stroke-linecap="round" data-role="primary_branch" data-level="L1" data-curve-id="proto_sw_1_1__seed_1989963110__global_l1_flow_v3__density_medium__selected_l1_001.L1" data-parent-curve-id="None" data-lane-id="selected_l1_001" data-unit-id="proto_sw_1_1__seed_1989963110__global_l1_flow_v3__density_medium__selected_l1_001__L1-Only__independent_l1__context_preferred__sample_0000"/><path id="repeat_0--curve--proto_sw_1_1__seed_1989963110__global_l1_flow_v3__density_medium__selected_l1_005.L1" data-instance-id="repeat_0--curve--proto_sw_1_1__seed_1989963110__global_l1_flow_v3__density_medium__selected_l1_005.L1" data-repeat-id="repeat_0" data-repeat-shift="0" d="M 0.9678,0.6998 C 0.9975,0.7702 0.9781,0.8509 0.934,0.9519" fill="none" stroke="#ff9900" stroke-width="0.01" stroke-linejoin="round" stroke-linecap="round" data-role="primary_branch" data-level="L1" data-curve-id="proto_sw_1_1__seed_1989963110__global_l1_flow_v3__density_medium__selected_l1_005.L1" data-parent-curve-id="None" data-lane-id="selected_l1_005" data-unit-id="proto_sw_1_1__seed_1989963110__global_l1_flow_v3__density_medium__selected_l1_005__Y-2C__nested_s__context_preferred__sample_0109"/><path id="repeat_0--curve--proto_sw_1_1__seed_1989963110__global_l1_flow_v3__density_medium__selected_l1_005.L2.1" data-instance-id="repeat_0--curve--proto_sw_1_1__seed_1989963110__global_l1_flow_v3__density_medium__selected_l1_005.L2.1" data-repeat-id="repeat_0" data-repeat-shift="0" d="M 0.982,0.7741 C 0.998,0.7904 1.0088,0.811 1.0131,0.8334 C 1.0171,0.854 1.0245,0.8738 1.0352,0.8919" fill="none" stroke="#00ffff" stroke-width="0.007" stroke-linejoin="round" stroke-linecap="round" data-role="secondary_branch" data-level="L2" data-curve-id="proto_sw_1_1__seed_1989963110__global_l1_flow_v3__density_medium__selected_l1_005.L2.1" data-parent-curve-id="proto_sw_1_1__seed_1989963110__global_l1_flow_v3__density_medium__selected_l1_005.L1" data-lane-id="selected_l1_005" data-unit-id="proto_sw_1_1__seed_1989963110__global_l1_flow_v3__density_medium__selected_l1_005__Y-2C__nested_s__context_preferred__sample_0109"/><path id="repeat_0--curve--proto_sw_1_1__seed_1989963110__global_l1_flow_v3__density_medium__selected_l1_005.L2.2" data-instance-id="repeat_0--curve--proto_sw_1_1__seed_1989963110__global_l1_flow_v3__density_medium__selected_l1_005.L2.2" data-repeat-id="repeat_0" data-repeat-shift="0" d="M 0.9671,0.8636 C 0.9483,0.8741 0.9332,0.89 0.9236,0.9094 C 0.9138,0.9293 0.9004,0.9474 0.8842,0.9626" fill="none" stroke="#00ffff" stroke-width="0.007" stroke-linejoin="round" stroke-linecap="round" data-role="secondary_branch" data-level="L2" data-curve-id="proto_sw_1_1__seed_1989963110__global_l1_flow_v3__density_medium__selected_l1_005.L2.2" data-parent-curve-id="proto_sw_1_1__seed_1989963110__global_l1_flow_v3__density_medium__selected_l1_005.L1" data-lane-id="selected_l1_005" data-unit-id="proto_sw_1_1__seed_1989963110__global_l1_flow_v3__density_medium__selected_l1_005__Y-2C__nested_s__context_preferred__sample_0109"/><path id="repeat_0--curve--proto_sw_1_1__seed_1989963110__global_l1_flow_v3__density_medium__selected_l1_003.L1" data-instance-id="repeat_0--curve--proto_sw_1_1__seed_1989963110__global_l1_flow_v3__density_medium__selected_l1_003.L1" data-repeat-id="repeat_0" data-repeat-shift="0" d="M 0.4398,0.3244 C 0.4124,0.2302 0.5522,0.1489 0.5402,0.0907" fill="none" stroke="#ff9900" stroke-width="0.01" stroke-linejoin="round" stroke-linecap="round" data-role="primary_branch" data-level="L1" data-curve-id="proto_sw_1_1__seed_1989963110__global_l1_flow_v3__density_medium__selected_l1_003.L1" data-parent-curve-id="None" data-lane-id="selected_l1_003" data-unit-id="proto_sw_1_1__seed_1989963110__global_l1_flow_v3__density_medium__selected_l1_003__L1-Only__independent_l1__context_preferred__sample_0050"/></g><g id="branches--repeat_p1" data-instance-id="branches--repeat_p1" data-repeat-id="repeat_p1" data-repeat-shift="1"><path id="repeat_p1--curve--proto_sw_1_1__seed_1989963110__global_l1_flow_v3__density_medium__selected_l1_002.L1" data-instance-id="repeat_p1--curve--proto_sw_1_1__seed_1989963110__global_l1_flow_v3__density_medium__selected_l1_002.L1" data-repeat-id="repeat_p1" data-repeat-shift="1" d="M 1.1945,0.2256 C 1.1399,0.248 1.1096,0.1895 1.0827,0.2404" fill="none" stroke="#ff9900" stroke-width="0.01" stroke-linejoin="round" stroke-linecap="round" data-role="primary_branch" data-level="L1" data-curve-id="proto_sw_1_1__seed_1989963110__global_l1_flow_v3__density_medium__selected_l1_002.L1" data-parent-curve-id="None" data-lane-id="selected_l1_002" data-unit-id="proto_sw_1_1__seed_1989963110__global_l1_flow_v3__density_medium__selected_l1_002__L1-Only__independent_l1__context_preferred__sample_0025"/><path id="repeat_p1--curve--proto_sw_1_1__seed_1989963110__global_l1_flow_v3__density_medium__selected_l1_004.L1" data-instance-id="repeat_p1--curve--proto_sw_1_1__seed_1989963110__global_l1_flow_v3__density_medium__selected_l1_004.L1" data-repeat-id="repeat_p1" data-repeat-shift="1" d="M 1.4841,0.4741 C 1.5174,0.552 1.5552,0.4849 1.5836,0.5273" fill="none" stroke="#ff9900" stroke-width="0.01" stroke-linejoin="round" stroke-linecap="round" data-role="primary_branch" data-level="L1" data-curve-id="proto_sw_1_1__seed_1989963110__global_l1_flow_v3__density_medium__selected_l1_004.L1" data-parent-curve-id="None" data-lane-id="selected_l1_004" data-unit-id="proto_sw_1_1__seed_1989963110__global_l1_flow_v3__density_medium__selected_l1_004__L1-Only__independent_l1__context_preferred__sample_0075"/><path id="repeat_p1--curve--proto_sw_1_1__seed_1989963110__global_l1_flow_v3__density_medium__selected_l1_001.L1" data-instance-id="repeat_p1--curve--proto_sw_1_1__seed_1989963110__global_l1_flow_v3__density_medium__selected_l1_001.L1" data-repeat-id="repeat_p1" data-repeat-shift="1" d="M 1.0341,0.4785 C 1.0582,0.3763 0.9212,0.3312 0.9247,0.2489" fill="none" stroke="#ff9900" stroke-width="0.01" stroke-linejoin="round" stroke-linecap="round" data-role="primary_branch" data-level="L1" data-curve-id="proto_sw_1_1__seed_1989963110__global_l1_flow_v3__density_medium__selected_l1_001.L1" data-parent-curve-id="None" data-lane-id="selected_l1_001" data-unit-id="proto_sw_1_1__seed_1989963110__global_l1_flow_v3__density_medium__selected_l1_001__L1-Only__independent_l1__context_preferred__sample_0000"/><path id="repeat_p1--curve--proto_sw_1_1__seed_1989963110__global_l1_flow_v3__density_medium__selected_l1_005.L1" data-instance-id="repeat_p1--curve--proto_sw_1_1__seed_1989963110__global_l1_flow_v3__density_medium__selected_l1_005.L1" data-repeat-id="repeat_p1" data-repeat-shift="1" d="M 1.9678,0.6998 C 1.9975,0.7702 1.9781,0.8509 1.934,0.9519" fill="none" stroke="#ff9900" stroke-width="0.01" stroke-linejoin="round" stroke-linecap="round" data-role="primary_branch" data-level="L1" data-curve-id="proto_sw_1_1__seed_1989963110__global_l1_flow_v3__density_medium__selected_l1_005.L1" data-parent-curve-id="None" data-lane-id="selected_l1_005" data-unit-id="proto_sw_1_1__seed_1989963110__global_l1_flow_v3__density_medium__selected_l1_005__Y-2C__nested_s__context_preferred__sample_0109"/><path id="repeat_p1--curve--proto_sw_1_1__seed_1989963110__global_l1_flow_v3__density_medium__selected_l1_005.L2.1" data-instance-id="repeat_p1--curve--proto_sw_1_1__seed_1989963110__global_l1_flow_v3__density_medium__selected_l1_005.L2.1" data-repeat-id="repeat_p1" data-repeat-shift="1" d="M 1.982,0.7741 C 1.998,0.7904 2.0088,0.811 2.0131,0.8334 C 2.0171,0.854 2.0245,0.8738 2.0352,0.8919" fill="none" stroke="#00ffff" stroke-width="0.007" stroke-linejoin="round" stroke-linecap="round" data-role="secondary_branch" data-level="L2" data-curve-id="proto_sw_1_1__seed_1989963110__global_l1_flow_v3__density_medium__selected_l1_005.L2.1" data-parent-curve-id="proto_sw_1_1__seed_1989963110__global_l1_flow_v3__density_medium__selected_l1_005.L1" data-lane-id="selected_l1_005" data-unit-id="proto_sw_1_1__seed_1989963110__global_l1_flow_v3__density_medium__selected_l1_005__Y-2C__nested_s__context_preferred__sample_0109"/><path id="repeat_p1--curve--proto_sw_1_1__seed_1989963110__global_l1_flow_v3__density_medium__selected_l1_005.L2.2" data-instance-id="repeat_p1--curve--proto_sw_1_1__seed_1989963110__global_l1_flow_v3__density_medium__selected_l1_005.L2.2" data-repeat-id="repeat_p1" data-repeat-shift="1" d="M 1.9671,0.8636 C 1.9483,0.8741 1.9332,0.89 1.9236,0.9094 C 1.9138,0.9293 1.9004,0.9474 1.8842,0.9626" fill="none" stroke="#00ffff" stroke-width="0.007" stroke-linejoin="round" stroke-linecap="round" data-role="secondary_branch" data-level="L2" data-curve-id="proto_sw_1_1__seed_1989963110__global_l1_flow_v3__density_medium__selected_l1_005.L2.2" data-parent-curve-id="proto_sw_1_1__seed_1989963110__global_l1_flow_v3__density_medium__selected_l1_005.L1" data-lane-id="selected_l1_005" data-unit-id="proto_sw_1_1__seed_1989963110__global_l1_flow_v3__density_medium__selected_l1_005__Y-2C__nested_s__context_preferred__sample_0109"/><path id="repeat_p1--curve--proto_sw_1_1__seed_1989963110__global_l1_flow_v3__density_medium__selected_l1_003.L1" data-instance-id="repeat_p1--curve--proto_sw_1_1__seed_1989963110__global_l1_flow_v3__density_medium__selected_l1_003.L1" data-repeat-id="repeat_p1" data-repeat-shift="1" d="M 1.4398,0.3244 C 1.4124,0.2302 1.5522,0.1489 1.5402,0.0907" fill="none" stroke="#ff9900" stroke-width="0.01" stroke-linejoin="round" stroke-linecap="round" data-role="primary_branch" data-level="L1" data-curve-id="proto_sw_1_1__seed_1989963110__global_l1_flow_v3__density_medium__selected_l1_003.L1" data-parent-curve-id="None" data-lane-id="selected_l1_003" data-unit-id="proto_sw_1_1__seed_1989963110__global_l1_flow_v3__density_medium__selected_l1_003__L1-Only__independent_l1__context_preferred__sample_0050"/></g></g></svg>