<svg xmlns="http://www.w3.org/2000/svg" id="structural-svg--proto_sw_3_2--production-seed-200005" data-prototype-id="proto_sw_3_2" data-production-seed="200005" data-backbone-seed="3616305472" data-flower-seed="4185442326" data-branch-seed="2083021513" data-unit-seed="2157334348" data-backbone-variant-id="compact" data-density-level="rich" data-source-case="A411" data-source-contract-id="stage5e_joint_sparse_local_l2_selection_v2" data-source-plan-id="proto_sw_3_2__seed_2083021513__global_l1_flow_v3__density_rich" data-source-selection-id="proto_sw_3_2__seed_2083021513__global_l1_flow_v3__density_rich__unit_candidates_v2__global_unit_selection_joint_h2b" data-repeat-mode="triple" viewBox="-1.08 0 3.16 1.1875" width="3160" height="1188"><rect x="-1.08" y="0" width="3.16" height="1.1875" fill="#f1efe9"/><metadata>role_color_identity_v2: backbone=#0000ff; primary_branch=#ff9900; secondary_branch=#00ffff; flower_support=#007800; flower_anchor=#ff0000; unit_boundary=#000000(dashed). data-role is authoritative; stroke color is a visual fallback.</metadata><g id="unit-boundaries" data-instance-id="unit-boundaries" data-role="unit_boundary"><line id="unit-boundary--00" data-instance-id="unit-boundary--00" data-boundary-x="-1" x1="-1" y1="0" x2="-1" y2="1.1875" stroke="#000000" stroke-dasharray="0.012 0.008" stroke-width="0.004"/><line id="unit-boundary--01" data-instance-id="unit-boundary--01" data-boundary-x="0" x1="0" y1="0" x2="0" y2="1.1875" stroke="#000000" stroke-dasharray="0.012 0.008" stroke-width="0.004"/><line id="unit-boundary--02" data-instance-id="unit-boundary--02" data-boundary-x="1" x1="1" y1="0" x2="1" y2="1.1875" stroke="#000000" stroke-dasharray="0.012 0.008" stroke-width="0.004"/><line id="unit-boundary--03" data-instance-id="unit-boundary--03" data-boundary-x="2" x1="2" y1="0" x2="2" y2="1.1875" stroke="#000000" stroke-dasharray="0.012 0.008" stroke-width="0.004"/></g><g id="backbone-layer" data-instance-id="backbone-layer" data-role="backbone"><g id="backbone--repeat_m1" data-instance-id="backbone--repeat_m1" data-repeat-id="repeat_m1" data-repeat-shift="-1"><polyline points="-1,0.9551 -0.988,0.9444 -0.9761,0.9334 -0.9641,0.9223 -0.9521,0.911 -0.9402,0.8996 -0.9282,0.8881 -0.9162,0.8766 -0.9043,0.865 -0.8923,0.8533 -0.8803,0.8417 -0.8684,0.8302 -0.8564,0.8186 -0.8444,0.8072 -0.8325,0.7958 -0.8205,0.7846 -0.8085,0.7735 -0.7966,0.7626 -0.7846,0.7518 -0.7726,0.7411 -0.7611,0.7296 -0.7508,0.7175 -0.7398,0.7065 -0.7283,0.6964 -0.7163,0.6872 -0.7037,0.6788 -0.6907,0.6713 -0.6773,0.6648 -0.6634,0.6591 -0.6492,0.6543 -0.6346,0.6505 -0.6198,0.6476 -0.6047,0.6457 -0.5896,0.6449 -0.5745,0.645 -0.5595,0.6461 -0.5447,0.6483 -0.5303,0.6514 -0.5162,0.6556 -0.5025,0.6606 -0.4892,0.6665 -0.4765,0.6733 -0.4641,0.6812 -0.4521,0.6899 -0.4432,0.699 -0.4342,0.7111 -0.4251,0.7245 -0.4158,0.738 -0.4065,0.7517 -0.3969,0.7656 -0.3873,0.7797 -0.3775,0.7937 -0.3675,0.8078 -0.3574,0.8219 -0.3471,0.8359 -0.3366,0.8498 -0.3259,0.8634 -0.315,0.8768 -0.3038,0.8898 -0.2923,0.9024 -0.2804,0.9146 -0.2681,0.926 -0.2553,0.9367 -0.2421,0.9464 -0.2283,0.9549 -0.2143,0.9622 -0.2001,0.9687 -0.1857,0.9744 -0.1711,0.9794 -0.1563,0.9836 -0.1415,0.987 -0.1264,0.9897 -0.1114,0.9914 -0.0962,0.9922 -0.0811,0.9919 -0.0661,0.9904 -0.0513,0.9875 -0.037,0.9828 -0.0234,0.976 -0.0109,0.9669 0,0.9551" fill="none" id="repeat_m1--backbone" data-instance-id="repeat_m1--backbone" data-repeat-id="repeat_m1" data-repeat-shift="-1" stroke="#0000ff" stroke-width="0.007" stroke-linejoin="round" stroke-linecap="round"/></g><g id="backbone--repeat_0" data-instance-id="backbone--repeat_0" data-repeat-id="repeat_0" data-repeat-shift="0"><polyline points="0,0.9551 0.012,0.9444 0.0239,0.9334 0.0359,0.9223 0.0479,0.911 0.0598,0.8996 0.0718,0.8881 0.0838,0.8766 0.0957,0.865 0.1077,0.8533 0.1197,0.8417 0.1316,0.8302 0.1436,0.8186 0.1556,0.8072 0.1675,0.7958 0.1795,0.7846 0.1915,0.7735 0.2034,0.7626 0.2154,0.7518 0.2274,0.7411 0.2389,0.7296 0.2492,0.7175 0.2602,0.7065 0.2717,0.6964 0.2837,0.6872 0.2963,0.6788 0.3093,0.6713 0.3227,0.6648 0.3366,0.6591 0.3508,0.6543 0.3654,0.6505 0.3802,0.6476 0.3953,0.6457 0.4104,0.6449 0.4255,0.645 0.4405,0.6461 0.4553,0.6483 0.4697,0.6514 0.4838,0.6556 0.4975,0.6606 0.5108,0.6665 0.5235,0.6733 0.5359,0.6812 0.5479,0.6899 0.5568,0.699 0.5658,0.7111 0.5749,0.7245 0.5842,0.738 0.5935,0.7517 0.6031,0.7656 0.6127,0.7797 0.6225,0.7937 0.6325,0.8078 0.6426,0.8219 0.6529,0.8359 0.6634,0.8498 0.6741,0.8634 0.685,0.8768 0.6962,0.8898 0.7077,0.9024 0.7196,0.9146 0.7319,0.926 0.7447,0.9367 0.7579,0.9464 0.7717,0.9549 0.7857,0.9622 0.7999,0.9687 0.8143,0.9744 0.8289,0.9794 0.8437,0.9836 0.8585,0.987 0.8736,0.9897 0.8886,0.9914 0.9038,0.9922 0.9189,0.9919 0.9339,0.9904 0.9487,0.9875 0.963,0.9828 0.9766,0.976 0.9891,0.9669 1,0.9551" fill="none" id="repeat_0--backbone" data-instance-id="repeat_0--backbone" data-repeat-id="repeat_0" data-repeat-shift="0" stroke="#0000ff" stroke-width="0.014" stroke-linejoin="round" stroke-linecap="round"/></g><g id="backbone--repeat_p1" data-instance-id="backbone--repeat_p1" data-repeat-id="repeat_p1" data-repeat-shift="1"><polyline points="1,0.9551 1.012,0.9444 1.0239,0.9334 1.0359,0.9223 1.0479,0.911 1.0598,0.8996 1.0718,0.8881 1.0838,0.8766 1.0957,0.865 1.1077,0.8533 1.1197,0.8417 1.1316,0.8302 1.1436,0.8186 1.1556,0.8072 1.1675,0.7958 1.1795,0.7846 1.1915,0.7735 1.2034,0.7626 1.2154,0.7518 1.2274,0.7411 1.2389,0.7296 1.2492,0.7175 1.2602,0.7065 1.2717,0.6964 1.2837,0.6872 1.2963,0.6788 1.3093,0.6713 1.3227,0.6648 1.3366,0.6591 1.3508,0.6543 1.3654,0.6505 1.3802,0.6476 1.3953,0.6457 1.4104,0.6449 1.4255,0.645 1.4405,0.6461 1.4553,0.6483 1.4697,0.6514 1.4838,0.6556 1.4975,0.6606 1.5108,0.6665 1.5235,0.6733 1.5359,0.6812 1.5479,0.6899 1.5568,0.699 1.5658,0.7111 1.5749,0.7245 1.5842,0.738 1.5935,0.7517 1.6031,0.7656 1.6127,0.7797 1.6225,0.7937 1.6325,0.8078 1.6426,0.8219 1.6529,0.8359 1.6634,0.8498 1.6741,0.8634 1.685,0.8768 1.6962,0.8898 1.7077,0.9024 1.7196,0.9146 1.7319,0.926 1.7447,0.9367 1.7579,0.9464 1.7717,0.9549 1.7857,0.9622 1.7999,0.9687 1.8143,0.9744 1.8289,0.9794 1.8437,0.9836 1.8585,0.987 1.8736,0.9897 1.8886,0.9914 1.9038,0.9922 1.9189,0.9919 1.9339,0.9904 1.9487,0.9875 1.963,0.9828 1.9766,0.976 1.9891,0.9669 2,0.9551" fill="none" id="repeat_p1--backbone" data-instance-id="repeat_p1--backbone" data-repeat-id="repeat_p1" data-repeat-shift="1" stroke="#0000ff" stroke-width="0.007" stroke-linejoin="round" stroke-linecap="round"/></g></g><g id="flower-support-layer" data-instance-id="flower-support-layer" data-role="flower_support"><g id="flower-support--repeat_m1" data-instance-id="flower-support--repeat_m1" data-repeat-id="repeat_m1" data-repeat-shift="-1"><polyline points="-1.0661,0.9904 -1.0536,0.9878 -1.042,0.984 -1.0312,0.9789 -1.0212,0.9727 -1.012,0.9654 -1.0035,0.957 -0.9957,0.9477 -0.9886,0.9375 -0.9821,0.9265 -0.9762,0.9147 -0.9708,0.9021 -0.966,0.8889 -0.9617,0.8752 -0.9578,0.8608 -0.9543,0.8461 -0.9512,0.8309 -0.9484,0.8153 -0.9459,0.7995 -0.9437,0.7835 -0.9417,0.7673 -0.94,0.751 -0.9384,0.7347 -0.9369,0.7184 -0.9355,0.7022 -0.9341,0.6861 -0.9328,0.6703 -0.9315,0.6547 -0.9301,0.6395 -0.9286,0.6247 -0.927,0.6103 -0.9252,0.5965 -0.9232,0.5832 -0.921,0.5706 -0.9186,0.5587 -0.9158,0.5476 -0.9127,0.5373 -0.9092,0.5278 -0.9053,0.5194 -0.9009,0.512 -0.8961,0.5056 -0.8943,0.5037 -0.8924,0.5017 -0.8905,0.4998 -0.8885,0.4978 -0.8865,0.4959 -0.8844,0.494 -0.8823,0.4921 -0.8801,0.4902 -0.8779,0.4884 -0.8757,0.4865 -0.8734,0.4846 -0.8712,0.4828 -0.8689,0.4809 -0.8666,0.479 -0.8644,0.4772 -0.8621,0.4753 -0.8599,0.4735 -0.8577,0.4716 -0.8555,0.4698 -0.8534,0.4679 -0.8513,0.466 -0.8492,0.4641 -0.8472,0.4623 -0.8453,0.4604 -0.8434,0.4585 -0.8417,0.4566 -0.8399,0.4546 -0.8383,0.4527 -0.8368,0.4508 -0.8354,0.4488 -0.8341,0.4468 -0.8329,0.4449 -0.8318,0.4428 -0.8308,0.4408 -0.83,0.4388 -0.8293,0.4367 -0.8287,0.4346 -0.8283,0.4325 -0.8281,0.4304 -0.828,0.4282" fill="none" id="repeat_m1--flower-support--proto_sw_3_2__flower_1__flower_support" data-instance-id="repeat_m1--flower-support--proto_sw_3_2__flower_1__flower_support" data-repeat-id="repeat_m1" data-repeat-shift="-1" data-mount-id="proto_sw_3_2__flower_1__flower_support" stroke="#007800" stroke-width="0.010" stroke-linejoin="round" stroke-linecap="round" data-flower-id="flower_1"/><polyline points="-0.0661,0.9904 -0.0733,0.991 -0.0799,0.9907 -0.0859,0.9894 -0.0914,0.9872 -0.0964,0.9842 -0.1009,0.9804 -0.1049,0.9758 -0.1085,0.9705 -0.1117,0.9646 -0.1145,0.958 -0.1169,0.9509 -0.119,0.9433 -0.1208,0.9352 -0.1222,0.9267 -0.1235,0.9177 -0.1245,0.9085 -0.1252,0.8989 -0.1258,0.8891 -0.1262,0.8791 -0.1265,0.869 -0.1267,0.8587 -0.1268,0.8484 -0.1268,0.838 -0.1267,0.8277 -0.1267,0.8174 -0.1267,0.8073 -0.1267,0.7973 -0.1268,0.7875 -0.127,0.778 -0.1272,0.7688 -0.1277,0.7599 -0.1282,0.7515 -0.129,0.7434 -0.13,0.7359 -0.1312,0.7288 -0.1327,0.7224 -0.1344,0.7165 -0.1365,0.7114 -0.1389,0.7069 -0.1417,0.7032 -0.1436,0.7012 -0.1455,0.6992 -0.1475,0.6972 -0.1495,0.6953 -0.1516,0.6933 -0.1538,0.6914 -0.156,0.6895 -0.1582,0.6876 -0.1605,0.6857 -0.1628,0.6838 -0.1651,0.6819 -0.1675,0.68 -0.1698,0.6781 -0.1722,0.6763 -0.1745,0.6744 -0.1768,0.6725 -0.1791,0.6706 -0.1814,0.6687 -0.1837,0.6669 -0.1859,0.665 -0.188,0.6631 -0.1902,0.6612 -0.1922,0.6593 -0.1942,0.6573 -0.1961,0.6554 -0.198,0.6535 -0.1997,0.6515 -0.2014,0.6496 -0.203,0.6476 -0.2045,0.6456 -0.2058,0.6436 -0.2071,0.6416 -0.2082,0.6395 -0.2092,0.6375 -0.21,0.6354 -0.2108,0.6333 -0.2113,0.6312 -0.2117,0.629 -0.212,0.6268 -0.2121,0.6246" fill="none" id="repeat_m1--flower-support--proto_sw_3_2__flower_2__flower_support" data-instance-id="repeat_m1--flower-support--proto_sw_3_2__flower_2__flower_support" data-repeat-id="repeat_m1" data-repeat-shift="-1" data-mount-id="proto_sw_3_2__flower_2__flower_support" stroke="#007800" stroke-width="0.010" stroke-linejoin="round" stroke-linecap="round" data-flower-id="flower_2"/></g><g id="flower-support--repeat_0" data-instance-id="flower-support--repeat_0" data-repeat-id="repeat_0" data-repeat-shift="0"><polyline points="-0.0661,0.9904 -0.0536,0.9878 -0.042,0.984 -0.0312,0.9789 -0.0212,0.9727 -0.012,0.9654 -0.0035,0.957 0.0043,0.9477 0.0114,0.9375 0.0179,0.9265 0.0238,0.9147 0.0292,0.9021 0.034,0.8889 0.0383,0.8752 0.0422,0.8608 0.0457,0.8461 0.0488,0.8309 0.0516,0.8153 0.0541,0.7995 0.0563,0.7835 0.0583,0.7673 0.06,0.751 0.0616,0.7347 0.0631,0.7184 0.0645,0.7022 0.0659,0.6861 0.0672,0.6703 0.0685,0.6547 0.0699,0.6395 0.0714,0.6247 0.073,0.6103 0.0748,0.5965 0.0768,0.5832 0.079,0.5706 0.0814,0.5587 0.0842,0.5476 0.0873,0.5373 0.0908,0.5278 0.0947,0.5194 0.0991,0.512 0.1039,0.5056 0.1057,0.5037 0.1076,0.5017 0.1095,0.4998 0.1115,0.4978 0.1135,0.4959 0.1156,0.494 0.1177,0.4921 0.1199,0.4902 0.1221,0.4884 0.1243,0.4865 0.1266,0.4846 0.1288,0.4828 0.1311,0.4809 0.1334,0.479 0.1356,0.4772 0.1379,0.4753 0.1401,0.4735 0.1423,0.4716 0.1445,0.4698 0.1466,0.4679 0.1487,0.466 0.1508,0.4641 0.1528,0.4623 0.1547,0.4604 0.1566,0.4585 0.1583,0.4566 0.1601,0.4546 0.1617,0.4527 0.1632,0.4508 0.1646,0.4488 0.1659,0.4468 0.1671,0.4449 0.1682,0.4428 0.1692,0.4408 0.17,0.4388 0.1707,0.4367 0.1713,0.4346 0.1717,0.4325 0.1719,0.4304 0.172,0.4282" fill="none" id="repeat_0--flower-support--proto_sw_3_2__flower_1__flower_support" data-instance-id="repeat_0--flower-support--proto_sw_3_2__flower_1__flower_support" data-repeat-id="repeat_0" data-repeat-shift="0" data-mount-id="proto_sw_3_2__flower_1__flower_support" stroke="#007800" stroke-width="0.010" stroke-linejoin="round" stroke-linecap="round" data-flower-id="flower_1"/><polyline points="0.9339,0.9904 0.9267,0.991 0.9201,0.9907 0.9141,0.9894 0.9086,0.9872 0.9036,0.9842 0.8991,0.9804 0.8951,0.9758 0.8915,0.9705 0.8883,0.9646 0.8855,0.958 0.8831,0.9509 0.881,0.9433 0.8792,0.9352 0.8778,0.9267 0.8765,0.9177 0.8755,0.9085 0.8748,0.8989 0.8742,0.8891 0.8738,0.8791 0.8735,0.869 0.8733,0.8587 0.8732,0.8484 0.8732,0.838 0.8733,0.8277 0.8733,0.8174 0.8733,0.8073 0.8733,0.7973 0.8732,0.7875 0.873,0.778 0.8728,0.7688 0.8723,0.7599 0.8718,0.7515 0.871,0.7434 0.87,0.7359 0.8688,0.7288 0.8673,0.7224 0.8656,0.7165 0.8635,0.7114 0.8611,0.7069 0.8583,0.7032 0.8564,0.7012 0.8545,0.6992 0.8525,0.6972 0.8505,0.6953 0.8484,0.6933 0.8462,0.6914 0.844,0.6895 0.8418,0.6876 0.8395,0.6857 0.8372,0.6838 0.8349,0.6819 0.8325,0.68 0.8302,0.6781 0.8278,0.6763 0.8255,0.6744 0.8232,0.6725 0.8209,0.6706 0.8186,0.6687 0.8163,0.6669 0.8141,0.665 0.812,0.6631 0.8098,0.6612 0.8078,0.6593 0.8058,0.6573 0.8039,0.6554 0.802,0.6535 0.8003,0.6515 0.7986,0.6496 0.797,0.6476 0.7955,0.6456 0.7942,0.6436 0.7929,0.6416 0.7918,0.6395 0.7908,0.6375 0.79,0.6354 0.7892,0.6333 0.7887,0.6312 0.7883,0.629 0.788,0.6268 0.7879,0.6246" fill="none" id="repeat_0--flower-support--proto_sw_3_2__flower_2__flower_support" data-instance-id="repeat_0--flower-support--proto_sw_3_2__flower_2__flower_support" data-repeat-id="repeat_0" data-repeat-shift="0" data-mount-id="proto_sw_3_2__flower_2__flower_support" stroke="#007800" stroke-width="0.010" stroke-linejoin="round" stroke-linecap="round" data-flower-id="flower_2"/></g><g id="flower-support--repeat_p1" data-instance-id="flower-support--repeat_p1" data-repeat-id="repeat_p1" data-repeat-shift="1"><polyline points="0.9339,0.9904 0.9464,0.9878 0.958,0.984 0.9688,0.9789 0.9788,0.9727 0.988,0.9654 0.9965,0.957 1.0043,0.9477 1.0114,0.9375 1.0179,0.9265 1.0238,0.9147 1.0292,0.9021 1.034,0.8889 1.0383,0.8752 1.0422,0.8608 1.0457,0.8461 1.0488,0.8309 1.0516,0.8153 1.0541,0.7995 1.0563,0.7835 1.0583,0.7673 1.06,0.751 1.0616,0.7347 1.0631,0.7184 1.0645,0.7022 1.0659,0.6861 1.0672,0.6703 1.0685,0.6547 1.0699,0.6395 1.0714,0.6247 1.073,0.6103 1.0748,0.5965 1.0768,0.5832 1.079,0.5706 1.0814,0.5587 1.0842,0.5476 1.0873,0.5373 1.0908,0.5278 1.0947,0.5194 1.0991,0.512 1.1039,0.5056 1.1057,0.5037 1.1076,0.5017 1.1095,0.4998 1.1115,0.4978 1.1135,0.4959 1.1156,0.494 1.1177,0.4921 1.1199,0.4902 1.1221,0.4884 1.1243,0.4865 1.1266,0.4846 1.1288,0.4828 1.1311,0.4809 1.1334,0.479 1.1356,0.4772 1.1379,0.4753 1.1401,0.4735 1.1423,0.4716 1.1445,0.4698 1.1466,0.4679 1.1487,0.466 1.1508,0.4641 1.1528,0.4623 1.1547,0.4604 1.1566,0.4585 1.1583,0.4566 1.1601,0.4546 1.1617,0.4527 1.1632,0.4508 1.1646,0.4488 1.1659,0.4468 1.1671,0.4449 1.1682,0.4428 1.1692,0.4408 1.17,0.4388 1.1707,0.4367 1.1713,0.4346 1.1717,0.4325 1.1719,0.4304 1.172,0.4282" fill="none" id="repeat_p1--flower-support--proto_sw_3_2__flower_1__flower_support" data-instance-id="repeat_p1--flower-support--proto_sw_3_2__flower_1__flower_support" data-repeat-id="repeat_p1" data-repeat-shift="1" data-mount-id="proto_sw_3_2__flower_1__flower_support" stroke="#007800" stroke-width="0.010" stroke-linejoin="round" stroke-linecap="round" data-flower-id="flower_1"/><polyline points="1.9339,0.9904 1.9267,0.991 1.9201,0.9907 1.9141,0.9894 1.9086,0.9872 1.9036,0.9842 1.8991,0.9804 1.8951,0.9758 1.8915,0.9705 1.8883,0.9646 1.8855,0.958 1.8831,0.9509 1.881,0.9433 1.8792,0.9352 1.8778,0.9267 1.8765,0.9177 1.8755,0.9085 1.8748,0.8989 1.8742,0.8891 1.8738,0.8791 1.8735,0.869 1.8733,0.8587 1.8732,0.8484 1.8732,0.838 1.8733,0.8277 1.8733,0.8174 1.8733,0.8073 1.8733,0.7973 1.8732,0.7875 1.873,0.778 1.8728,0.7688 1.8723,0.7599 1.8718,0.7515 1.871,0.7434 1.87,0.7359 1.8688,0.7288 1.8673,0.7224 1.8656,0.7165 1.8635,0.7114 1.8611,0.7069 1.8583,0.7032 1.8564,0.7012 1.8545,0.6992 1.8525,0.6972 1.8505,0.6953 1.8484,0.6933 1.8462,0.6914 1.844,0.6895 1.8418,0.6876 1.8395,0.6857 1.8372,0.6838 1.8349,0.6819 1.8325,0.68 1.8302,0.6781 1.8278,0.6763 1.8255,0.6744 1.8232,0.6725 1.8209,0.6706 1.8186,0.6687 1.8163,0.6669 1.8141,0.665 1.812,0.6631 1.8098,0.6612 1.8078,0.6593 1.8058,0.6573 1.8039,0.6554 1.802,0.6535 1.8003,0.6515 1.7986,0.6496 1.797,0.6476 1.7955,0.6456 1.7942,0.6436 1.7929,0.6416 1.7918,0.6395 1.7908,0.6375 1.79,0.6354 1.7892,0.6333 1.7887,0.6312 1.7883,0.629 1.788,0.6268 1.7879,0.6246" fill="none" id="repeat_p1--flower-support--proto_sw_3_2__flower_2__flower_support" data-instance-id="repeat_p1--flower-support--proto_sw_3_2__flower_2__flower_support" data-repeat-id="repeat_p1" data-repeat-shift="1" data-mount-id="proto_sw_3_2__flower_2__flower_support" stroke="#007800" stroke-width="0.010" stroke-linejoin="round" stroke-linecap="round" data-flower-id="flower_2"/></g></g><g id="flower-anchor-layer" data-instance-id="flower-anchor-layer" data-role="flower_anchor"><g id="flower-anchor--repeat_m1" data-instance-id="flower-anchor--repeat_m1" data-repeat-id="repeat_m1" data-repeat-shift="-1"><ellipse id="repeat_m1--flower-anchor--flower_1" data-instance-id="repeat_m1--flower-anchor--flower_1" data-repeat-id="repeat_m1" data-repeat-shift="-1" cx="-0.828" cy="0.2418" rx="0.1737" ry="0.1865" fill="#fff7fb" stroke="#ff0000" stroke-width="0.006" data-flower-id="flower_1"/><ellipse id="repeat_m1--flower-anchor--flower_2" data-instance-id="repeat_m1--flower-anchor--flower_2" data-repeat-id="repeat_m1" data-repeat-shift="-1" cx="-0.2121" cy="0.4285" rx="0.1795" ry="0.1961" fill="#fff7fb" stroke="#ff0000" stroke-width="0.006" data-flower-id="flower_2"/></g><g id="flower-anchor--repeat_0" data-instance-id="flower-anchor--repeat_0" data-repeat-id="repeat_0" data-repeat-shift="0"><ellipse id="repeat_0--flower-anchor--flower_1" data-instance-id="repeat_0--flower-anchor--flower_1" data-repeat-id="repeat_0" data-repeat-shift="0" cx="0.172" cy="0.2418" rx="0.1737" ry="0.1865" fill="#fff7fb" stroke="#ff0000" stroke-width="0.006" data-flower-id="flower_1"/><ellipse id="repeat_0--flower-anchor--flower_2" data-instance-id="repeat_0--flower-anchor--flower_2" data-repeat-id="repeat_0" data-repeat-shift="0" cx="0.7879" cy="0.4285" rx="0.1795" ry="0.1961" fill="#fff7fb" stroke="#ff0000" stroke-width="0.006" data-flower-id="flower_2"/></g><g id="flower-anchor--repeat_p1" data-instance-id="flower-anchor--repeat_p1" data-repeat-id="repeat_p1" data-repeat-shift="1"><ellipse id="repeat_p1--flower-anchor--flower_1" data-instance-id="repeat_p1--flower-anchor--flower_1" data-repeat-id="repeat_p1" data-repeat-shift="1" cx="1.172" cy="0.2418" rx="0.1737" ry="0.1865" fill="#fff7fb" stroke="#ff0000" stroke-width="0.006" data-flower-id="flower_1"/><ellipse id="repeat_p1--flower-anchor--flower_2" data-instance-id="repeat_p1--flower-anchor--flower_2" data-repeat-id="repeat_p1" data-repeat-shift="1" cx="1.7879" cy="0.4285" rx="0.1795" ry="0.1961" fill="#fff7fb" stroke="#ff0000" stroke-width="0.006" data-flower-id="flower_2"/></g></g><g id="branches-layer" data-instance-id="branches-layer" data-role="branches"><g id="branches--repeat_m1" data-instance-id="branches--repeat_m1" data-repeat-id="repeat_m1" data-repeat-shift="-1"><path id="repeat_m1--curve--proto_sw_3_2__seed_2083021513__global_l1_flow_v3__density_rich__selected_l1_001.L1" data-instance-id="repeat_m1--curve--proto_sw_3_2__seed_2083021513__global_l1_flow_v3__density_rich__selected_l1_001.L1" data-repeat-id="repeat_m1" data-repeat-shift="-1" d="M -0.9188,0.879 C -0.8839,0.8553 -0.8616,0.9749 -0.8339,0.9527" fill="none" stroke="#ff9900" stroke-width="0.01" stroke-linejoin="round" stroke-linecap="round" data-role="primary_branch" data-level="L1" data-curve-id="proto_sw_3_2__seed_2083021513__global_l1_flow_v3__density_rich__selected_l1_001.L1" data-parent-curve-id="None" data-lane-id="selected_l1_001" data-unit-id="proto_sw_3_2__seed_2083021513__global_l1_flow_v3__density_rich__selected_l1_001__Y-C__compact_c__context_preferred__sample_0001"/><path id="repeat_m1--curve--proto_sw_3_2__seed_2083021513__global_l1_flow_v3__density_rich__selected_l1_001.L2.1" data-instance-id="repeat_m1--curve--proto_sw_3_2__seed_2083021513__global_l1_flow_v3__density_rich__selected_l1_001.L2.1" data-repeat-id="repeat_m1" data-repeat-shift="-1" d="M -0.8878,0.892 C -0.8912,0.9201 -0.8937,0.9223 -0.8853,0.9494" fill="none" stroke="#00ffff" stroke-width="0.007" stroke-linejoin="round" stroke-linecap="round" data-role="secondary_branch" data-level="L2" data-curve-id="proto_sw_3_2__seed_2083021513__global_l1_flow_v3__density_rich__selected_l1_001.L2.1" data-parent-curve-id="proto_sw_3_2__seed_2083021513__global_l1_flow_v3__density_rich__selected_l1_001.L1" data-lane-id="selected_l1_001" data-unit-id="proto_sw_3_2__seed_2083021513__global_l1_flow_v3__density_rich__selected_l1_001__Y-C__compact_c__context_preferred__sample_0001"/><path id="repeat_m1--curve--proto_sw_3_2__seed_2083021513__global_l1_flow_v3__density_rich__selected_l1_007.L1" data-instance-id="repeat_m1--curve--proto_sw_3_2__seed_2083021513__global_l1_flow_v3__density_rich__selected_l1_007.L1" data-repeat-id="repeat_m1" data-repeat-shift="-1" d="M -0.2147,0.962 C -0.2398,0.9339 -0.148,0.8897 -0.1788,0.8551" fill="none" stroke="#ff9900" stroke-width="0.01" stroke-linejoin="round" stroke-linecap="round" data-role="primary_branch" data-level="L1" data-curve-id="proto_sw_3_2__seed_2083021513__global_l1_flow_v3__density_rich__selected_l1_007.L1" data-parent-curve-id="None" data-lane-id="selected_l1_007" data-unit-id="proto_sw_3_2__seed_2083021513__global_l1_flow_v3__density_rich__selected_l1_007__L1-Only__independent_l1__context_preferred__sample_0150"/><path id="repeat_m1--curve--proto_sw_3_2__seed_2083021513__global_l1_flow_v3__density_rich__selected_l1_006.L1" data-instance-id="repeat_m1--curve--proto_sw_3_2__seed_2083021513__global_l1_flow_v3__density_rich__selected_l1_006.L1" data-repeat-id="repeat_m1" data-repeat-shift="-1" d="M -0.3337,0.8535 C -0.2649,0.9682 -0.391,1.0674 -0.2843,1.0939" fill="none" stroke="#ff9900" stroke-width="0.01" stroke-linejoin="round" stroke-linecap="round" data-role="primary_branch" data-level="L1" data-curve-id="proto_sw_3_2__seed_2083021513__global_l1_flow_v3__density_rich__selected_l1_006.L1" data-parent-curve-id="None" data-lane-id="selected_l1_006" data-unit-id="proto_sw_3_2__seed_2083021513__global_l1_flow_v3__density_rich__selected_l1_006__L1-Only__independent_l1__context_preferred__sample_0125"/><path id="repeat_m1--curve--proto_sw_3_2__seed_2083021513__global_l1_flow_v3__density_rich__selected_l1_005.L1" data-instance-id="repeat_m1--curve--proto_sw_3_2__seed_2083021513__global_l1_flow_v3__density_rich__selected_l1_005.L1" data-repeat-id="repeat_m1" data-repeat-shift="-1" d="M -0.4064,0.7518 C -0.4295,0.6107 -0.5983,0.6291 -0.5354,0.543" fill="none" stroke="#ff9900" stroke-width="0.01" stroke-linejoin="round" stroke-linecap="round" data-role="primary_branch" data-level="L1" data-curve-id="proto_sw_3_2__seed_2083021513__global_l1_flow_v3__density_rich__selected_l1_005.L1" data-parent-curve-id="None" data-lane-id="selected_l1_005" data-unit-id="proto_sw_3_2__seed_2083021513__global_l1_flow_v3__density_rich__selected_l1_005__L1-Only__independent_l1__context_preferred__sample_0100"/><path id="repeat_m1--curve--proto_sw_3_2__seed_2083021513__global_l1_flow_v3__density_rich__selected_l1_003.L1" data-instance-id="repeat_m1--curve--proto_sw_3_2__seed_2083021513__global_l1_flow_v3__density_rich__selected_l1_003.L1" data-repeat-id="repeat_m1" data-repeat-shift="-1" d="M -0.7192,0.6894 C -0.6447,0.6663 -0.586,0.7527 -0.4798,0.7435" fill="none" stroke="#ff9900" stroke-width="0.01" stroke-linejoin="round" stroke-linecap="round" data-role="primary_branch" data-level="L1" data-curve-id="proto_sw_3_2__seed_2083021513__global_l1_flow_v3__density_rich__selected_l1_003.L1" data-parent-curve-id="None" data-lane-id="selected_l1_003" data-unit-id="proto_sw_3_2__seed_2083021513__global_l1_flow_v3__density_rich__selected_l1_003__L1-Only__independent_l1__context_preferred__sample_0050"/><path id="repeat_m1--curve--proto_sw_3_2__seed_2083021513__global_l1_flow_v3__density_rich__selected_l1_002.L1" data-instance-id="repeat_m1--curve--proto_sw_3_2__seed_2083021513__global_l1_flow_v3__density_rich__selected_l1_002.L1" data-repeat-id="repeat_m1" data-repeat-shift="-1" d="M -0.8317,0.7952 C -0.791,0.7287 -0.7894,0.5949 -0.7211,0.5761" fill="none" stroke="#ff9900" stroke-width="0.01" stroke-linejoin="round" stroke-linecap="round" data-role="primary_branch" data-level="L1" data-curve-id="proto_sw_3_2__seed_2083021513__global_l1_flow_v3__density_rich__selected_l1_002.L1" data-parent-curve-id="None" data-lane-id="selected_l1_002" data-unit-id="proto_sw_3_2__seed_2083021513__global_l1_flow_v3__density_rich__selected_l1_002__Y-C__compact_c__context_opposed__sample_0027"/><path id="repeat_m1--curve--proto_sw_3_2__seed_2083021513__global_l1_flow_v3__density_rich__selected_l1_002.L2.1" data-instance-id="repeat_m1--curve--proto_sw_3_2__seed_2083021513__global_l1_flow_v3__density_rich__selected_l1_002.L2.1" data-repeat-id="repeat_m1" data-repeat-shift="-1" d="M -0.793,0.6885 C -0.8172,0.6413 -0.8252,0.6309 -0.8239,0.5779" fill="none" stroke="#00ffff" stroke-width="0.007" stroke-linejoin="round" stroke-linecap="round" data-role="secondary_branch" data-level="L2" data-curve-id="proto_sw_3_2__seed_2083021513__global_l1_flow_v3__density_rich__selected_l1_002.L2.1" data-parent-curve-id="proto_sw_3_2__seed_2083021513__global_l1_flow_v3__density_rich__selected_l1_002.L1" data-lane-id="selected_l1_002" data-unit-id="proto_sw_3_2__seed_2083021513__global_l1_flow_v3__density_rich__selected_l1_002__Y-C__compact_c__context_opposed__sample_0027"/><path id="repeat_m1--curve--proto_sw_3_2__seed_2083021513__global_l1_flow_v3__density_rich__selected_l1_004.L1" data-instance-id="repeat_m1--curve--proto_sw_3_2__seed_2083021513__global_l1_flow_v3__density_rich__selected_l1_004.L1" data-repeat-id="repeat_m1" data-repeat-shift="-1" d="M -0.5465,0.648 C -0.6119,0.6058 -0.6823,0.4325 -0.7339,0.4897" fill="none" stroke="#ff9900" stroke-width="0.01" stroke-linejoin="round" stroke-linecap="round" data-role="primary_branch" data-level="L1" data-curve-id="proto_sw_3_2__seed_2083021513__global_l1_flow_v3__density_rich__selected_l1_004.L1" data-parent-curve-id="None" data-lane-id="selected_l1_004" data-unit-id="proto_sw_3_2__seed_2083021513__global_l1_flow_v3__density_rich__selected_l1_004__L1-Only__independent_l1__context_preferred__sample_0075"/></g><g id="branches--repeat_0" data-instance-id="branches--repeat_0" data-repeat-id="repeat_0" data-repeat-shift="0"><path id="repeat_0--curve--proto_sw_3_2__seed_2083021513__global_l1_flow_v3__density_rich__selected_l1_001.L1" data-instance-id="repeat_0--curve--proto_sw_3_2__seed_2083021513__global_l1_flow_v3__density_rich__selected_l1_001.L1" data-repeat-id="repeat_0" data-repeat-shift="0" d="M 0.0812,0.879 C 0.1161,0.8553 0.1384,0.9749 0.1661,0.9527" fill="none" stroke="#ff9900" stroke-width="0.01" stroke-linejoin="round" stroke-linecap="round" data-role="primary_branch" data-level="L1" data-curve-id="proto_sw_3_2__seed_2083021513__global_l1_flow_v3__density_rich__selected_l1_001.L1" data-parent-curve-id="None" data-lane-id="selected_l1_001" data-unit-id="proto_sw_3_2__seed_2083021513__global_l1_flow_v3__density_rich__selected_l1_001__Y-C__compact_c__context_preferred__sample_0001"/><path id="repeat_0--curve--proto_sw_3_2__seed_2083021513__global_l1_flow_v3__density_rich__selected_l1_001.L2.1" data-instance-id="repeat_0--curve--proto_sw_3_2__seed_2083021513__global_l1_flow_v3__density_rich__selected_l1_001.L2.1" data-repeat-id="repeat_0" data-repeat-shift="0" d="M 0.1122,0.892 C 0.1088,0.9201 0.1063,0.9223 0.1147,0.9494" fill="none" stroke="#00ffff" stroke-width="0.007" stroke-linejoin="round" stroke-linecap="round" data-role="secondary_branch" data-level="L2" data-curve-id="proto_sw_3_2__seed_2083021513__global_l1_flow_v3__density_rich__selected_l1_001.L2.1" data-parent-curve-id="proto_sw_3_2__seed_2083021513__global_l1_flow_v3__density_rich__selected_l1_001.L1" data-lane-id="selected_l1_001" data-unit-id="proto_sw_3_2__seed_2083021513__global_l1_flow_v3__density_rich__selected_l1_001__Y-C__compact_c__context_preferred__sample_0001"/><path id="repeat_0--curve--proto_sw_3_2__seed_2083021513__global_l1_flow_v3__density_rich__selected_l1_007.L1" data-instance-id="repeat_0--curve--proto_sw_3_2__seed_2083021513__global_l1_flow_v3__density_rich__selected_l1_007.L1" data-repeat-id="repeat_0" data-repeat-shift="0" d="M 0.7853,0.962 C 0.7602,0.9339 0.852,0.8897 0.8212,0.8551" fill="none" stroke="#ff9900" stroke-width="0.01" stroke-linejoin="round" stroke-linecap="round" data-role="primary_branch" data-level="L1" data-curve-id="proto_sw_3_2__seed_2083021513__global_l1_flow_v3__density_rich__selected_l1_007.L1" data-parent-curve-id="None" data-lane-id="selected_l1_007" data-unit-id="proto_sw_3_2__seed_2083021513__global_l1_flow_v3__density_rich__selected_l1_007__L1-Only__independent_l1__context_preferred__sample_0150"/><path id="repeat_0--curve--proto_sw_3_2__seed_2083021513__global_l1_flow_v3__density_rich__selected_l1_006.L1" data-instance-id="repeat_0--curve--proto_sw_3_2__seed_2083021513__global_l1_flow_v3__density_rich__selected_l1_006.L1" data-repeat-id="repeat_0" data-repeat-shift="0" d="M 0.6663,0.8535 C 0.7351,0.9682 0.609,1.0674 0.7157,1.0939" fill="none" stroke="#ff9900" stroke-width="0.01" stroke-linejoin="round" stroke-linecap="round" data-role="primary_branch" data-level="L1" data-curve-id="proto_sw_3_2__seed_2083021513__global_l1_flow_v3__density_rich__selected_l1_006.L1" data-parent-curve-id="None" data-lane-id="selected_l1_006" data-unit-id="proto_sw_3_2__seed_2083021513__global_l1_flow_v3__density_rich__selected_l1_006__L1-Only__independent_l1__context_preferred__sample_0125"/><path id="repeat_0--curve--proto_sw_3_2__seed_2083021513__global_l1_flow_v3__density_rich__selected_l1_005.L1" data-instance-id="repeat_0--curve--proto_sw_3_2__seed_2083021513__global_l1_flow_v3__density_rich__selected_l1_005.L1" data-repeat-id="repeat_0" data-repeat-shift="0" d="M 0.5936,0.7518 C 0.5705,0.6107 0.4017,0.6291 0.4646,0.543" fill="none" stroke="#ff9900" stroke-width="0.01" stroke-linejoin="round" stroke-linecap="round" data-role="primary_branch" data-level="L1" data-curve-id="proto_sw_3_2__seed_2083021513__global_l1_flow_v3__density_rich__selected_l1_005.L1" data-parent-curve-id="None" data-lane-id="selected_l1_005" data-unit-id="proto_sw_3_2__seed_2083021513__global_l1_flow_v3__density_rich__selected_l1_005__L1-Only__independent_l1__context_preferred__sample_0100"/><path id="repeat_0--curve--proto_sw_3_2__seed_2083021513__global_l1_flow_v3__density_rich__selected_l1_003.L1" data-instance-id="repeat_0--curve--proto_sw_3_2__seed_2083021513__global_l1_flow_v3__density_rich__selected_l1_003.L1" data-repeat-id="repeat_0" data-repeat-shift="0" d="M 0.2808,0.6894 C 0.3553,0.6663 0.414,0.7527 0.5202,0.7435" fill="none" stroke="#ff9900" stroke-width="0.01" stroke-linejoin="round" stroke-linecap="round" data-role="primary_branch" data-level="L1" data-curve-id="proto_sw_3_2__seed_2083021513__global_l1_flow_v3__density_rich__selected_l1_003.L1" data-parent-curve-id="None" data-lane-id="selected_l1_003" data-unit-id="proto_sw_3_2__seed_2083021513__global_l1_flow_v3__density_rich__selected_l1_003__L1-Only__independent_l1__context_preferred__sample_0050"/><path id="repeat_0--curve--proto_sw_3_2__seed_2083021513__global_l1_flow_v3__density_rich__selected_l1_002.L1" data-instance-id="repeat_0--curve--proto_sw_3_2__seed_2083021513__global_l1_flow_v3__density_rich__selected_l1_002.L1" data-repeat-id="repeat_0" data-repeat-shift="0" d="M 0.1683,0.7952 C 0.209,0.7287 0.2106,0.5949 0.2789,0.5761" fill="none" stroke="#ff9900" stroke-width="0.01" stroke-linejoin="round" stroke-linecap="round" data-role="primary_branch" data-level="L1" data-curve-id="proto_sw_3_2__seed_2083021513__global_l1_flow_v3__density_rich__selected_l1_002.L1" data-parent-curve-id="None" data-lane-id="selected_l1_002" data-unit-id="proto_sw_3_2__seed_2083021513__global_l1_flow_v3__density_rich__selected_l1_002__Y-C__compact_c__context_opposed__sample_0027"/><path id="repeat_0--curve--proto_sw_3_2__seed_2083021513__global_l1_flow_v3__density_rich__selected_l1_002.L2.1" data-instance-id="repeat_0--curve--proto_sw_3_2__seed_2083021513__global_l1_flow_v3__density_rich__selected_l1_002.L2.1" data-repeat-id="repeat_0" data-repeat-shift="0" d="M 0.207,0.6885 C 0.1828,0.6413 0.1748,0.6309 0.1761,0.5779" fill="none" stroke="#00ffff" stroke-width="0.007" stroke-linejoin="round" stroke-linecap="round" data-role="secondary_branch" data-level="L2" data-curve-id="proto_sw_3_2__seed_2083021513__global_l1_flow_v3__density_rich__selected_l1_002.L2.1" data-parent-curve-id="proto_sw_3_2__seed_2083021513__global_l1_flow_v3__density_rich__selected_l1_002.L1" data-lane-id="selected_l1_002" data-unit-id="proto_sw_3_2__seed_2083021513__global_l1_flow_v3__density_rich__selected_l1_002__Y-C__compact_c__context_opposed__sample_0027"/><path id="repeat_0--curve--proto_sw_3_2__seed_2083021513__global_l1_flow_v3__density_rich__selected_l1_004.L1" data-instance-id="repeat_0--curve--proto_sw_3_2__seed_2083021513__global_l1_flow_v3__density_rich__selected_l1_004.L1" data-repeat-id="repeat_0" data-repeat-shift="0" d="M 0.4535,0.648 C 0.3881,0.6058 0.3177,0.4325 0.2661,0.4897" fill="none" stroke="#ff9900" stroke-width="0.01" stroke-linejoin="round" stroke-linecap="round" data-role="primary_branch" data-level="L1" data-curve-id="proto_sw_3_2__seed_2083021513__global_l1_flow_v3__density_rich__selected_l1_004.L1" data-parent-curve-id="None" data-lane-id="selected_l1_004" data-unit-id="proto_sw_3_2__seed_2083021513__global_l1_flow_v3__density_rich__selected_l1_004__L1-Only__independent_l1__context_preferred__sample_0075"/></g><g id="branches--repeat_p1" data-instance-id="branches--repeat_p1" data-repeat-id="repeat_p1" data-repeat-shift="1"><path id="repeat_p1--curve--proto_sw_3_2__seed_2083021513__global_l1_flow_v3__density_rich__selected_l1_001.L1" data-instance-id="repeat_p1--curve--proto_sw_3_2__seed_2083021513__global_l1_flow_v3__density_rich__selected_l1_001.L1" data-repeat-id="repeat_p1" data-repeat-shift="1" d="M 1.0812,0.879 C 1.1161,0.8553 1.1384,0.9749 1.1661,0.9527" fill="none" stroke="#ff9900" stroke-width="0.01" stroke-linejoin="round" stroke-linecap="round" data-role="primary_branch" data-level="L1" data-curve-id="proto_sw_3_2__seed_2083021513__global_l1_flow_v3__density_rich__selected_l1_001.L1" data-parent-curve-id="None" data-lane-id="selected_l1_001" data-unit-id="proto_sw_3_2__seed_2083021513__global_l1_flow_v3__density_rich__selected_l1_001__Y-C__compact_c__context_preferred__sample_0001"/><path id="repeat_p1--curve--proto_sw_3_2__seed_2083021513__global_l1_flow_v3__density_rich__selected_l1_001.L2.1" data-instance-id="repeat_p1--curve--proto_sw_3_2__seed_2083021513__global_l1_flow_v3__density_rich__selected_l1_001.L2.1" data-repeat-id="repeat_p1" data-repeat-shift="1" d="M 1.1122,0.892 C 1.1088,0.9201 1.1063,0.9223 1.1147,0.9494" fill="none" stroke="#00ffff" stroke-width="0.007" stroke-linejoin="round" stroke-linecap="round" data-role="secondary_branch" data-level="L2" data-curve-id="proto_sw_3_2__seed_2083021513__global_l1_flow_v3__density_rich__selected_l1_001.L2.1" data-parent-curve-id="proto_sw_3_2__seed_2083021513__global_l1_flow_v3__density_rich__selected_l1_001.L1" data-lane-id="selected_l1_001" data-unit-id="proto_sw_3_2__seed_2083021513__global_l1_flow_v3__density_rich__selected_l1_001__Y-C__compact_c__context_preferred__sample_0001"/><path id="repeat_p1--curve--proto_sw_3_2__seed_2083021513__global_l1_flow_v3__density_rich__selected_l1_007.L1" data-instance-id="repeat_p1--curve--proto_sw_3_2__seed_2083021513__global_l1_flow_v3__density_rich__selected_l1_007.L1" data-repeat-id="repeat_p1" data-repeat-shift="1" d="M 1.7853,0.962 C 1.7602,0.9339 1.852,0.8897 1.8212,0.8551" fill="none" stroke="#ff9900" stroke-width="0.01" stroke-linejoin="round" stroke-linecap="round" data-role="primary_branch" data-level="L1" data-curve-id="proto_sw_3_2__seed_2083021513__global_l1_flow_v3__density_rich__selected_l1_007.L1" data-parent-curve-id="None" data-lane-id="selected_l1_007" data-unit-id="proto_sw_3_2__seed_2083021513__global_l1_flow_v3__density_rich__selected_l1_007__L1-Only__independent_l1__context_preferred__sample_0150"/><path id="repeat_p1--curve--proto_sw_3_2__seed_2083021513__global_l1_flow_v3__density_rich__selected_l1_006.L1" data-instance-id="repeat_p1--curve--proto_sw_3_2__seed_2083021513__global_l1_flow_v3__density_rich__selected_l1_006.L1" data-repeat-id="repeat_p1" data-repeat-shift="1" d="M 1.6663,0.8535 C 1.7351,0.9682 1.609,1.0674 1.7157,1.0939" fill="none" stroke="#ff9900" stroke-width="0.01" stroke-linejoin="round" stroke-linecap="round" data-role="primary_branch" data-level="L1" data-curve-id="proto_sw_3_2__seed_2083021513__global_l1_flow_v3__density_rich__selected_l1_006.L1" data-parent-curve-id="None" data-lane-id="selected_l1_006" data-unit-id="proto_sw_3_2__seed_2083021513__global_l1_flow_v3__density_rich__selected_l1_006__L1-Only__independent_l1__context_preferred__sample_0125"/><path id="repeat_p1--curve--proto_sw_3_2__seed_2083021513__global_l1_flow_v3__density_rich__selected_l1_005.L1" data-instance-id="repeat_p1--curve--proto_sw_3_2__seed_2083021513__global_l1_flow_v3__density_rich__selected_l1_005.L1" data-repeat-id="repeat_p1" data-repeat-shift="1" d="M 1.5936,0.7518 C 1.5705,0.6107 1.4017,0.6291 1.4646,0.543" fill="none" stroke="#ff9900" stroke-width="0.01" stroke-linejoin="round" stroke-linecap="round" data-role="primary_branch" data-level="L1" data-curve-id="proto_sw_3_2__seed_2083021513__global_l1_flow_v3__density_rich__selected_l1_005.L1" data-parent-curve-id="None" data-lane-id="selected_l1_005" data-unit-id="proto_sw_3_2__seed_2083021513__global_l1_flow_v3__density_rich__selected_l1_005__L1-Only__independent_l1__context_preferred__sample_0100"/><path id="repeat_p1--curve--proto_sw_3_2__seed_2083021513__global_l1_flow_v3__density_rich__selected_l1_003.L1" data-instance-id="repeat_p1--curve--proto_sw_3_2__seed_2083021513__global_l1_flow_v3__density_rich__selected_l1_003.L1" data-repeat-id="repeat_p1" data-repeat-shift="1" d="M 1.2808,0.6894 C 1.3553,0.6663 1.414,0.7527 1.5202,0.7435" fill="none" stroke="#ff9900" stroke-width="0.01" stroke-linejoin="round" stroke-linecap="round" data-role="primary_branch" data-level="L1" data-curve-id="proto_sw_3_2__seed_2083021513__global_l1_flow_v3__density_rich__selected_l1_003.L1" data-parent-curve-id="None" data-lane-id="selected_l1_003" data-unit-id="proto_sw_3_2__seed_2083021513__global_l1_flow_v3__density_rich__selected_l1_003__L1-Only__independent_l1__context_preferred__sample_0050"/><path id="repeat_p1--curve--proto_sw_3_2__seed_2083021513__global_l1_flow_v3__density_rich__selected_l1_002.L1" data-instance-id="repeat_p1--curve--proto_sw_3_2__seed_2083021513__global_l1_flow_v3__density_rich__selected_l1_002.L1" data-repeat-id="repeat_p1" data-repeat-shift="1" d="M 1.1683,0.7952 C 1.209,0.7287 1.2106,0.5949 1.2789,0.5761" fill="none" stroke="#ff9900" stroke-width="0.01" stroke-linejoin="round" stroke-linecap="round" data-role="primary_branch" data-level="L1" data-curve-id="proto_sw_3_2__seed_2083021513__global_l1_flow_v3__density_rich__selected_l1_002.L1" data-parent-curve-id="None" data-lane-id="selected_l1_002" data-unit-id="proto_sw_3_2__seed_2083021513__global_l1_flow_v3__density_rich__selected_l1_002__Y-C__compact_c__context_opposed__sample_0027"/><path id="repeat_p1--curve--proto_sw_3_2__seed_2083021513__global_l1_flow_v3__density_rich__selected_l1_002.L2.1" data-instance-id="repeat_p1--curve--proto_sw_3_2__seed_2083021513__global_l1_flow_v3__density_rich__selected_l1_002.L2.1" data-repeat-id="repeat_p1" data-repeat-shift="1" d="M 1.207,0.6885 C 1.1828,0.6413 1.1748,0.6309 1.1761,0.5779" fill="none" stroke="#00ffff" stroke-width="0.007" stroke-linejoin="round" stroke-linecap="round" data-role="secondary_branch" data-level="L2" data-curve-id="proto_sw_3_2__seed_2083021513__global_l1_flow_v3__density_rich__selected_l1_002.L2.1" data-parent-curve-id="proto_sw_3_2__seed_2083021513__global_l1_flow_v3__density_rich__selected_l1_002.L1" data-lane-id="selected_l1_002" data-unit-id="proto_sw_3_2__seed_2083021513__global_l1_flow_v3__density_rich__selected_l1_002__Y-C__compact_c__context_opposed__sample_0027"/><path id="repeat_p1--curve--proto_sw_3_2__seed_2083021513__global_l1_flow_v3__density_rich__selected_l1_004.L1" data-instance-id="repeat_p1--curve--proto_sw_3_2__seed_2083021513__global_l1_flow_v3__density_rich__selected_l1_004.L1" data-repeat-id="repeat_p1" data-repeat-shift="1" d="M 1.4535,0.648 C 1.3881,0.6058 1.3177,0.4325 1.2661,0.4897" fill="none" stroke="#ff9900" stroke-width="0.01" stroke-linejoin="round" stroke-linecap="round" data-role="primary_branch" data-level="L1" data-curve-id="proto_sw_3_2__seed_2083021513__global_l1_flow_v3__density_rich__selected_l1_004.L1" data-parent-curve-id="None" data-lane-id="selected_l1_004" data-unit-id="proto_sw_3_2__seed_2083021513__global_l1_flow_v3__density_rich__selected_l1_004__L1-Only__independent_l1__context_preferred__sample_0075"/></g></g></svg>