<svg xmlns="http://www.w3.org/2000/svg" id="structural-svg--proto_sw_1_3--production-seed-200000" data-prototype-id="proto_sw_1_3" data-production-seed="200000" data-backbone-seed="3637826449" data-flower-seed="690874662" data-branch-seed="157358250" data-unit-seed="1522627173" data-backbone-variant-id="expanded" data-density-level="medium" data-source-case="B012" data-source-contract-id="stage5e_joint_sparse_local_l2_selection_v2" data-source-plan-id="proto_sw_1_3__seed_157358250__global_l1_flow_v3__density_medium" data-source-selection-id="proto_sw_1_3__seed_157358250__global_l1_flow_v3__density_medium__unit_candidates_v2__global_unit_selection_joint_h2b" data-repeat-mode="triple" viewBox="-1.08 0 3.16 1.1875" width="3160" height="1188"><rect x="-1.08" y="0" width="3.16" height="1.1875" fill="#f1efe9"/><metadata>role_color_identity_v2: backbone=#0000ff; primary_branch=#ff9900; secondary_branch=#00ffff; flower_support=#007800; flower_anchor=#ff0000; unit_boundary=#000000(dashed). data-role is authoritative; stroke color is a visual fallback.</metadata><g id="unit-boundaries" data-instance-id="unit-boundaries" data-role="unit_boundary"><line id="unit-boundary--00" data-instance-id="unit-boundary--00" data-boundary-x="-1" x1="-1" y1="0" x2="-1" y2="1.1875" stroke="#000000" stroke-dasharray="0.012 0.008" stroke-width="0.004"/><line id="unit-boundary--01" data-instance-id="unit-boundary--01" data-boundary-x="0" x1="0" y1="0" x2="0" y2="1.1875" stroke="#000000" stroke-dasharray="0.012 0.008" stroke-width="0.004"/><line id="unit-boundary--02" data-instance-id="unit-boundary--02" data-boundary-x="1" x1="1" y1="0" x2="1" y2="1.1875" stroke="#000000" stroke-dasharray="0.012 0.008" stroke-width="0.004"/><line id="unit-boundary--03" data-instance-id="unit-boundary--03" data-boundary-x="2" x1="2" y1="0" x2="2" y2="1.1875" stroke="#000000" stroke-dasharray="0.012 0.008" stroke-width="0.004"/></g><g id="backbone-layer" data-instance-id="backbone-layer" data-role="backbone"><g id="backbone--repeat_m1" data-instance-id="backbone--repeat_m1" data-repeat-id="repeat_m1" data-repeat-shift="-1"><polyline points="-1,0.4888 -0.9872,0.5058 -0.9766,0.5241 -0.967,0.5424 -0.958,0.5607 -0.9493,0.5788 -0.9411,0.5967 -0.9331,0.6145 -0.9253,0.6321 -0.9178,0.6496 -0.9104,0.667 -0.9032,0.6843 -0.8961,0.7016 -0.8891,0.7189 -0.8822,0.7362 -0.8755,0.7535 -0.8687,0.7709 -0.8615,0.7882 -0.8535,0.8054 -0.8447,0.8224 -0.835,0.8391 -0.824,0.8555 -0.8118,0.8713 -0.7984,0.8864 -0.7837,0.9008 -0.7677,0.914 -0.7502,0.9258 -0.7316,0.9359 -0.712,0.9442 -0.6917,0.9504 -0.6709,0.9544 -0.65,0.956 -0.6292,0.9556 -0.6087,0.9528 -0.5889,0.948 -0.5701,0.9412 -0.553,0.9322 -0.5392,0.9207 -0.525,0.9061 -0.5125,0.8914 -0.501,0.8759 -0.4902,0.8598 -0.4802,0.8434 -0.4707,0.8268 -0.4618,0.8101 -0.4535,0.7933 -0.4457,0.7764 -0.4384,0.7594 -0.4316,0.7423 -0.4252,0.725 -0.4192,0.7077 -0.4137,0.6901 -0.4086,0.6724 -0.4039,0.6545 -0.3996,0.6363 -0.3953,0.6179 -0.3858,0.5991 -0.3757,0.5806 -0.3649,0.5631 -0.3535,0.5457 -0.3414,0.5282 -0.3287,0.5109 -0.3152,0.4936 -0.301,0.4767 -0.2858,0.4601 -0.2696,0.4441 -0.2525,0.4291 -0.2342,0.4154 -0.2148,0.4037 -0.1946,0.3947 -0.1737,0.3891 -0.1529,0.3879 -0.1324,0.3912 -0.1117,0.3949 -0.0918,0.3993 -0.0733,0.4094 -0.0562,0.4225 -0.0405,0.4377 -0.026,0.454 -0.0126,0.4712 0,0.4888" fill="none" id="repeat_m1--backbone" data-instance-id="repeat_m1--backbone" data-repeat-id="repeat_m1" data-repeat-shift="-1" stroke="#0000ff" stroke-width="0.007" stroke-linejoin="round" stroke-linecap="round"/></g><g id="backbone--repeat_0" data-instance-id="backbone--repeat_0" data-repeat-id="repeat_0" data-repeat-shift="0"><polyline points="0,0.4888 0.0128,0.5058 0.0234,0.5241 0.033,0.5424 0.042,0.5607 0.0507,0.5788 0.0589,0.5967 0.0669,0.6145 0.0747,0.6321 0.0822,0.6496 0.0896,0.667 0.0968,0.6843 0.1039,0.7016 0.1109,0.7189 0.1178,0.7362 0.1245,0.7535 0.1313,0.7709 0.1385,0.7882 0.1465,0.8054 0.1553,0.8224 0.165,0.8391 0.176,0.8555 0.1882,0.8713 0.2016,0.8864 0.2163,0.9008 0.2323,0.914 0.2498,0.9258 0.2684,0.9359 0.288,0.9442 0.3083,0.9504 0.3291,0.9544 0.35,0.956 0.3708,0.9556 0.3913,0.9528 0.4111,0.948 0.4299,0.9412 0.447,0.9322 0.4608,0.9207 0.475,0.9061 0.4875,0.8914 0.499,0.8759 0.5098,0.8598 0.5198,0.8434 0.5293,0.8268 0.5382,0.8101 0.5465,0.7933 0.5543,0.7764 0.5616,0.7594 0.5684,0.7423 0.5748,0.725 0.5808,0.7077 0.5863,0.6901 0.5914,0.6724 0.5961,0.6545 0.6004,0.6363 0.6047,0.6179 0.6142,0.5991 0.6243,0.5806 0.6351,0.5631 0.6465,0.5457 0.6586,0.5282 0.6713,0.5109 0.6848,0.4936 0.699,0.4767 0.7142,0.4601 0.7304,0.4441 0.7475,0.4291 0.7658,0.4154 0.7852,0.4037 0.8054,0.3947 0.8263,0.3891 0.8471,0.3879 0.8676,0.3912 0.8883,0.3949 0.9082,0.3993 0.9267,0.4094 0.9438,0.4225 0.9595,0.4377 0.974,0.454 0.9874,0.4712 1,0.4888" fill="none" id="repeat_0--backbone" data-instance-id="repeat_0--backbone" data-repeat-id="repeat_0" data-repeat-shift="0" stroke="#0000ff" stroke-width="0.014" stroke-linejoin="round" stroke-linecap="round"/></g><g id="backbone--repeat_p1" data-instance-id="backbone--repeat_p1" data-repeat-id="repeat_p1" data-repeat-shift="1"><polyline points="1,0.4888 1.0128,0.5058 1.0234,0.5241 1.033,0.5424 1.042,0.5607 1.0507,0.5788 1.0589,0.5967 1.0669,0.6145 1.0747,0.6321 1.0822,0.6496 1.0896,0.667 1.0968,0.6843 1.1039,0.7016 1.1109,0.7189 1.1178,0.7362 1.1245,0.7535 1.1313,0.7709 1.1385,0.7882 1.1465,0.8054 1.1553,0.8224 1.165,0.8391 1.176,0.8555 1.1882,0.8713 1.2016,0.8864 1.2163,0.9008 1.2323,0.914 1.2498,0.9258 1.2684,0.9359 1.288,0.9442 1.3083,0.9504 1.3291,0.9544 1.35,0.956 1.3708,0.9556 1.3913,0.9528 1.4111,0.948 1.4299,0.9412 1.447,0.9322 1.4608,0.9207 1.475,0.9061 1.4875,0.8914 1.499,0.8759 1.5098,0.8598 1.5198,0.8434 1.5293,0.8268 1.5382,0.8101 1.5465,0.7933 1.5543,0.7764 1.5616,0.7594 1.5684,0.7423 1.5748,0.725 1.5808,0.7077 1.5863,0.6901 1.5914,0.6724 1.5961,0.6545 1.6004,0.6363 1.6047,0.6179 1.6142,0.5991 1.6243,0.5806 1.6351,0.5631 1.6465,0.5457 1.6586,0.5282 1.6713,0.5109 1.6848,0.4936 1.699,0.4767 1.7142,0.4601 1.7304,0.4441 1.7475,0.4291 1.7658,0.4154 1.7852,0.4037 1.8054,0.3947 1.8263,0.3891 1.8471,0.3879 1.8676,0.3912 1.8883,0.3949 1.9082,0.3993 1.9267,0.4094 1.9438,0.4225 1.9595,0.4377 1.974,0.454 1.9874,0.4712 2,0.4888" fill="none" id="repeat_p1--backbone" data-instance-id="repeat_p1--backbone" data-repeat-id="repeat_p1" data-repeat-shift="1" stroke="#0000ff" stroke-width="0.007" stroke-linejoin="round" stroke-linecap="round"/></g></g><g id="flower-support-layer" data-instance-id="flower-support-layer" data-role="flower_support"><g id="flower-support--repeat_m1" data-instance-id="flower-support--repeat_m1" data-repeat-id="repeat_m1" data-repeat-shift="-1"><polyline points="-0.7502,0.9258 -0.746,0.9246 -0.7419,0.9233 -0.7378,0.922 -0.7337,0.9207 -0.7298,0.9193 -0.7259,0.9179 -0.722,0.9164 -0.7182,0.9149 -0.7146,0.9133 -0.7109,0.9118 -0.7074,0.9101 -0.7039,0.9085 -0.7006,0.9068 -0.6973,0.9051 -0.6941,0.9033 -0.691,0.9015 -0.688,0.8997 -0.6851,0.8978 -0.6823,0.896 -0.6795,0.894 -0.6769,0.8921 -0.6744,0.8901 -0.6721,0.8881 -0.6698,0.886 -0.6676,0.884 -0.6656,0.8819 -0.6637,0.8798 -0.6619,0.8776 -0.6603,0.8754 -0.6587,0.8732 -0.6573,0.871 -0.6561,0.8687 -0.6549,0.8665 -0.654,0.8642 -0.6531,0.8618 -0.6524,0.8595 -0.6519,0.8571 -0.6515,0.8548 -0.6513,0.8523 -0.6512,0.8499" fill="none" id="repeat_m1--flower-support--proto_sw_1_3__flower_1__flower_support" data-instance-id="repeat_m1--flower-support--proto_sw_1_3__flower_1__flower_support" data-repeat-id="repeat_m1" data-repeat-shift="-1" data-mount-id="proto_sw_1_3__flower_1__flower_support" stroke="#007800" stroke-width="0.010" stroke-linejoin="round" stroke-linecap="round" data-flower-id="flower_1"/><polyline points="-0.553,0.9322 -0.5418,0.9368 -0.5303,0.9412 -0.5185,0.9454 -0.5065,0.9492 -0.4943,0.9528 -0.4819,0.9562 -0.4693,0.9593 -0.4567,0.9621 -0.4439,0.9647 -0.4311,0.967 -0.4183,0.969 -0.4055,0.9708 -0.3927,0.9724 -0.3799,0.9737 -0.3673,0.9747 -0.3548,0.9755 -0.3424,0.976 -0.3303,0.9763 -0.3183,0.9763 -0.3066,0.9761 -0.2952,0.9756 -0.2841,0.9749 -0.2733,0.974 -0.2628,0.9728 -0.2528,0.9713 -0.2432,0.9696 -0.2341,0.9677 -0.2254,0.9655 -0.2173,0.9631 -0.2097,0.9605 -0.2027,0.9576 -0.1963,0.9544 -0.1906,0.9511 -0.1855,0.9475 -0.1811,0.9436 -0.1774,0.9395 -0.1745,0.9352 -0.1724,0.9307 -0.1711,0.9259 -0.1707,0.9209" fill="none" id="repeat_m1--flower-support--proto_sw_1_3__flower_2__flower_support" data-instance-id="repeat_m1--flower-support--proto_sw_1_3__flower_2__flower_support" data-repeat-id="repeat_m1" data-repeat-shift="-1" data-mount-id="proto_sw_1_3__flower_2__flower_support" stroke="#007800" stroke-width="0.010" stroke-linejoin="round" stroke-linecap="round" data-flower-id="flower_2"/></g><g id="flower-support--repeat_0" data-instance-id="flower-support--repeat_0" data-repeat-id="repeat_0" data-repeat-shift="0"><polyline points="0.2498,0.9258 0.254,0.9246 0.2581,0.9233 0.2622,0.922 0.2663,0.9207 0.2702,0.9193 0.2741,0.9179 0.278,0.9164 0.2818,0.9149 0.2854,0.9133 0.2891,0.9118 0.2926,0.9101 0.2961,0.9085 0.2994,0.9068 0.3027,0.9051 0.3059,0.9033 0.309,0.9015 0.312,0.8997 0.3149,0.8978 0.3177,0.896 0.3205,0.894 0.3231,0.8921 0.3256,0.8901 0.3279,0.8881 0.3302,0.886 0.3324,0.884 0.3344,0.8819 0.3363,0.8798 0.3381,0.8776 0.3397,0.8754 0.3413,0.8732 0.3427,0.871 0.3439,0.8687 0.3451,0.8665 0.346,0.8642 0.3469,0.8618 0.3476,0.8595 0.3481,0.8571 0.3485,0.8548 0.3487,0.8523 0.3488,0.8499" fill="none" id="repeat_0--flower-support--proto_sw_1_3__flower_1__flower_support" data-instance-id="repeat_0--flower-support--proto_sw_1_3__flower_1__flower_support" data-repeat-id="repeat_0" data-repeat-shift="0" data-mount-id="proto_sw_1_3__flower_1__flower_support" stroke="#007800" stroke-width="0.010" stroke-linejoin="round" stroke-linecap="round" data-flower-id="flower_1"/><polyline points="0.447,0.9322 0.4582,0.9368 0.4697,0.9412 0.4815,0.9454 0.4935,0.9492 0.5057,0.9528 0.5181,0.9562 0.5307,0.9593 0.5433,0.9621 0.5561,0.9647 0.5689,0.967 0.5817,0.969 0.5945,0.9708 0.6073,0.9724 0.6201,0.9737 0.6327,0.9747 0.6452,0.9755 0.6576,0.976 0.6697,0.9763 0.6817,0.9763 0.6934,0.9761 0.7048,0.9756 0.7159,0.9749 0.7267,0.974 0.7372,0.9728 0.7472,0.9713 0.7568,0.9696 0.7659,0.9677 0.7746,0.9655 0.7827,0.9631 0.7903,0.9605 0.7973,0.9576 0.8037,0.9544 0.8094,0.9511 0.8145,0.9475 0.8189,0.9436 0.8226,0.9395 0.8255,0.9352 0.8276,0.9307 0.8289,0.9259 0.8293,0.9209" fill="none" id="repeat_0--flower-support--proto_sw_1_3__flower_2__flower_support" data-instance-id="repeat_0--flower-support--proto_sw_1_3__flower_2__flower_support" data-repeat-id="repeat_0" data-repeat-shift="0" data-mount-id="proto_sw_1_3__flower_2__flower_support" stroke="#007800" stroke-width="0.010" stroke-linejoin="round" stroke-linecap="round" data-flower-id="flower_2"/></g><g id="flower-support--repeat_p1" data-instance-id="flower-support--repeat_p1" data-repeat-id="repeat_p1" data-repeat-shift="1"><polyline points="1.2498,0.9258 1.254,0.9246 1.2581,0.9233 1.2622,0.922 1.2663,0.9207 1.2702,0.9193 1.2741,0.9179 1.278,0.9164 1.2818,0.9149 1.2854,0.9133 1.2891,0.9118 1.2926,0.9101 1.2961,0.9085 1.2994,0.9068 1.3027,0.9051 1.3059,0.9033 1.309,0.9015 1.312,0.8997 1.3149,0.8978 1.3177,0.896 1.3205,0.894 1.3231,0.8921 1.3256,0.8901 1.3279,0.8881 1.3302,0.886 1.3324,0.884 1.3344,0.8819 1.3363,0.8798 1.3381,0.8776 1.3397,0.8754 1.3413,0.8732 1.3427,0.871 1.3439,0.8687 1.3451,0.8665 1.346,0.8642 1.3469,0.8618 1.3476,0.8595 1.3481,0.8571 1.3485,0.8548 1.3487,0.8523 1.3488,0.8499" fill="none" id="repeat_p1--flower-support--proto_sw_1_3__flower_1__flower_support" data-instance-id="repeat_p1--flower-support--proto_sw_1_3__flower_1__flower_support" data-repeat-id="repeat_p1" data-repeat-shift="1" data-mount-id="proto_sw_1_3__flower_1__flower_support" stroke="#007800" stroke-width="0.010" stroke-linejoin="round" stroke-linecap="round" data-flower-id="flower_1"/><polyline points="1.447,0.9322 1.4582,0.9368 1.4697,0.9412 1.4815,0.9454 1.4935,0.9492 1.5057,0.9528 1.5181,0.9562 1.5307,0.9593 1.5433,0.9621 1.5561,0.9647 1.5689,0.967 1.5817,0.969 1.5945,0.9708 1.6073,0.9724 1.6201,0.9737 1.6327,0.9747 1.6452,0.9755 1.6576,0.976 1.6697,0.9763 1.6817,0.9763 1.6934,0.9761 1.7048,0.9756 1.7159,0.9749 1.7267,0.974 1.7372,0.9728 1.7472,0.9713 1.7568,0.9696 1.7659,0.9677 1.7746,0.9655 1.7827,0.9631 1.7903,0.9605 1.7973,0.9576 1.8037,0.9544 1.8094,0.9511 1.8145,0.9475 1.8189,0.9436 1.8226,0.9395 1.8255,0.9352 1.8276,0.9307 1.8289,0.9259 1.8293,0.9209" fill="none" id="repeat_p1--flower-support--proto_sw_1_3__flower_2__flower_support" data-instance-id="repeat_p1--flower-support--proto_sw_1_3__flower_2__flower_support" data-repeat-id="repeat_p1" data-repeat-shift="1" data-mount-id="proto_sw_1_3__flower_2__flower_support" stroke="#007800" stroke-width="0.010" stroke-linejoin="round" stroke-linecap="round" data-flower-id="flower_2"/></g></g><g id="flower-anchor-layer" data-instance-id="flower-anchor-layer" data-role="flower_anchor"><g id="flower-anchor--repeat_m1" data-instance-id="flower-anchor--repeat_m1" data-repeat-id="repeat_m1" data-repeat-shift="-1"><ellipse id="repeat_m1--flower-anchor--flower_1" data-instance-id="repeat_m1--flower-anchor--flower_1" data-repeat-id="repeat_m1" data-repeat-shift="-1" cx="-0.6512" cy="0.6549" rx="0.1516" ry="0.195" fill="#fff7fb" stroke="#ff0000" stroke-width="0.006" data-flower-id="flower_1"/><ellipse id="repeat_m1--flower-anchor--flower_2" data-instance-id="repeat_m1--flower-anchor--flower_2" data-repeat-id="repeat_m1" data-repeat-shift="-1" cx="-0.1707" cy="0.7259" rx="0.1516" ry="0.195" fill="#fff7fb" stroke="#ff0000" stroke-width="0.006" data-flower-id="flower_2"/></g><g id="flower-anchor--repeat_0" data-instance-id="flower-anchor--repeat_0" data-repeat-id="repeat_0" data-repeat-shift="0"><ellipse id="repeat_0--flower-anchor--flower_1" data-instance-id="repeat_0--flower-anchor--flower_1" data-repeat-id="repeat_0" data-repeat-shift="0" cx="0.3488" cy="0.6549" rx="0.1516" ry="0.195" fill="#fff7fb" stroke="#ff0000" stroke-width="0.006" data-flower-id="flower_1"/><ellipse id="repeat_0--flower-anchor--flower_2" data-instance-id="repeat_0--flower-anchor--flower_2" data-repeat-id="repeat_0" data-repeat-shift="0" cx="0.8293" cy="0.7259" rx="0.1516" ry="0.195" fill="#fff7fb" stroke="#ff0000" stroke-width="0.006" data-flower-id="flower_2"/></g><g id="flower-anchor--repeat_p1" data-instance-id="flower-anchor--repeat_p1" data-repeat-id="repeat_p1" data-repeat-shift="1"><ellipse id="repeat_p1--flower-anchor--flower_1" data-instance-id="repeat_p1--flower-anchor--flower_1" data-repeat-id="repeat_p1" data-repeat-shift="1" cx="1.3488" cy="0.6549" rx="0.1516" ry="0.195" fill="#fff7fb" stroke="#ff0000" stroke-width="0.006" data-flower-id="flower_1"/><ellipse id="repeat_p1--flower-anchor--flower_2" data-instance-id="repeat_p1--flower-anchor--flower_2" data-repeat-id="repeat_p1" data-repeat-shift="1" cx="1.8293" cy="0.7259" rx="0.1516" ry="0.195" fill="#fff7fb" stroke="#ff0000" stroke-width="0.006" data-flower-id="flower_2"/></g></g><g id="branches-layer" data-instance-id="branches-layer" data-role="branches"><g id="branches--repeat_m1" data-instance-id="branches--repeat_m1" data-repeat-id="repeat_m1" data-repeat-shift="-1"><path id="repeat_m1--curve--proto_sw_1_3__seed_157358250__global_l1_flow_v3__density_medium__selected_l1_001.L1" data-instance-id="repeat_m1--curve--proto_sw_1_3__seed_157358250__global_l1_flow_v3__density_medium__selected_l1_001.L1" data-repeat-id="repeat_m1" data-repeat-shift="-1" d="M -0.9415,0.5957 C -0.9141,0.4099 -0.7495,0.5277 -0.7851,0.3269" fill="none" stroke="#ff9900" stroke-width="0.01" stroke-linejoin="round" stroke-linecap="round" data-role="primary_branch" data-level="L1" data-curve-id="proto_sw_1_3__seed_157358250__global_l1_flow_v3__density_medium__selected_l1_001.L1" data-parent-curve-id="None" data-lane-id="selected_l1_001" data-unit-id="proto_sw_1_3__seed_157358250__global_l1_flow_v3__density_medium__selected_l1_001__L1-Only__independent_l1__context_preferred__sample_0000"/><path id="repeat_m1--curve--proto_sw_1_3__seed_157358250__global_l1_flow_v3__density_medium__selected_l1_003.L1" data-instance-id="repeat_m1--curve--proto_sw_1_3__seed_157358250__global_l1_flow_v3__density_medium__selected_l1_003.L1" data-repeat-id="repeat_m1" data-repeat-shift="-1" d="M -0.2837,0.458 C -0.3365,0.4913 -0.3399,0.4474 -0.3895,0.4972" fill="none" stroke="#ff9900" stroke-width="0.01" stroke-linejoin="round" stroke-linecap="round" data-role="primary_branch" data-level="L1" data-curve-id="proto_sw_1_3__seed_157358250__global_l1_flow_v3__density_medium__selected_l1_003.L1" data-parent-curve-id="None" data-lane-id="selected_l1_003" data-unit-id="proto_sw_1_3__seed_157358250__global_l1_flow_v3__density_medium__selected_l1_003__L1-Only__independent_l1__context_preferred__sample_0050"/><path id="repeat_m1--curve--proto_sw_1_3__seed_157358250__global_l1_flow_v3__density_medium__selected_l1_002.L1" data-instance-id="repeat_m1--curve--proto_sw_1_3__seed_157358250__global_l1_flow_v3__density_medium__selected_l1_002.L1" data-repeat-id="repeat_m1" data-repeat-shift="-1" d="M -0.8529,0.8065 C -0.8487,0.976 -0.8619,0.9481 -0.935,1.0184" fill="none" stroke="#ff9900" stroke-width="0.01" stroke-linejoin="round" stroke-linecap="round" data-role="primary_branch" data-level="L1" data-curve-id="proto_sw_1_3__seed_157358250__global_l1_flow_v3__density_medium__selected_l1_002.L1" data-parent-curve-id="None" data-lane-id="selected_l1_002" data-unit-id="proto_sw_1_3__seed_157358250__global_l1_flow_v3__density_medium__selected_l1_002__Y-C__compact_c__context_opposed__sample_0027"/><path id="repeat_m1--curve--proto_sw_1_3__seed_157358250__global_l1_flow_v3__density_medium__selected_l1_002.L2.1" data-instance-id="repeat_m1--curve--proto_sw_1_3__seed_157358250__global_l1_flow_v3__density_medium__selected_l1_002.L2.1" data-repeat-id="repeat_m1" data-repeat-shift="-1" d="M -0.8839,0.9733 C -0.932,0.9731 -0.9498,0.9729 -0.9922,0.9957" fill="none" stroke="#00ffff" stroke-width="0.007" stroke-linejoin="round" stroke-linecap="round" data-role="secondary_branch" data-level="L2" data-curve-id="proto_sw_1_3__seed_157358250__global_l1_flow_v3__density_medium__selected_l1_002.L2.1" data-parent-curve-id="proto_sw_1_3__seed_157358250__global_l1_flow_v3__density_medium__selected_l1_002.L1" data-lane-id="selected_l1_002" data-unit-id="proto_sw_1_3__seed_157358250__global_l1_flow_v3__density_medium__selected_l1_002__Y-C__compact_c__context_opposed__sample_0027"/><path id="repeat_m1--curve--proto_sw_1_3__seed_157358250__global_l1_flow_v3__density_medium__selected_l1_004.L1" data-instance-id="repeat_m1--curve--proto_sw_1_3__seed_157358250__global_l1_flow_v3__density_medium__selected_l1_004.L1" data-repeat-id="repeat_m1" data-repeat-shift="-1" d="M -0.0523,0.4263 C -0.134,0.3179 -0.0769,0.2958 -0.1097,0.2064" fill="none" stroke="#ff9900" stroke-width="0.01" stroke-linejoin="round" stroke-linecap="round" data-role="primary_branch" data-level="L1" data-curve-id="proto_sw_1_3__seed_157358250__global_l1_flow_v3__density_medium__selected_l1_004.L1" data-parent-curve-id="None" data-lane-id="selected_l1_004" data-unit-id="proto_sw_1_3__seed_157358250__global_l1_flow_v3__density_medium__selected_l1_004__L1-Only__independent_l1__context_preferred__sample_0075"/></g><g id="branches--repeat_0" data-instance-id="branches--repeat_0" data-repeat-id="repeat_0" data-repeat-shift="0"><path id="repeat_0--curve--proto_sw_1_3__seed_157358250__global_l1_flow_v3__density_medium__selected_l1_001.L1" data-instance-id="repeat_0--curve--proto_sw_1_3__seed_157358250__global_l1_flow_v3__density_medium__selected_l1_001.L1" data-repeat-id="repeat_0" data-repeat-shift="0" d="M 0.0585,0.5957 C 0.0859,0.4099 0.2505,0.5277 0.2149,0.3269" fill="none" stroke="#ff9900" stroke-width="0.01" stroke-linejoin="round" stroke-linecap="round" data-role="primary_branch" data-level="L1" data-curve-id="proto_sw_1_3__seed_157358250__global_l1_flow_v3__density_medium__selected_l1_001.L1" data-parent-curve-id="None" data-lane-id="selected_l1_001" data-unit-id="proto_sw_1_3__seed_157358250__global_l1_flow_v3__density_medium__selected_l1_001__L1-Only__independent_l1__context_preferred__sample_0000"/><path id="repeat_0--curve--proto_sw_1_3__seed_157358250__global_l1_flow_v3__density_medium__selected_l1_003.L1" data-instance-id="repeat_0--curve--proto_sw_1_3__seed_157358250__global_l1_flow_v3__density_medium__selected_l1_003.L1" data-repeat-id="repeat_0" data-repeat-shift="0" d="M 0.7163,0.458 C 0.6635,0.4913 0.6601,0.4474 0.6105,0.4972" fill="none" stroke="#ff9900" stroke-width="0.01" stroke-linejoin="round" stroke-linecap="round" data-role="primary_branch" data-level="L1" data-curve-id="proto_sw_1_3__seed_157358250__global_l1_flow_v3__density_medium__selected_l1_003.L1" data-parent-curve-id="None" data-lane-id="selected_l1_003" data-unit-id="proto_sw_1_3__seed_157358250__global_l1_flow_v3__density_medium__selected_l1_003__L1-Only__independent_l1__context_preferred__sample_0050"/><path id="repeat_0--curve--proto_sw_1_3__seed_157358250__global_l1_flow_v3__density_medium__selected_l1_002.L1" data-instance-id="repeat_0--curve--proto_sw_1_3__seed_157358250__global_l1_flow_v3__density_medium__selected_l1_002.L1" data-repeat-id="repeat_0" data-repeat-shift="0" d="M 0.1471,0.8065 C 0.1513,0.976 0.1381,0.9481 0.065,1.0184" fill="none" stroke="#ff9900" stroke-width="0.01" stroke-linejoin="round" stroke-linecap="round" data-role="primary_branch" data-level="L1" data-curve-id="proto_sw_1_3__seed_157358250__global_l1_flow_v3__density_medium__selected_l1_002.L1" data-parent-curve-id="None" data-lane-id="selected_l1_002" data-unit-id="proto_sw_1_3__seed_157358250__global_l1_flow_v3__density_medium__selected_l1_002__Y-C__compact_c__context_opposed__sample_0027"/><path id="repeat_0--curve--proto_sw_1_3__seed_157358250__global_l1_flow_v3__density_medium__selected_l1_002.L2.1" data-instance-id="repeat_0--curve--proto_sw_1_3__seed_157358250__global_l1_flow_v3__density_medium__selected_l1_002.L2.1" data-repeat-id="repeat_0" data-repeat-shift="0" d="M 0.1161,0.9733 C 0.068,0.9731 0.0502,0.9729 0.0078,0.9957" fill="none" stroke="#00ffff" stroke-width="0.007" stroke-linejoin="round" stroke-linecap="round" data-role="secondary_branch" data-level="L2" data-curve-id="proto_sw_1_3__seed_157358250__global_l1_flow_v3__density_medium__selected_l1_002.L2.1" data-parent-curve-id="proto_sw_1_3__seed_157358250__global_l1_flow_v3__density_medium__selected_l1_002.L1" data-lane-id="selected_l1_002" data-unit-id="proto_sw_1_3__seed_157358250__global_l1_flow_v3__density_medium__selected_l1_002__Y-C__compact_c__context_opposed__sample_0027"/><path id="repeat_0--curve--proto_sw_1_3__seed_157358250__global_l1_flow_v3__density_medium__selected_l1_004.L1" data-instance-id="repeat_0--curve--proto_sw_1_3__seed_157358250__global_l1_flow_v3__density_medium__selected_l1_004.L1" data-repeat-id="repeat_0" data-repeat-shift="0" d="M 0.9477,0.4263 C 0.866,0.3179 0.9231,0.2958 0.8903,0.2064" fill="none" stroke="#ff9900" stroke-width="0.01" stroke-linejoin="round" stroke-linecap="round" data-role="primary_branch" data-level="L1" data-curve-id="proto_sw_1_3__seed_157358250__global_l1_flow_v3__density_medium__selected_l1_004.L1" data-parent-curve-id="None" data-lane-id="selected_l1_004" data-unit-id="proto_sw_1_3__seed_157358250__global_l1_flow_v3__density_medium__selected_l1_004__L1-Only__independent_l1__context_preferred__sample_0075"/></g><g id="branches--repeat_p1" data-instance-id="branches--repeat_p1" data-repeat-id="repeat_p1" data-repeat-shift="1"><path id="repeat_p1--curve--proto_sw_1_3__seed_157358250__global_l1_flow_v3__density_medium__selected_l1_001.L1" data-instance-id="repeat_p1--curve--proto_sw_1_3__seed_157358250__global_l1_flow_v3__density_medium__selected_l1_001.L1" data-repeat-id="repeat_p1" data-repeat-shift="1" d="M 1.0585,0.5957 C 1.0859,0.4099 1.2505,0.5277 1.2149,0.3269" fill="none" stroke="#ff9900" stroke-width="0.01" stroke-linejoin="round" stroke-linecap="round" data-role="primary_branch" data-level="L1" data-curve-id="proto_sw_1_3__seed_157358250__global_l1_flow_v3__density_medium__selected_l1_001.L1" data-parent-curve-id="None" data-lane-id="selected_l1_001" data-unit-id="proto_sw_1_3__seed_157358250__global_l1_flow_v3__density_medium__selected_l1_001__L1-Only__independent_l1__context_preferred__sample_0000"/><path id="repeat_p1--curve--proto_sw_1_3__seed_157358250__global_l1_flow_v3__density_medium__selected_l1_003.L1" data-instance-id="repeat_p1--curve--proto_sw_1_3__seed_157358250__global_l1_flow_v3__density_medium__selected_l1_003.L1" data-repeat-id="repeat_p1" data-repeat-shift="1" d="M 1.7163,0.458 C 1.6635,0.4913 1.6601,0.4474 1.6105,0.4972" fill="none" stroke="#ff9900" stroke-width="0.01" stroke-linejoin="round" stroke-linecap="round" data-role="primary_branch" data-level="L1" data-curve-id="proto_sw_1_3__seed_157358250__global_l1_flow_v3__density_medium__selected_l1_003.L1" data-parent-curve-id="None" data-lane-id="selected_l1_003" data-unit-id="proto_sw_1_3__seed_157358250__global_l1_flow_v3__density_medium__selected_l1_003__L1-Only__independent_l1__context_preferred__sample_0050"/><path id="repeat_p1--curve--proto_sw_1_3__seed_157358250__global_l1_flow_v3__density_medium__selected_l1_002.L1" data-instance-id="repeat_p1--curve--proto_sw_1_3__seed_157358250__global_l1_flow_v3__density_medium__selected_l1_002.L1" data-repeat-id="repeat_p1" data-repeat-shift="1" d="M 1.1471,0.8065 C 1.1513,0.976 1.1381,0.9481 1.065,1.0184" fill="none" stroke="#ff9900" stroke-width="0.01" stroke-linejoin="round" stroke-linecap="round" data-role="primary_branch" data-level="L1" data-curve-id="proto_sw_1_3__seed_157358250__global_l1_flow_v3__density_medium__selected_l1_002.L1" data-parent-curve-id="None" data-lane-id="selected_l1_002" data-unit-id="proto_sw_1_3__seed_157358250__global_l1_flow_v3__density_medium__selected_l1_002__Y-C__compact_c__context_opposed__sample_0027"/><path id="repeat_p1--curve--proto_sw_1_3__seed_157358250__global_l1_flow_v3__density_medium__selected_l1_002.L2.1" data-instance-id="repeat_p1--curve--proto_sw_1_3__seed_157358250__global_l1_flow_v3__density_medium__selected_l1_002.L2.1" data-repeat-id="repeat_p1" data-repeat-shift="1" d="M 1.1161,0.9733 C 1.068,0.9731 1.0502,0.9729 1.0078,0.9957" fill="none" stroke="#00ffff" stroke-width="0.007" stroke-linejoin="round" stroke-linecap="round" data-role="secondary_branch" data-level="L2" data-curve-id="proto_sw_1_3__seed_157358250__global_l1_flow_v3__density_medium__selected_l1_002.L2.1" data-parent-curve-id="proto_sw_1_3__seed_157358250__global_l1_flow_v3__density_medium__selected_l1_002.L1" data-lane-id="selected_l1_002" data-unit-id="proto_sw_1_3__seed_157358250__global_l1_flow_v3__density_medium__selected_l1_002__Y-C__compact_c__context_opposed__sample_0027"/><path id="repeat_p1--curve--proto_sw_1_3__seed_157358250__global_l1_flow_v3__density_medium__selected_l1_004.L1" data-instance-id="repeat_p1--curve--proto_sw_1_3__seed_157358250__global_l1_flow_v3__density_medium__selected_l1_004.L1" data-repeat-id="repeat_p1" data-repeat-shift="1" d="M 1.9477,0.4263 C 1.866,0.3179 1.9231,0.2958 1.8903,0.2064" fill="none" stroke="#ff9900" stroke-width="0.01" stroke-linejoin="round" stroke-linecap="round" data-role="primary_branch" data-level="L1" data-curve-id="proto_sw_1_3__seed_157358250__global_l1_flow_v3__density_medium__selected_l1_004.L1" data-parent-curve-id="None" data-lane-id="selected_l1_004" data-unit-id="proto_sw_1_3__seed_157358250__global_l1_flow_v3__density_medium__selected_l1_004__L1-Only__independent_l1__context_preferred__sample_0075"/></g></g></svg>