<svg xmlns="http://www.w3.org/2000/svg" id="structural-svg--proto_sw_1_1--production-seed-100015" data-prototype-id="proto_sw_1_1" data-production-seed="100015" data-backbone-seed="2048362248" data-flower-seed="574973821" data-branch-seed="1105195513" data-unit-seed="1548159200" data-backbone-variant-id="swept" data-density-level="medium" data-source-case="C016" data-source-contract-id="LocalGreedy" data-source-plan-id="proto_sw_1_1__seed_1105195513__global_l1_flow_v3__density_medium" data-source-selection-id="proto_sw_1_1__seed_1105195513__global_l1_flow_v3__density_medium__unit_candidates_v2__global_unit_selection_sparse5e" data-repeat-mode="triple" viewBox="-1.08 0 3.16 1.1875" width="3160" height="1188"><rect x="-1.08" y="0" width="3.16" height="1.1875" fill="#f1efe9"/><metadata>role_color_identity_v2: backbone=#0000ff; primary_branch=#ff9900; secondary_branch=#00ffff; flower_support=#007800; flower_anchor=#ff0000; unit_boundary=#000000(dashed). data-role is authoritative; stroke color is a visual fallback.</metadata><g id="unit-boundaries" data-instance-id="unit-boundaries" data-role="unit_boundary"><line id="unit-boundary--00" data-instance-id="unit-boundary--00" data-boundary-x="-1" x1="-1" y1="0" x2="-1" y2="1.1875" stroke="#000000" stroke-dasharray="0.012 0.008" stroke-width="0.004"/><line id="unit-boundary--01" data-instance-id="unit-boundary--01" data-boundary-x="0" x1="0" y1="0" x2="0" y2="1.1875" stroke="#000000" stroke-dasharray="0.012 0.008" stroke-width="0.004"/><line id="unit-boundary--02" data-instance-id="unit-boundary--02" data-boundary-x="1" x1="1" y1="0" x2="1" y2="1.1875" stroke="#000000" stroke-dasharray="0.012 0.008" stroke-width="0.004"/><line id="unit-boundary--03" data-instance-id="unit-boundary--03" data-boundary-x="2" x1="2" y1="0" x2="2" y2="1.1875" stroke="#000000" stroke-dasharray="0.012 0.008" stroke-width="0.004"/></g><g id="backbone-layer" data-instance-id="backbone-layer" data-role="backbone"><g id="backbone--repeat_m1" data-instance-id="backbone--repeat_m1" data-repeat-id="repeat_m1" data-repeat-shift="-1"><polyline points="-1,0.6111 -0.9966,0.5833 -0.9926,0.5552 -0.9882,0.5269 -0.9833,0.4982 -0.978,0.4691 -0.9723,0.4397 -0.9661,0.4098 -0.9594,0.3795 -0.9521,0.3488 -0.9441,0.3177 -0.9353,0.2861 -0.9257,0.2544 -0.9151,0.2224 -0.9032,0.1908 -0.8897,0.16 -0.8741,0.1312 -0.8561,0.1066 -0.835,0.0914 -0.8099,0.0891 -0.782,0.0979 -0.7537,0.113 -0.7264,0.1332 -0.7006,0.1574 -0.6766,0.1844 -0.6547,0.2134 -0.635,0.2436 -0.6171,0.2744 -0.6013,0.3057 -0.587,0.337 -0.5743,0.3683 -0.563,0.3995 -0.553,0.4307 -0.5442,0.4616 -0.5368,0.492 -0.5315,0.5219 -0.5271,0.5514 -0.5227,0.5806 -0.5183,0.6095 -0.5139,0.6382 -0.5094,0.6666 -0.505,0.6948 -0.5006,0.7229 -0.4962,0.7508 -0.4918,0.7785 -0.4874,0.8059 -0.483,0.833 -0.4777,0.8599 -0.4714,0.8865 -0.4641,0.9128 -0.4559,0.9384 -0.4466,0.9635 -0.4361,0.9876 -0.424,1.0106 -0.4104,1.0314 -0.3948,1.0496 -0.3771,1.0644 -0.3565,1.0746 -0.3332,1.0792 -0.3074,1.079 -0.2794,1.0743 -0.2509,1.066 -0.2228,1.0551 -0.1956,1.0393 -0.1696,1.0185 -0.1486,0.9949 -0.132,0.971 -0.1169,0.9468 -0.1031,0.9222 -0.0903,0.8974 -0.0785,0.8724 -0.0676,0.8472 -0.0575,0.8218 -0.0481,0.7963 -0.0395,0.7705 -0.0315,0.7446 -0.0241,0.7184 -0.0173,0.692 -0.011,0.6653 -0.0053,0.6384 0,0.6111" fill="none" id="repeat_m1--backbone" data-instance-id="repeat_m1--backbone" data-repeat-id="repeat_m1" data-repeat-shift="-1" stroke="#0000ff" stroke-width="0.007" stroke-linejoin="round" stroke-linecap="round"/></g><g id="backbone--repeat_0" data-instance-id="backbone--repeat_0" data-repeat-id="repeat_0" data-repeat-shift="0"><polyline points="0,0.6111 0.0034,0.5833 0.0074,0.5552 0.0118,0.5269 0.0167,0.4982 0.022,0.4691 0.0277,0.4397 0.0339,0.4098 0.0406,0.3795 0.0479,0.3488 0.0559,0.3177 0.0647,0.2861 0.0743,0.2544 0.0849,0.2224 0.0968,0.1908 0.1103,0.16 0.1259,0.1312 0.1439,0.1066 0.165,0.0914 0.1901,0.0891 0.218,0.0979 0.2463,0.113 0.2736,0.1332 0.2994,0.1574 0.3234,0.1844 0.3453,0.2134 0.365,0.2436 0.3829,0.2744 0.3987,0.3057 0.413,0.337 0.4257,0.3683 0.437,0.3995 0.447,0.4307 0.4558,0.4616 0.4632,0.492 0.4685,0.5219 0.4729,0.5514 0.4773,0.5806 0.4817,0.6095 0.4861,0.6382 0.4906,0.6666 0.495,0.6948 0.4994,0.7229 0.5038,0.7508 0.5082,0.7785 0.5126,0.8059 0.517,0.833 0.5223,0.8599 0.5286,0.8865 0.5359,0.9128 0.5441,0.9384 0.5534,0.9635 0.5639,0.9876 0.576,1.0106 0.5896,1.0314 0.6052,1.0496 0.6229,1.0644 0.6435,1.0746 0.6668,1.0792 0.6926,1.079 0.7206,1.0743 0.7491,1.066 0.7772,1.0551 0.8044,1.0393 0.8304,1.0185 0.8514,0.9949 0.868,0.971 0.8831,0.9468 0.8969,0.9222 0.9097,0.8974 0.9215,0.8724 0.9324,0.8472 0.9425,0.8218 0.9519,0.7963 0.9605,0.7705 0.9685,0.7446 0.9759,0.7184 0.9827,0.692 0.989,0.6653 0.9947,0.6384 1,0.6111" fill="none" id="repeat_0--backbone" data-instance-id="repeat_0--backbone" data-repeat-id="repeat_0" data-repeat-shift="0" stroke="#0000ff" stroke-width="0.014" stroke-linejoin="round" stroke-linecap="round"/></g><g id="backbone--repeat_p1" data-instance-id="backbone--repeat_p1" data-repeat-id="repeat_p1" data-repeat-shift="1"><polyline points="1,0.6111 1.0034,0.5833 1.0074,0.5552 1.0118,0.5269 1.0167,0.4982 1.022,0.4691 1.0277,0.4397 1.0339,0.4098 1.0406,0.3795 1.0479,0.3488 1.0559,0.3177 1.0647,0.2861 1.0743,0.2544 1.0849,0.2224 1.0968,0.1908 1.1103,0.16 1.1259,0.1312 1.1439,0.1066 1.165,0.0914 1.1901,0.0891 1.218,0.0979 1.2463,0.113 1.2736,0.1332 1.2994,0.1574 1.3234,0.1844 1.3453,0.2134 1.365,0.2436 1.3829,0.2744 1.3987,0.3057 1.413,0.337 1.4257,0.3683 1.437,0.3995 1.447,0.4307 1.4558,0.4616 1.4632,0.492 1.4685,0.5219 1.4729,0.5514 1.4773,0.5806 1.4817,0.6095 1.4861,0.6382 1.4906,0.6666 1.495,0.6948 1.4994,0.7229 1.5038,0.7508 1.5082,0.7785 1.5126,0.8059 1.517,0.833 1.5223,0.8599 1.5286,0.8865 1.5359,0.9128 1.5441,0.9384 1.5534,0.9635 1.5639,0.9876 1.576,1.0106 1.5896,1.0314 1.6052,1.0496 1.6229,1.0644 1.6435,1.0746 1.6668,1.0792 1.6926,1.079 1.7206,1.0743 1.7491,1.066 1.7772,1.0551 1.8044,1.0393 1.8304,1.0185 1.8514,0.9949 1.868,0.971 1.8831,0.9468 1.8969,0.9222 1.9097,0.8974 1.9215,0.8724 1.9324,0.8472 1.9425,0.8218 1.9519,0.7963 1.9605,0.7705 1.9685,0.7446 1.9759,0.7184 1.9827,0.692 1.989,0.6653 1.9947,0.6384 2,0.6111" fill="none" id="repeat_p1--backbone" data-instance-id="repeat_p1--backbone" data-repeat-id="repeat_p1" data-repeat-shift="1" stroke="#0000ff" stroke-width="0.007" stroke-linejoin="round" stroke-linecap="round"/></g></g><g id="flower-support-layer" data-instance-id="flower-support-layer" data-role="flower_support"><g id="flower-support--repeat_m1" data-instance-id="flower-support--repeat_m1" data-repeat-id="repeat_m1" data-repeat-shift="-1"><polyline points="-0.132,0.971 -0.1369,0.9718 -0.1418,0.9723 -0.1467,0.9726 -0.1515,0.9726 -0.1562,0.9725 -0.1609,0.9722 -0.1655,0.9717 -0.17,0.971 -0.1745,0.9701 -0.1788,0.969 -0.1831,0.9678 -0.1873,0.9665 -0.1915,0.965 -0.1955,0.9633 -0.1994,0.9615 -0.2032,0.9596 -0.2069,0.9576 -0.2105,0.9554 -0.2139,0.9532 -0.2173,0.9508 -0.2205,0.9484 -0.2236,0.9459 -0.2266,0.9433 -0.2294,0.9406 -0.2321,0.9379 -0.2346,0.9351 -0.237,0.9322 -0.2393,0.9294 -0.2414,0.9264 -0.2433,0.9235 -0.2451,0.9205 -0.2466,0.9176 -0.2481,0.9146 -0.2493,0.9116 -0.2504,0.9087 -0.2513,0.9057 -0.2519,0.9028 -0.2524,0.8999 -0.2527,0.897 -0.2528,0.8942" fill="none" id="repeat_m1--flower-support--proto_sw_1_1__flower_2__flower_support" data-instance-id="repeat_m1--flower-support--proto_sw_1_1__flower_2__flower_support" data-repeat-id="repeat_m1" data-repeat-shift="-1" data-mount-id="proto_sw_1_1__flower_2__flower_support" stroke="#007800" stroke-width="0.010" stroke-linejoin="round" stroke-linecap="round" data-flower-id="flower_2"/><polyline points="-0.4714,0.8865 -0.4795,0.8923 -0.4879,0.8978 -0.4963,0.9029 -0.505,0.9077 -0.5138,0.9121 -0.5226,0.9163 -0.5316,0.9201 -0.5406,0.9236 -0.5497,0.9267 -0.5588,0.9296 -0.5678,0.9321 -0.5769,0.9343 -0.5859,0.9362 -0.5949,0.9378 -0.6038,0.939 -0.6126,0.94 -0.6213,0.9406 -0.6298,0.9409 -0.6382,0.9409 -0.6464,0.9406 -0.6544,0.94 -0.6622,0.9391 -0.6697,0.9379 -0.677,0.9363 -0.684,0.9345 -0.6907,0.9324 -0.697,0.9299 -0.703,0.9272 -0.7087,0.9242 -0.714,0.9208 -0.7188,0.9172 -0.7233,0.9133 -0.7273,0.9091 -0.7308,0.9045 -0.7338,0.8997 -0.7363,0.8946 -0.7384,0.8893 -0.7398,0.8836 -0.7407,0.8776 -0.741,0.8714" fill="none" id="repeat_m1--flower-support--proto_sw_1_1__flower_1__flower_support" data-instance-id="repeat_m1--flower-support--proto_sw_1_1__flower_1__flower_support" data-repeat-id="repeat_m1" data-repeat-shift="-1" data-mount-id="proto_sw_1_1__flower_1__flower_support" stroke="#007800" stroke-width="0.010" stroke-linejoin="round" stroke-linecap="round" data-flower-id="flower_1"/></g><g id="flower-support--repeat_0" data-instance-id="flower-support--repeat_0" data-repeat-id="repeat_0" data-repeat-shift="0"><polyline points="0.868,0.971 0.8631,0.9718 0.8582,0.9723 0.8533,0.9726 0.8485,0.9726 0.8438,0.9725 0.8391,0.9722 0.8345,0.9717 0.83,0.971 0.8255,0.9701 0.8212,0.969 0.8169,0.9678 0.8127,0.9665 0.8085,0.965 0.8045,0.9633 0.8006,0.9615 0.7968,0.9596 0.7931,0.9576 0.7895,0.9554 0.7861,0.9532 0.7827,0.9508 0.7795,0.9484 0.7764,0.9459 0.7734,0.9433 0.7706,0.9406 0.7679,0.9379 0.7654,0.9351 0.763,0.9322 0.7607,0.9294 0.7586,0.9264 0.7567,0.9235 0.7549,0.9205 0.7534,0.9176 0.7519,0.9146 0.7507,0.9116 0.7496,0.9087 0.7487,0.9057 0.7481,0.9028 0.7476,0.8999 0.7473,0.897 0.7472,0.8942" fill="none" id="repeat_0--flower-support--proto_sw_1_1__flower_2__flower_support" data-instance-id="repeat_0--flower-support--proto_sw_1_1__flower_2__flower_support" data-repeat-id="repeat_0" data-repeat-shift="0" data-mount-id="proto_sw_1_1__flower_2__flower_support" stroke="#007800" stroke-width="0.010" stroke-linejoin="round" stroke-linecap="round" data-flower-id="flower_2"/><polyline points="0.5286,0.8865 0.5205,0.8923 0.5121,0.8978 0.5037,0.9029 0.495,0.9077 0.4862,0.9121 0.4774,0.9163 0.4684,0.9201 0.4594,0.9236 0.4503,0.9267 0.4412,0.9296 0.4322,0.9321 0.4231,0.9343 0.4141,0.9362 0.4051,0.9378 0.3962,0.939 0.3874,0.94 0.3787,0.9406 0.3702,0.9409 0.3618,0.9409 0.3536,0.9406 0.3456,0.94 0.3378,0.9391 0.3303,0.9379 0.323,0.9363 0.316,0.9345 0.3093,0.9324 0.303,0.9299 0.297,0.9272 0.2913,0.9242 0.286,0.9208 0.2812,0.9172 0.2767,0.9133 0.2727,0.9091 0.2692,0.9045 0.2662,0.8997 0.2637,0.8946 0.2616,0.8893 0.2602,0.8836 0.2593,0.8776 0.259,0.8714" fill="none" id="repeat_0--flower-support--proto_sw_1_1__flower_1__flower_support" data-instance-id="repeat_0--flower-support--proto_sw_1_1__flower_1__flower_support" data-repeat-id="repeat_0" data-repeat-shift="0" data-mount-id="proto_sw_1_1__flower_1__flower_support" stroke="#007800" stroke-width="0.010" stroke-linejoin="round" stroke-linecap="round" data-flower-id="flower_1"/></g><g id="flower-support--repeat_p1" data-instance-id="flower-support--repeat_p1" data-repeat-id="repeat_p1" data-repeat-shift="1"><polyline points="1.868,0.971 1.8631,0.9718 1.8582,0.9723 1.8533,0.9726 1.8485,0.9726 1.8438,0.9725 1.8391,0.9722 1.8345,0.9717 1.83,0.971 1.8255,0.9701 1.8212,0.969 1.8169,0.9678 1.8127,0.9665 1.8085,0.965 1.8045,0.9633 1.8006,0.9615 1.7968,0.9596 1.7931,0.9576 1.7895,0.9554 1.7861,0.9532 1.7827,0.9508 1.7795,0.9484 1.7764,0.9459 1.7734,0.9433 1.7706,0.9406 1.7679,0.9379 1.7654,0.9351 1.763,0.9322 1.7607,0.9294 1.7586,0.9264 1.7567,0.9235 1.7549,0.9205 1.7534,0.9176 1.7519,0.9146 1.7507,0.9116 1.7496,0.9087 1.7487,0.9057 1.7481,0.9028 1.7476,0.8999 1.7473,0.897 1.7472,0.8942" fill="none" id="repeat_p1--flower-support--proto_sw_1_1__flower_2__flower_support" data-instance-id="repeat_p1--flower-support--proto_sw_1_1__flower_2__flower_support" data-repeat-id="repeat_p1" data-repeat-shift="1" data-mount-id="proto_sw_1_1__flower_2__flower_support" stroke="#007800" stroke-width="0.010" stroke-linejoin="round" stroke-linecap="round" data-flower-id="flower_2"/><polyline points="1.5286,0.8865 1.5205,0.8923 1.5121,0.8978 1.5037,0.9029 1.495,0.9077 1.4862,0.9121 1.4774,0.9163 1.4684,0.9201 1.4594,0.9236 1.4503,0.9267 1.4412,0.9296 1.4322,0.9321 1.4231,0.9343 1.4141,0.9362 1.4051,0.9378 1.3962,0.939 1.3874,0.94 1.3787,0.9406 1.3702,0.9409 1.3618,0.9409 1.3536,0.9406 1.3456,0.94 1.3378,0.9391 1.3303,0.9379 1.323,0.9363 1.316,0.9345 1.3093,0.9324 1.303,0.9299 1.297,0.9272 1.2913,0.9242 1.286,0.9208 1.2812,0.9172 1.2767,0.9133 1.2727,0.9091 1.2692,0.9045 1.2662,0.8997 1.2637,0.8946 1.2616,0.8893 1.2602,0.8836 1.2593,0.8776 1.259,0.8714" fill="none" id="repeat_p1--flower-support--proto_sw_1_1__flower_1__flower_support" data-instance-id="repeat_p1--flower-support--proto_sw_1_1__flower_1__flower_support" data-repeat-id="repeat_p1" data-repeat-shift="1" data-mount-id="proto_sw_1_1__flower_1__flower_support" stroke="#007800" stroke-width="0.010" stroke-linejoin="round" stroke-linecap="round" data-flower-id="flower_1"/></g></g><g id="flower-anchor-layer" data-instance-id="flower-anchor-layer" data-role="flower_anchor"><g id="flower-anchor--repeat_m1" data-instance-id="flower-anchor--repeat_m1" data-repeat-id="repeat_m1" data-repeat-shift="-1"><ellipse id="repeat_m1--flower-anchor--flower_1" data-instance-id="repeat_m1--flower-anchor--flower_1" data-repeat-id="repeat_m1" data-repeat-shift="-1" cx="-0.741" cy="0.628" rx="0.1355" ry="0.2434" fill="#fff7fb" stroke="#ff0000" stroke-width="0.006" data-flower-id="flower_1"/><ellipse id="repeat_m1--flower-anchor--flower_2" data-instance-id="repeat_m1--flower-anchor--flower_2" data-repeat-id="repeat_m1" data-repeat-shift="-1" cx="-0.2528" cy="0.6368" rx="0.1335" ry="0.2574" fill="#fff7fb" stroke="#ff0000" stroke-width="0.006" data-flower-id="flower_2"/></g><g id="flower-anchor--repeat_0" data-instance-id="flower-anchor--repeat_0" data-repeat-id="repeat_0" data-repeat-shift="0"><ellipse id="repeat_0--flower-anchor--flower_1" data-instance-id="repeat_0--flower-anchor--flower_1" data-repeat-id="repeat_0" data-repeat-shift="0" cx="0.259" cy="0.628" rx="0.1355" ry="0.2434" fill="#fff7fb" stroke="#ff0000" stroke-width="0.006" data-flower-id="flower_1"/><ellipse id="repeat_0--flower-anchor--flower_2" data-instance-id="repeat_0--flower-anchor--flower_2" data-repeat-id="repeat_0" data-repeat-shift="0" cx="0.7472" cy="0.6368" rx="0.1335" ry="0.2574" fill="#fff7fb" stroke="#ff0000" stroke-width="0.006" data-flower-id="flower_2"/></g><g id="flower-anchor--repeat_p1" data-instance-id="flower-anchor--repeat_p1" data-repeat-id="repeat_p1" data-repeat-shift="1"><ellipse id="repeat_p1--flower-anchor--flower_1" data-instance-id="repeat_p1--flower-anchor--flower_1" data-repeat-id="repeat_p1" data-repeat-shift="1" cx="1.259" cy="0.628" rx="0.1355" ry="0.2434" fill="#fff7fb" stroke="#ff0000" stroke-width="0.006" data-flower-id="flower_1"/><ellipse id="repeat_p1--flower-anchor--flower_2" data-instance-id="repeat_p1--flower-anchor--flower_2" data-repeat-id="repeat_p1" data-repeat-shift="1" cx="1.7472" cy="0.6368" rx="0.1335" ry="0.2574" fill="#fff7fb" stroke="#ff0000" stroke-width="0.006" data-flower-id="flower_2"/></g></g><g id="branches-layer" data-instance-id="branches-layer" data-role="branches"><g id="branches--repeat_m1" data-instance-id="branches--repeat_m1" data-repeat-id="repeat_m1" data-repeat-shift="-1"><path id="repeat_m1--curve--proto_sw_1_1__seed_1105195513__global_l1_flow_v3__density_medium__selected_l1_001.L1" data-instance-id="repeat_m1--curve--proto_sw_1_1__seed_1105195513__global_l1_flow_v3__density_medium__selected_l1_001.L1" data-repeat-id="repeat_m1" data-repeat-shift="-1" d="M -0.9628,0.3949 C -0.9792,0.4263 -1.0473,0.439 -1.0694,0.4317" fill="none" stroke="#ff9900" stroke-width="0.01" stroke-linejoin="round" stroke-linecap="round" data-role="primary_branch" data-level="L1" data-curve-id="proto_sw_1_1__seed_1105195513__global_l1_flow_v3__density_medium__selected_l1_001.L1" data-parent-curve-id="None" data-lane-id="selected_l1_001" data-unit-id="proto_sw_1_1__seed_1105195513__global_l1_flow_v3__density_medium__selected_l1_001__Y-2C__staggered_c__context_swapped__sample_0020"/><path id="repeat_m1--curve--proto_sw_1_1__seed_1105195513__global_l1_flow_v3__density_medium__selected_l1_001.L2.1" data-instance-id="repeat_m1--curve--proto_sw_1_1__seed_1105195513__global_l1_flow_v3__density_medium__selected_l1_001.L2.1" data-repeat-id="repeat_m1" data-repeat-shift="-1" d="M -0.9922,0.4197 C -0.9977,0.4407 -1.0009,0.4521 -1.015,0.4686" fill="none" stroke="#00ffff" stroke-width="0.007" stroke-linejoin="round" stroke-linecap="round" data-role="secondary_branch" data-level="L2" data-curve-id="proto_sw_1_1__seed_1105195513__global_l1_flow_v3__density_medium__selected_l1_001.L2.1" data-parent-curve-id="proto_sw_1_1__seed_1105195513__global_l1_flow_v3__density_medium__selected_l1_001.L1" data-lane-id="selected_l1_001" data-unit-id="proto_sw_1_1__seed_1105195513__global_l1_flow_v3__density_medium__selected_l1_001__Y-2C__staggered_c__context_swapped__sample_0020"/><path id="repeat_m1--curve--proto_sw_1_1__seed_1105195513__global_l1_flow_v3__density_medium__selected_l1_001.L2.2" data-instance-id="repeat_m1--curve--proto_sw_1_1__seed_1105195513__global_l1_flow_v3__density_medium__selected_l1_001.L2.2" data-repeat-id="repeat_m1" data-repeat-shift="-1" d="M -1.019,0.4291 C -1.0391,0.4173 -1.0457,0.412 -1.0688,0.4081" fill="none" stroke="#00ffff" stroke-width="0.007" stroke-linejoin="round" stroke-linecap="round" data-role="secondary_branch" data-level="L2" data-curve-id="proto_sw_1_1__seed_1105195513__global_l1_flow_v3__density_medium__selected_l1_001.L2.2" data-parent-curve-id="proto_sw_1_1__seed_1105195513__global_l1_flow_v3__density_medium__selected_l1_001.L1" data-lane-id="selected_l1_001" data-unit-id="proto_sw_1_1__seed_1105195513__global_l1_flow_v3__density_medium__selected_l1_001__Y-2C__staggered_c__context_swapped__sample_0020"/><path id="repeat_m1--curve--proto_sw_1_1__seed_1105195513__global_l1_flow_v3__density_medium__selected_l1_005.L1" data-instance-id="repeat_m1--curve--proto_sw_1_1__seed_1105195513__global_l1_flow_v3__density_medium__selected_l1_005.L1" data-repeat-id="repeat_m1" data-repeat-shift="-1" d="M -0.3228,1.0791 C -0.3961,1.0485 -0.3388,0.9159 -0.4432,0.855" fill="none" stroke="#ff9900" stroke-width="0.01" stroke-linejoin="round" stroke-linecap="round" data-role="primary_branch" data-level="L1" data-curve-id="proto_sw_1_1__seed_1105195513__global_l1_flow_v3__density_medium__selected_l1_005.L1" data-parent-curve-id="None" data-lane-id="selected_l1_005" data-unit-id="proto_sw_1_1__seed_1105195513__global_l1_flow_v3__density_medium__selected_l1_005__Y-2C__nested_s__context_swapped__sample_0110"/><path id="repeat_m1--curve--proto_sw_1_1__seed_1105195513__global_l1_flow_v3__density_medium__selected_l1_005.L2.1" data-instance-id="repeat_m1--curve--proto_sw_1_1__seed_1105195513__global_l1_flow_v3__density_medium__selected_l1_005.L2.1" data-repeat-id="repeat_m1" data-repeat-shift="-1" d="M -0.3635,1.0206 C -0.3814,1.0091 -0.3955,0.9925 -0.404,0.9731 C -0.4134,0.9519 -0.4262,0.9323 -0.442,0.9154" fill="none" stroke="#00ffff" stroke-width="0.007" stroke-linejoin="round" stroke-linecap="round" data-role="secondary_branch" data-level="L2" data-curve-id="proto_sw_1_1__seed_1105195513__global_l1_flow_v3__density_medium__selected_l1_005.L2.1" data-parent-curve-id="proto_sw_1_1__seed_1105195513__global_l1_flow_v3__density_medium__selected_l1_005.L1" data-lane-id="selected_l1_005" data-unit-id="proto_sw_1_1__seed_1105195513__global_l1_flow_v3__density_medium__selected_l1_005__Y-2C__nested_s__context_swapped__sample_0110"/><path id="repeat_m1--curve--proto_sw_1_1__seed_1105195513__global_l1_flow_v3__density_medium__selected_l1_005.L2.2" data-instance-id="repeat_m1--curve--proto_sw_1_1__seed_1105195513__global_l1_flow_v3__density_medium__selected_l1_005.L2.2" data-repeat-id="repeat_m1" data-repeat-shift="-1" d="M -0.3972,0.8996 C -0.3932,0.8756 -0.3957,0.851 -0.4045,0.8283 C -0.4117,0.8096 -0.416,0.7898 -0.4171,0.7697" fill="none" stroke="#00ffff" stroke-width="0.007" stroke-linejoin="round" stroke-linecap="round" data-role="secondary_branch" data-level="L2" data-curve-id="proto_sw_1_1__seed_1105195513__global_l1_flow_v3__density_medium__selected_l1_005.L2.2" data-parent-curve-id="proto_sw_1_1__seed_1105195513__global_l1_flow_v3__density_medium__selected_l1_005.L1" data-lane-id="selected_l1_005" data-unit-id="proto_sw_1_1__seed_1105195513__global_l1_flow_v3__density_medium__selected_l1_005__Y-2C__nested_s__context_swapped__sample_0110"/><path id="repeat_m1--curve--proto_sw_1_1__seed_1105195513__global_l1_flow_v3__density_medium__selected_l1_004.L1" data-instance-id="repeat_m1--curve--proto_sw_1_1__seed_1105195513__global_l1_flow_v3__density_medium__selected_l1_004.L1" data-repeat-id="repeat_m1" data-repeat-shift="-1" d="M -0.5831,0.3467 C -0.5931,0.2933 -0.5464,0.2525 -0.5227,0.2515" fill="none" stroke="#ff9900" stroke-width="0.01" stroke-linejoin="round" stroke-linecap="round" data-role="primary_branch" data-level="L1" data-curve-id="proto_sw_1_1__seed_1105195513__global_l1_flow_v3__density_medium__selected_l1_004.L1" data-parent-curve-id="None" data-lane-id="selected_l1_004" data-unit-id="proto_sw_1_1__seed_1105195513__global_l1_flow_v3__density_medium__selected_l1_004__L1-Only__independent_l1__context_preferred__sample_0075"/><path id="repeat_m1--curve--proto_sw_1_1__seed_1105195513__global_l1_flow_v3__density_medium__selected_l1_002.L1" data-instance-id="repeat_m1--curve--proto_sw_1_1__seed_1105195513__global_l1_flow_v3__density_medium__selected_l1_002.L1" data-repeat-id="repeat_m1" data-repeat-shift="-1" d="M -0.8929,0.1672 C -0.9778,0.2865 -1.0727,0.234 -1.1389,0.2322" fill="none" stroke="#ff9900" stroke-width="0.01" stroke-linejoin="round" stroke-linecap="round" data-role="primary_branch" data-level="L1" data-curve-id="proto_sw_1_1__seed_1105195513__global_l1_flow_v3__density_medium__selected_l1_002.L1" data-parent-curve-id="None" data-lane-id="selected_l1_002" data-unit-id="proto_sw_1_1__seed_1105195513__global_l1_flow_v3__density_medium__selected_l1_002__L1-Only__independent_l1__context_preferred__sample_0025"/><path id="repeat_m1--curve--proto_sw_1_1__seed_1105195513__global_l1_flow_v3__density_medium__selected_l1_003.L1" data-instance-id="repeat_m1--curve--proto_sw_1_1__seed_1105195513__global_l1_flow_v3__density_medium__selected_l1_003.L1" data-repeat-id="repeat_m1" data-repeat-shift="-1" d="M -0.7254,0.1341 C -0.6394,0.1885 -0.5269,0.0998 -0.4726,0.1052" fill="none" stroke="#ff9900" stroke-width="0.01" stroke-linejoin="round" stroke-linecap="round" data-role="primary_branch" data-level="L1" data-curve-id="proto_sw_1_1__seed_1105195513__global_l1_flow_v3__density_medium__selected_l1_003.L1" data-parent-curve-id="None" data-lane-id="selected_l1_003" data-unit-id="proto_sw_1_1__seed_1105195513__global_l1_flow_v3__density_medium__selected_l1_003__L1-Only__independent_l1__context_preferred__sample_0050"/></g><g id="branches--repeat_0" data-instance-id="branches--repeat_0" data-repeat-id="repeat_0" data-repeat-shift="0"><path id="repeat_0--curve--proto_sw_1_1__seed_1105195513__global_l1_flow_v3__density_medium__selected_l1_001.L1" data-instance-id="repeat_0--curve--proto_sw_1_1__seed_1105195513__global_l1_flow_v3__density_medium__selected_l1_001.L1" data-repeat-id="repeat_0" data-repeat-shift="0" d="M 0.0372,0.3949 C 0.0208,0.4263 -0.0473,0.439 -0.0694,0.4317" fill="none" stroke="#ff9900" stroke-width="0.01" stroke-linejoin="round" stroke-linecap="round" data-role="primary_branch" data-level="L1" data-curve-id="proto_sw_1_1__seed_1105195513__global_l1_flow_v3__density_medium__selected_l1_001.L1" data-parent-curve-id="None" data-lane-id="selected_l1_001" data-unit-id="proto_sw_1_1__seed_1105195513__global_l1_flow_v3__density_medium__selected_l1_001__Y-2C__staggered_c__context_swapped__sample_0020"/><path id="repeat_0--curve--proto_sw_1_1__seed_1105195513__global_l1_flow_v3__density_medium__selected_l1_001.L2.1" data-instance-id="repeat_0--curve--proto_sw_1_1__seed_1105195513__global_l1_flow_v3__density_medium__selected_l1_001.L2.1" data-repeat-id="repeat_0" data-repeat-shift="0" d="M 0.0078,0.4197 C 0.0023,0.4407 -0.0009,0.4521 -0.015,0.4686" fill="none" stroke="#00ffff" stroke-width="0.007" stroke-linejoin="round" stroke-linecap="round" data-role="secondary_branch" data-level="L2" data-curve-id="proto_sw_1_1__seed_1105195513__global_l1_flow_v3__density_medium__selected_l1_001.L2.1" data-parent-curve-id="proto_sw_1_1__seed_1105195513__global_l1_flow_v3__density_medium__selected_l1_001.L1" data-lane-id="selected_l1_001" data-unit-id="proto_sw_1_1__seed_1105195513__global_l1_flow_v3__density_medium__selected_l1_001__Y-2C__staggered_c__context_swapped__sample_0020"/><path id="repeat_0--curve--proto_sw_1_1__seed_1105195513__global_l1_flow_v3__density_medium__selected_l1_001.L2.2" data-instance-id="repeat_0--curve--proto_sw_1_1__seed_1105195513__global_l1_flow_v3__density_medium__selected_l1_001.L2.2" data-repeat-id="repeat_0" data-repeat-shift="0" d="M -0.019,0.4291 C -0.0391,0.4173 -0.0457,0.412 -0.0688,0.4081" fill="none" stroke="#00ffff" stroke-width="0.007" stroke-linejoin="round" stroke-linecap="round" data-role="secondary_branch" data-level="L2" data-curve-id="proto_sw_1_1__seed_1105195513__global_l1_flow_v3__density_medium__selected_l1_001.L2.2" data-parent-curve-id="proto_sw_1_1__seed_1105195513__global_l1_flow_v3__density_medium__selected_l1_001.L1" data-lane-id="selected_l1_001" data-unit-id="proto_sw_1_1__seed_1105195513__global_l1_flow_v3__density_medium__selected_l1_001__Y-2C__staggered_c__context_swapped__sample_0020"/><path id="repeat_0--curve--proto_sw_1_1__seed_1105195513__global_l1_flow_v3__density_medium__selected_l1_005.L1" data-instance-id="repeat_0--curve--proto_sw_1_1__seed_1105195513__global_l1_flow_v3__density_medium__selected_l1_005.L1" data-repeat-id="repeat_0" data-repeat-shift="0" d="M 0.6772,1.0791 C 0.6039,1.0485 0.6612,0.9159 0.5568,0.855" fill="none" stroke="#ff9900" stroke-width="0.01" stroke-linejoin="round" stroke-linecap="round" data-role="primary_branch" data-level="L1" data-curve-id="proto_sw_1_1__seed_1105195513__global_l1_flow_v3__density_medium__selected_l1_005.L1" data-parent-curve-id="None" data-lane-id="selected_l1_005" data-unit-id="proto_sw_1_1__seed_1105195513__global_l1_flow_v3__density_medium__selected_l1_005__Y-2C__nested_s__context_swapped__sample_0110"/><path id="repeat_0--curve--proto_sw_1_1__seed_1105195513__global_l1_flow_v3__density_medium__selected_l1_005.L2.1" data-instance-id="repeat_0--curve--proto_sw_1_1__seed_1105195513__global_l1_flow_v3__density_medium__selected_l1_005.L2.1" data-repeat-id="repeat_0" data-repeat-shift="0" d="M 0.6365,1.0206 C 0.6186,1.0091 0.6045,0.9925 0.596,0.9731 C 0.5866,0.9519 0.5738,0.9323 0.558,0.9154" fill="none" stroke="#00ffff" stroke-width="0.007" stroke-linejoin="round" stroke-linecap="round" data-role="secondary_branch" data-level="L2" data-curve-id="proto_sw_1_1__seed_1105195513__global_l1_flow_v3__density_medium__selected_l1_005.L2.1" data-parent-curve-id="proto_sw_1_1__seed_1105195513__global_l1_flow_v3__density_medium__selected_l1_005.L1" data-lane-id="selected_l1_005" data-unit-id="proto_sw_1_1__seed_1105195513__global_l1_flow_v3__density_medium__selected_l1_005__Y-2C__nested_s__context_swapped__sample_0110"/><path id="repeat_0--curve--proto_sw_1_1__seed_1105195513__global_l1_flow_v3__density_medium__selected_l1_005.L2.2" data-instance-id="repeat_0--curve--proto_sw_1_1__seed_1105195513__global_l1_flow_v3__density_medium__selected_l1_005.L2.2" data-repeat-id="repeat_0" data-repeat-shift="0" d="M 0.6028,0.8996 C 0.6068,0.8756 0.6043,0.851 0.5955,0.8283 C 0.5883,0.8096 0.584,0.7898 0.5829,0.7697" fill="none" stroke="#00ffff" stroke-width="0.007" stroke-linejoin="round" stroke-linecap="round" data-role="secondary_branch" data-level="L2" data-curve-id="proto_sw_1_1__seed_1105195513__global_l1_flow_v3__density_medium__selected_l1_005.L2.2" data-parent-curve-id="proto_sw_1_1__seed_1105195513__global_l1_flow_v3__density_medium__selected_l1_005.L1" data-lane-id="selected_l1_005" data-unit-id="proto_sw_1_1__seed_1105195513__global_l1_flow_v3__density_medium__selected_l1_005__Y-2C__nested_s__context_swapped__sample_0110"/><path id="repeat_0--curve--proto_sw_1_1__seed_1105195513__global_l1_flow_v3__density_medium__selected_l1_004.L1" data-instance-id="repeat_0--curve--proto_sw_1_1__seed_1105195513__global_l1_flow_v3__density_medium__selected_l1_004.L1" data-repeat-id="repeat_0" data-repeat-shift="0" d="M 0.4169,0.3467 C 0.4069,0.2933 0.4536,0.2525 0.4773,0.2515" fill="none" stroke="#ff9900" stroke-width="0.01" stroke-linejoin="round" stroke-linecap="round" data-role="primary_branch" data-level="L1" data-curve-id="proto_sw_1_1__seed_1105195513__global_l1_flow_v3__density_medium__selected_l1_004.L1" data-parent-curve-id="None" data-lane-id="selected_l1_004" data-unit-id="proto_sw_1_1__seed_1105195513__global_l1_flow_v3__density_medium__selected_l1_004__L1-Only__independent_l1__context_preferred__sample_0075"/><path id="repeat_0--curve--proto_sw_1_1__seed_1105195513__global_l1_flow_v3__density_medium__selected_l1_002.L1" data-instance-id="repeat_0--curve--proto_sw_1_1__seed_1105195513__global_l1_flow_v3__density_medium__selected_l1_002.L1" data-repeat-id="repeat_0" data-repeat-shift="0" d="M 0.1071,0.1672 C 0.0222,0.2865 -0.0727,0.234 -0.1389,0.2322" fill="none" stroke="#ff9900" stroke-width="0.01" stroke-linejoin="round" stroke-linecap="round" data-role="primary_branch" data-level="L1" data-curve-id="proto_sw_1_1__seed_1105195513__global_l1_flow_v3__density_medium__selected_l1_002.L1" data-parent-curve-id="None" data-lane-id="selected_l1_002" data-unit-id="proto_sw_1_1__seed_1105195513__global_l1_flow_v3__density_medium__selected_l1_002__L1-Only__independent_l1__context_preferred__sample_0025"/><path id="repeat_0--curve--proto_sw_1_1__seed_1105195513__global_l1_flow_v3__density_medium__selected_l1_003.L1" data-instance-id="repeat_0--curve--proto_sw_1_1__seed_1105195513__global_l1_flow_v3__density_medium__selected_l1_003.L1" data-repeat-id="repeat_0" data-repeat-shift="0" d="M 0.2746,0.1341 C 0.3606,0.1885 0.4731,0.0998 0.5274,0.1052" fill="none" stroke="#ff9900" stroke-width="0.01" stroke-linejoin="round" stroke-linecap="round" data-role="primary_branch" data-level="L1" data-curve-id="proto_sw_1_1__seed_1105195513__global_l1_flow_v3__density_medium__selected_l1_003.L1" data-parent-curve-id="None" data-lane-id="selected_l1_003" data-unit-id="proto_sw_1_1__seed_1105195513__global_l1_flow_v3__density_medium__selected_l1_003__L1-Only__independent_l1__context_preferred__sample_0050"/></g><g id="branches--repeat_p1" data-instance-id="branches--repeat_p1" data-repeat-id="repeat_p1" data-repeat-shift="1"><path id="repeat_p1--curve--proto_sw_1_1__seed_1105195513__global_l1_flow_v3__density_medium__selected_l1_001.L1" data-instance-id="repeat_p1--curve--proto_sw_1_1__seed_1105195513__global_l1_flow_v3__density_medium__selected_l1_001.L1" data-repeat-id="repeat_p1" data-repeat-shift="1" d="M 1.0372,0.3949 C 1.0208,0.4263 0.9527,0.439 0.9306,0.4317" fill="none" stroke="#ff9900" stroke-width="0.01" stroke-linejoin="round" stroke-linecap="round" data-role="primary_branch" data-level="L1" data-curve-id="proto_sw_1_1__seed_1105195513__global_l1_flow_v3__density_medium__selected_l1_001.L1" data-parent-curve-id="None" data-lane-id="selected_l1_001" data-unit-id="proto_sw_1_1__seed_1105195513__global_l1_flow_v3__density_medium__selected_l1_001__Y-2C__staggered_c__context_swapped__sample_0020"/><path id="repeat_p1--curve--proto_sw_1_1__seed_1105195513__global_l1_flow_v3__density_medium__selected_l1_001.L2.1" data-instance-id="repeat_p1--curve--proto_sw_1_1__seed_1105195513__global_l1_flow_v3__density_medium__selected_l1_001.L2.1" data-repeat-id="repeat_p1" data-repeat-shift="1" d="M 1.0078,0.4197 C 1.0023,0.4407 0.9991,0.4521 0.985,0.4686" fill="none" stroke="#00ffff" stroke-width="0.007" stroke-linejoin="round" stroke-linecap="round" data-role="secondary_branch" data-level="L2" data-curve-id="proto_sw_1_1__seed_1105195513__global_l1_flow_v3__density_medium__selected_l1_001.L2.1" data-parent-curve-id="proto_sw_1_1__seed_1105195513__global_l1_flow_v3__density_medium__selected_l1_001.L1" data-lane-id="selected_l1_001" data-unit-id="proto_sw_1_1__seed_1105195513__global_l1_flow_v3__density_medium__selected_l1_001__Y-2C__staggered_c__context_swapped__sample_0020"/><path id="repeat_p1--curve--proto_sw_1_1__seed_1105195513__global_l1_flow_v3__density_medium__selected_l1_001.L2.2" data-instance-id="repeat_p1--curve--proto_sw_1_1__seed_1105195513__global_l1_flow_v3__density_medium__selected_l1_001.L2.2" data-repeat-id="repeat_p1" data-repeat-shift="1" d="M 0.981,0.4291 C 0.9609,0.4173 0.9543,0.412 0.9312,0.4081" fill="none" stroke="#00ffff" stroke-width="0.007" stroke-linejoin="round" stroke-linecap="round" data-role="secondary_branch" data-level="L2" data-curve-id="proto_sw_1_1__seed_1105195513__global_l1_flow_v3__density_medium__selected_l1_001.L2.2" data-parent-curve-id="proto_sw_1_1__seed_1105195513__global_l1_flow_v3__density_medium__selected_l1_001.L1" data-lane-id="selected_l1_001" data-unit-id="proto_sw_1_1__seed_1105195513__global_l1_flow_v3__density_medium__selected_l1_001__Y-2C__staggered_c__context_swapped__sample_0020"/><path id="repeat_p1--curve--proto_sw_1_1__seed_1105195513__global_l1_flow_v3__density_medium__selected_l1_005.L1" data-instance-id="repeat_p1--curve--proto_sw_1_1__seed_1105195513__global_l1_flow_v3__density_medium__selected_l1_005.L1" data-repeat-id="repeat_p1" data-repeat-shift="1" d="M 1.6772,1.0791 C 1.6039,1.0485 1.6612,0.9159 1.5568,0.855" fill="none" stroke="#ff9900" stroke-width="0.01" stroke-linejoin="round" stroke-linecap="round" data-role="primary_branch" data-level="L1" data-curve-id="proto_sw_1_1__seed_1105195513__global_l1_flow_v3__density_medium__selected_l1_005.L1" data-parent-curve-id="None" data-lane-id="selected_l1_005" data-unit-id="proto_sw_1_1__seed_1105195513__global_l1_flow_v3__density_medium__selected_l1_005__Y-2C__nested_s__context_swapped__sample_0110"/><path id="repeat_p1--curve--proto_sw_1_1__seed_1105195513__global_l1_flow_v3__density_medium__selected_l1_005.L2.1" data-instance-id="repeat_p1--curve--proto_sw_1_1__seed_1105195513__global_l1_flow_v3__density_medium__selected_l1_005.L2.1" data-repeat-id="repeat_p1" data-repeat-shift="1" d="M 1.6365,1.0206 C 1.6186,1.0091 1.6045,0.9925 1.596,0.9731 C 1.5866,0.9519 1.5738,0.9323 1.558,0.9154" fill="none" stroke="#00ffff" stroke-width="0.007" stroke-linejoin="round" stroke-linecap="round" data-role="secondary_branch" data-level="L2" data-curve-id="proto_sw_1_1__seed_1105195513__global_l1_flow_v3__density_medium__selected_l1_005.L2.1" data-parent-curve-id="proto_sw_1_1__seed_1105195513__global_l1_flow_v3__density_medium__selected_l1_005.L1" data-lane-id="selected_l1_005" data-unit-id="proto_sw_1_1__seed_1105195513__global_l1_flow_v3__density_medium__selected_l1_005__Y-2C__nested_s__context_swapped__sample_0110"/><path id="repeat_p1--curve--proto_sw_1_1__seed_1105195513__global_l1_flow_v3__density_medium__selected_l1_005.L2.2" data-instance-id="repeat_p1--curve--proto_sw_1_1__seed_1105195513__global_l1_flow_v3__density_medium__selected_l1_005.L2.2" data-repeat-id="repeat_p1" data-repeat-shift="1" d="M 1.6028,0.8996 C 1.6068,0.8756 1.6043,0.851 1.5955,0.8283 C 1.5883,0.8096 1.584,0.7898 1.5829,0.7697" fill="none" stroke="#00ffff" stroke-width="0.007" stroke-linejoin="round" stroke-linecap="round" data-role="secondary_branch" data-level="L2" data-curve-id="proto_sw_1_1__seed_1105195513__global_l1_flow_v3__density_medium__selected_l1_005.L2.2" data-parent-curve-id="proto_sw_1_1__seed_1105195513__global_l1_flow_v3__density_medium__selected_l1_005.L1" data-lane-id="selected_l1_005" data-unit-id="proto_sw_1_1__seed_1105195513__global_l1_flow_v3__density_medium__selected_l1_005__Y-2C__nested_s__context_swapped__sample_0110"/><path id="repeat_p1--curve--proto_sw_1_1__seed_1105195513__global_l1_flow_v3__density_medium__selected_l1_004.L1" data-instance-id="repeat_p1--curve--proto_sw_1_1__seed_1105195513__global_l1_flow_v3__density_medium__selected_l1_004.L1" data-repeat-id="repeat_p1" data-repeat-shift="1" d="M 1.4169,0.3467 C 1.4069,0.2933 1.4536,0.2525 1.4773,0.2515" fill="none" stroke="#ff9900" stroke-width="0.01" stroke-linejoin="round" stroke-linecap="round" data-role="primary_branch" data-level="L1" data-curve-id="proto_sw_1_1__seed_1105195513__global_l1_flow_v3__density_medium__selected_l1_004.L1" data-parent-curve-id="None" data-lane-id="selected_l1_004" data-unit-id="proto_sw_1_1__seed_1105195513__global_l1_flow_v3__density_medium__selected_l1_004__L1-Only__independent_l1__context_preferred__sample_0075"/><path id="repeat_p1--curve--proto_sw_1_1__seed_1105195513__global_l1_flow_v3__density_medium__selected_l1_002.L1" data-instance-id="repeat_p1--curve--proto_sw_1_1__seed_1105195513__global_l1_flow_v3__density_medium__selected_l1_002.L1" data-repeat-id="repeat_p1" data-repeat-shift="1" d="M 1.1071,0.1672 C 1.0222,0.2865 0.9273,0.234 0.8611,0.2322" fill="none" stroke="#ff9900" stroke-width="0.01" stroke-linejoin="round" stroke-linecap="round" data-role="primary_branch" data-level="L1" data-curve-id="proto_sw_1_1__seed_1105195513__global_l1_flow_v3__density_medium__selected_l1_002.L1" data-parent-curve-id="None" data-lane-id="selected_l1_002" data-unit-id="proto_sw_1_1__seed_1105195513__global_l1_flow_v3__density_medium__selected_l1_002__L1-Only__independent_l1__context_preferred__sample_0025"/><path id="repeat_p1--curve--proto_sw_1_1__seed_1105195513__global_l1_flow_v3__density_medium__selected_l1_003.L1" data-instance-id="repeat_p1--curve--proto_sw_1_1__seed_1105195513__global_l1_flow_v3__density_medium__selected_l1_003.L1" data-repeat-id="repeat_p1" data-repeat-shift="1" d="M 1.2746,0.1341 C 1.3606,0.1885 1.4731,0.0998 1.5274,0.1052" fill="none" stroke="#ff9900" stroke-width="0.01" stroke-linejoin="round" stroke-linecap="round" data-role="primary_branch" data-level="L1" data-curve-id="proto_sw_1_1__seed_1105195513__global_l1_flow_v3__density_medium__selected_l1_003.L1" data-parent-curve-id="None" data-lane-id="selected_l1_003" data-unit-id="proto_sw_1_1__seed_1105195513__global_l1_flow_v3__density_medium__selected_l1_003__L1-Only__independent_l1__context_preferred__sample_0050"/></g></g></svg>