<?xml version="1.0" encoding="UTF-8"?>
<svg xmlns="http://www.w3.org/2000/svg" width="1800" height="720" viewBox="0 0 1800 720">
<rect width="100%" height="100%" fill="#f2f0ea"/>
<text x="34" y="48" font-family="Microsoft YaHei, sans-serif" font-size="23" font-weight="700" fill="#17212a">阶段4 v1 · 三联repeat · proto_sw_2_3 · seed 4103</text>
<g data-layer="three-repeat-bezier-skeleton">
<polyline points="238.252,394.091 244.229,395.819 250.077,397.947 255.837,400.305 261.522,402.836 267.142,405.511 272.706,408.300 278.215,411.196 283.679,414.176 289.094,417.245 294.467,420.386 299.801,423.593 305.097,426.861 310.359,430.186 315.455,433.747 321.125,436.227 327.296,436.908 333.486,436.335 339.555,434.973 345.470,433.042 351.249,430.736 356.888,428.103 362.417,425.247 367.846,422.204 373.187,419.010 378.451,415.689 383.638,412.250 388.752,408.702 393.813,405.081 398.833,401.401 403.780,397.624 408.778,393.917 413.835,390.289 419.150,387.054 424.612,384.083 430.243,381.437 436.092,379.311 442.088,377.659 448.195,376.499 454.379,375.872 460.596,375.801 466.796,376.287 472.932,377.311 478.964,378.836 484.864,380.816 490.613,383.200 496.199,385.946 501.626,388.992 506.902,392.293 512.037,395.809 517.046,399.503 521.946,403.340 526.755,407.291 531.501,411.318 536.223,415.373 540.968,419.399 545.819,423.298 550.952,426.811 556.728,429.023 562.736,430.619 568.549,432.840 574.414,434.916 580.501,436.169 586.713,436.218 592.838,435.162 598.753,433.241 604.448,430.737 609.940,427.814 615.270,424.601 620.454,421.158 625.513,417.532 630.466,413.763 635.329,409.879 640.119,405.905 644.986,402.032 650.199,398.634 655.677,395.683 661.428,393.316 667.467,391.848 673.664,391.852 679.417,394.091" fill="none" stroke="#18232c" stroke-width="6"/>
<path d="M 267.142,405.511 C 270.865,407.326 252.745,489.495 247.146,522.156" fill="none" stroke="#138a70" stroke-width="5" stroke-linecap="round"/>
<path d="M 356.888,428.103 C 360.831,426.124 338.455,327.704 331.287,288.659" fill="none" stroke="#286bc0" stroke-width="5" stroke-linecap="round"/>
<path d="M 550.952,426.811 C 554.682,429.167 625.682,360.801 654.744,335.131" fill="none" stroke="#138a70" stroke-width="5" stroke-linecap="round"/>
<path d="M 625.513,417.532 C 622.119,419.967 654.033,498.597 665.124,530.122" fill="none" stroke="#286bc0" stroke-width="5" stroke-linecap="round"/>
<ellipse cx="454.601" cy="418.815" rx="67.571" ry="115.041" fill="#fff8fb" stroke="#b12f70" stroke-width="3"/>
<polyline points="679.417,394.091 685.394,395.819 691.242,397.947 697.002,400.305 702.687,402.836 708.307,405.511 713.871,408.300 719.380,411.196 724.844,414.176 730.259,417.245 735.632,420.386 740.966,423.593 746.263,426.861 751.524,430.186 756.620,433.747 762.291,436.227 768.461,436.908 774.651,436.335 780.720,434.973 786.635,433.042 792.414,430.736 798.054,428.103 803.582,425.247 809.011,422.204 814.352,419.010 819.616,415.689 824.803,412.250 829.917,408.702 834.978,405.081 839.998,401.401 844.945,397.624 849.943,393.917 855.000,390.289 860.315,387.054 865.777,384.083 871.408,381.437 877.258,379.311 883.253,377.659 889.360,376.499 895.544,375.872 901.761,375.801 907.961,376.287 914.097,377.311 920.129,378.836 926.029,380.816 931.778,383.200 937.364,385.946 942.791,388.992 948.067,392.293 953.202,395.809 958.211,399.503 963.111,403.340 967.920,407.291 972.666,411.318 977.388,415.373 982.133,419.399 986.984,423.298 992.117,426.811 997.893,429.023 1003.901,430.619 1009.714,432.840 1015.579,434.916 1021.666,436.169 1027.878,436.218 1034.003,435.162 1039.918,433.241 1045.613,430.737 1051.106,427.814 1056.435,424.601 1061.619,421.158 1066.678,417.532 1071.631,413.763 1076.494,409.879 1081.284,405.905 1086.152,402.032 1091.364,398.634 1096.842,395.683 1102.594,393.316 1108.632,391.848 1114.829,391.852 1120.583,394.091" fill="none" stroke="#18232c" stroke-width="6"/>
<path d="M 708.307,405.511 C 712.030,407.326 693.910,489.495 688.311,522.156" fill="none" stroke="#138a70" stroke-width="5" stroke-linecap="round"/>
<path d="M 798.054,428.103 C 801.996,426.124 779.620,327.704 772.452,288.659" fill="none" stroke="#286bc0" stroke-width="5" stroke-linecap="round"/>
<path d="M 992.117,426.811 C 995.847,429.167 1066.847,360.801 1095.909,335.131" fill="none" stroke="#138a70" stroke-width="5" stroke-linecap="round"/>
<path d="M 1066.678,417.532 C 1063.284,419.967 1095.198,498.597 1106.290,530.122" fill="none" stroke="#286bc0" stroke-width="5" stroke-linecap="round"/>
<ellipse cx="895.766" cy="418.815" rx="67.571" ry="115.041" fill="#fff8fb" stroke="#b12f70" stroke-width="3"/>
<polyline points="1120.583,394.091 1126.559,395.819 1132.407,397.947 1138.167,400.305 1143.852,402.836 1149.472,405.511 1155.036,408.300 1160.545,411.196 1166.009,414.176 1171.424,417.245 1176.797,420.386 1182.131,423.593 1187.428,426.861 1192.689,430.186 1197.785,433.747 1203.456,436.227 1209.626,436.908 1215.816,436.335 1221.885,434.973 1227.800,433.042 1233.580,430.736 1239.219,428.103 1244.747,425.247 1250.176,422.204 1255.517,419.010 1260.781,415.689 1265.968,412.250 1271.082,408.702 1276.144,405.081 1281.163,401.401 1286.110,397.624 1291.108,393.917 1296.165,390.289 1301.480,387.054 1306.942,384.083 1312.573,381.437 1318.423,379.311 1324.418,377.659 1330.525,376.499 1336.709,375.872 1342.926,375.801 1349.126,376.287 1355.262,377.311 1361.294,378.836 1367.194,380.816 1372.943,383.200 1378.529,385.946 1383.956,388.992 1389.232,392.293 1394.367,395.809 1399.376,399.503 1404.276,403.340 1409.085,407.291 1413.831,411.318 1418.553,415.373 1423.299,419.399 1428.149,423.298 1433.282,426.811 1439.058,429.023 1445.066,430.619 1450.880,432.840 1456.744,434.916 1462.831,436.169 1469.043,436.218 1475.168,435.162 1481.083,433.241 1486.778,430.737 1492.271,427.814 1497.600,424.601 1502.784,421.158 1507.843,417.532 1512.796,413.763 1517.659,409.879 1522.449,405.905 1527.317,402.032 1532.529,398.634 1538.007,395.683 1543.759,393.316 1549.797,391.848 1555.994,391.852 1561.748,394.091" fill="none" stroke="#18232c" stroke-width="6"/>
<path d="M 1149.472,405.511 C 1153.195,407.326 1135.075,489.495 1129.476,522.156" fill="none" stroke="#138a70" stroke-width="5" stroke-linecap="round"/>
<path d="M 1239.219,428.103 C 1243.161,426.124 1220.785,327.704 1213.617,288.659" fill="none" stroke="#286bc0" stroke-width="5" stroke-linecap="round"/>
<path d="M 1433.282,426.811 C 1437.012,429.167 1508.012,360.801 1537.074,335.131" fill="none" stroke="#138a70" stroke-width="5" stroke-linecap="round"/>
<path d="M 1507.843,417.532 C 1504.449,419.967 1536.363,498.597 1547.455,530.122" fill="none" stroke="#286bc0" stroke-width="5" stroke-linecap="round"/>
<ellipse cx="1336.931" cy="418.815" rx="67.571" ry="115.041" fill="#fff8fb" stroke="#b12f70" stroke-width="3"/>
</g>
<metadata data-stage="4" data-view="three_repeat" data-issue-count="0"/>
</svg>
