<svg xmlns="http://www.w3.org/2000/svg" id="structural-svg--proto_sw_1_1--production-seed-100004" data-prototype-id="proto_sw_1_1" data-production-seed="100004" data-backbone-seed="1033296627" data-flower-seed="2761789635" data-branch-seed="3906224916" data-unit-seed="1967235406" data-backbone-variant-id="swept" data-density-level="medium" data-source-case="C015" data-source-contract-id="FixedSlot" data-source-plan-id="proto_sw_1_1__seed_3906224916__global_l1_flow_v3__density_medium__baseline_fixedslot" data-source-selection-id="proto_sw_1_1__seed_3906224916__global_l1_flow_v3__density_medium__baseline_fixedslot__unit_candidates_v2__global_unit_selection_joint_h2b" data-repeat-mode="triple" viewBox="-1.08 0 3.16 1.1875" width="3160" height="1188"><rect x="-1.08" y="0" width="3.16" height="1.1875" fill="#f1efe9"/><metadata>role_color_identity_v2: backbone=#0000ff; primary_branch=#ff9900; secondary_branch=#00ffff; flower_support=#007800; flower_anchor=#ff0000; unit_boundary=#000000(dashed). data-role is authoritative; stroke color is a visual fallback.</metadata><g id="unit-boundaries" data-instance-id="unit-boundaries" data-role="unit_boundary"><line id="unit-boundary--00" data-instance-id="unit-boundary--00" data-boundary-x="-1" x1="-1" y1="0" x2="-1" y2="1.1875" stroke="#000000" stroke-dasharray="0.012 0.008" stroke-width="0.004"/><line id="unit-boundary--01" data-instance-id="unit-boundary--01" data-boundary-x="0" x1="0" y1="0" x2="0" y2="1.1875" stroke="#000000" stroke-dasharray="0.012 0.008" stroke-width="0.004"/><line id="unit-boundary--02" data-instance-id="unit-boundary--02" data-boundary-x="1" x1="1" y1="0" x2="1" y2="1.1875" stroke="#000000" stroke-dasharray="0.012 0.008" stroke-width="0.004"/><line id="unit-boundary--03" data-instance-id="unit-boundary--03" data-boundary-x="2" x1="2" y1="0" x2="2" y2="1.1875" stroke="#000000" stroke-dasharray="0.012 0.008" stroke-width="0.004"/></g><g id="backbone-layer" data-instance-id="backbone-layer" data-role="backbone"><g id="backbone--repeat_m1" data-instance-id="backbone--repeat_m1" data-repeat-id="repeat_m1" data-repeat-shift="-1"><polyline points="-1,0.6108 -0.9966,0.5835 -0.9926,0.5557 -0.9882,0.5274 -0.9833,0.4985 -0.978,0.4689 -0.9723,0.4386 -0.9661,0.4075 -0.9594,0.3755 -0.9521,0.3426 -0.9441,0.3087 -0.9353,0.274 -0.9257,0.2384 -0.9151,0.2023 -0.9032,0.1663 -0.8897,0.1314 -0.8741,0.0997 -0.8561,0.0776 -0.835,0.0705 -0.8099,0.0797 -0.782,0.0972 -0.7537,0.1212 -0.7264,0.1501 -0.7006,0.1823 -0.6766,0.2163 -0.6547,0.2513 -0.635,0.2865 -0.6171,0.3217 -0.6013,0.3565 -0.587,0.3908 -0.5743,0.4248 -0.563,0.4581 -0.553,0.4906 -0.5442,0.5223 -0.5368,0.5535 -0.5315,0.584 -0.5271,0.6142 -0.5227,0.6439 -0.5183,0.6733 -0.5139,0.7025 -0.5094,0.7315 -0.505,0.7602 -0.5006,0.7887 -0.4962,0.8169 -0.4918,0.8449 -0.4874,0.8725 -0.483,0.8999 -0.4777,0.9267 -0.4714,0.953 -0.4641,0.9785 -0.4559,1.0031 -0.4466,1.0262 -0.4361,1.047 -0.424,1.0652 -0.4104,1.08 -0.3948,1.0903 -0.3771,1.0954 -0.3565,1.096 -0.3332,1.0925 -0.3074,1.0855 -0.2794,1.0757 -0.2509,1.0636 -0.2228,1.0462 -0.1956,1.0252 -0.1696,1.0023 -0.1486,0.9793 -0.132,0.9561 -0.1169,0.9327 -0.1031,0.9091 -0.0903,0.8854 -0.0785,0.8616 -0.0676,0.8376 -0.0575,0.8135 -0.0481,0.7891 -0.0395,0.7646 -0.0315,0.7398 -0.0241,0.7147 -0.0173,0.6893 -0.011,0.6635 -0.0053,0.6374 0,0.6108" fill="none" id="repeat_m1--backbone" data-instance-id="repeat_m1--backbone" data-repeat-id="repeat_m1" data-repeat-shift="-1" stroke="#0000ff" stroke-width="0.007" stroke-linejoin="round" stroke-linecap="round"/></g><g id="backbone--repeat_0" data-instance-id="backbone--repeat_0" data-repeat-id="repeat_0" data-repeat-shift="0"><polyline points="0,0.6108 0.0034,0.5835 0.0074,0.5557 0.0118,0.5274 0.0167,0.4985 0.022,0.4689 0.0277,0.4386 0.0339,0.4075 0.0406,0.3755 0.0479,0.3426 0.0559,0.3087 0.0647,0.274 0.0743,0.2384 0.0849,0.2023 0.0968,0.1663 0.1103,0.1314 0.1259,0.0997 0.1439,0.0776 0.165,0.0705 0.1901,0.0797 0.218,0.0972 0.2463,0.1212 0.2736,0.1501 0.2994,0.1823 0.3234,0.2163 0.3453,0.2513 0.365,0.2865 0.3829,0.3217 0.3987,0.3565 0.413,0.3908 0.4257,0.4248 0.437,0.4581 0.447,0.4906 0.4558,0.5223 0.4632,0.5535 0.4685,0.584 0.4729,0.6142 0.4773,0.6439 0.4817,0.6733 0.4861,0.7025 0.4906,0.7315 0.495,0.7602 0.4994,0.7887 0.5038,0.8169 0.5082,0.8449 0.5126,0.8725 0.517,0.8999 0.5223,0.9267 0.5286,0.953 0.5359,0.9785 0.5441,1.0031 0.5534,1.0262 0.5639,1.047 0.576,1.0652 0.5896,1.08 0.6052,1.0903 0.6229,1.0954 0.6435,1.096 0.6668,1.0925 0.6926,1.0855 0.7206,1.0757 0.7491,1.0636 0.7772,1.0462 0.8044,1.0252 0.8304,1.0023 0.8514,0.9793 0.868,0.9561 0.8831,0.9327 0.8969,0.9091 0.9097,0.8854 0.9215,0.8616 0.9324,0.8376 0.9425,0.8135 0.9519,0.7891 0.9605,0.7646 0.9685,0.7398 0.9759,0.7147 0.9827,0.6893 0.989,0.6635 0.9947,0.6374 1,0.6108" fill="none" id="repeat_0--backbone" data-instance-id="repeat_0--backbone" data-repeat-id="repeat_0" data-repeat-shift="0" stroke="#0000ff" stroke-width="0.014" stroke-linejoin="round" stroke-linecap="round"/></g><g id="backbone--repeat_p1" data-instance-id="backbone--repeat_p1" data-repeat-id="repeat_p1" data-repeat-shift="1"><polyline points="1,0.6108 1.0034,0.5835 1.0074,0.5557 1.0118,0.5274 1.0167,0.4985 1.022,0.4689 1.0277,0.4386 1.0339,0.4075 1.0406,0.3755 1.0479,0.3426 1.0559,0.3087 1.0647,0.274 1.0743,0.2384 1.0849,0.2023 1.0968,0.1663 1.1103,0.1314 1.1259,0.0997 1.1439,0.0776 1.165,0.0705 1.1901,0.0797 1.218,0.0972 1.2463,0.1212 1.2736,0.1501 1.2994,0.1823 1.3234,0.2163 1.3453,0.2513 1.365,0.2865 1.3829,0.3217 1.3987,0.3565 1.413,0.3908 1.4257,0.4248 1.437,0.4581 1.447,0.4906 1.4558,0.5223 1.4632,0.5535 1.4685,0.584 1.4729,0.6142 1.4773,0.6439 1.4817,0.6733 1.4861,0.7025 1.4906,0.7315 1.495,0.7602 1.4994,0.7887 1.5038,0.8169 1.5082,0.8449 1.5126,0.8725 1.517,0.8999 1.5223,0.9267 1.5286,0.953 1.5359,0.9785 1.5441,1.0031 1.5534,1.0262 1.5639,1.047 1.576,1.0652 1.5896,1.08 1.6052,1.0903 1.6229,1.0954 1.6435,1.096 1.6668,1.0925 1.6926,1.0855 1.7206,1.0757 1.7491,1.0636 1.7772,1.0462 1.8044,1.0252 1.8304,1.0023 1.8514,0.9793 1.868,0.9561 1.8831,0.9327 1.8969,0.9091 1.9097,0.8854 1.9215,0.8616 1.9324,0.8376 1.9425,0.8135 1.9519,0.7891 1.9605,0.7646 1.9685,0.7398 1.9759,0.7147 1.9827,0.6893 1.989,0.6635 1.9947,0.6374 2,0.6108" fill="none" id="repeat_p1--backbone" data-instance-id="repeat_p1--backbone" data-repeat-id="repeat_p1" data-repeat-shift="1" stroke="#0000ff" stroke-width="0.007" stroke-linejoin="round" stroke-linecap="round"/></g></g><g id="flower-support-layer" data-instance-id="flower-support-layer" data-role="flower_support"><g id="flower-support--repeat_m1" data-instance-id="flower-support--repeat_m1" data-repeat-id="repeat_m1" data-repeat-shift="-1"><polyline points="-0.1696,1.0023 -0.1699,0.9976 -0.1704,0.9931 -0.1713,0.9888 -0.1723,0.9846 -0.1736,0.9807 -0.1752,0.9769 -0.1769,0.9733 -0.1789,0.9698 -0.181,0.9665 -0.1833,0.9633 -0.1857,0.9603 -0.1883,0.9574 -0.1909,0.9546 -0.1937,0.9519 -0.1966,0.9493 -0.1996,0.9468 -0.2026,0.9443 -0.2056,0.942 -0.2087,0.9397 -0.2118,0.9375 -0.2149,0.9353 -0.218,0.9332 -0.221,0.9312 -0.224,0.9291 -0.2269,0.9271 -0.2298,0.9251 -0.2325,0.9231 -0.2352,0.9211 -0.2377,0.9191 -0.2401,0.917 -0.2423,0.915 -0.2443,0.9129 -0.2462,0.9108 -0.2479,0.9086 -0.2493,0.9064 -0.2506,0.9041 -0.2515,0.9018 -0.2523,0.8993 -0.2527,0.8968 -0.2528,0.8942" fill="none" id="repeat_m1--flower-support--proto_sw_1_1__flower_2__flower_support" data-instance-id="repeat_m1--flower-support--proto_sw_1_1__flower_2__flower_support" data-repeat-id="repeat_m1" data-repeat-shift="-1" data-mount-id="proto_sw_1_1__flower_2__flower_support" stroke="#007800" stroke-width="0.010" stroke-linejoin="round" stroke-linecap="round" data-flower-id="flower_2"/><polyline points="-0.4874,0.8725 -0.4948,0.8787 -0.5024,0.8846 -0.5101,0.8902 -0.5181,0.8954 -0.5261,0.9003 -0.5343,0.9049 -0.5426,0.9092 -0.551,0.9131 -0.5594,0.9168 -0.5679,0.9201 -0.5764,0.9231 -0.5849,0.9258 -0.5934,0.9281 -0.6018,0.9302 -0.6102,0.9319 -0.6185,0.9333 -0.6267,0.9343 -0.6348,0.9351 -0.6427,0.9356 -0.6505,0.9357 -0.6581,0.9355 -0.6655,0.935 -0.6727,0.9341 -0.6796,0.933 -0.6863,0.9315 -0.6927,0.9297 -0.6988,0.9276 -0.7045,0.9252 -0.7099,0.9225 -0.715,0.9194 -0.7197,0.916 -0.7239,0.9123 -0.7278,0.9083 -0.7312,0.904 -0.7341,0.8994 -0.7365,0.8944 -0.7384,0.8891 -0.7399,0.8835 -0.7407,0.8776 -0.741,0.8714" fill="none" id="repeat_m1--flower-support--proto_sw_1_1__flower_1__flower_support" data-instance-id="repeat_m1--flower-support--proto_sw_1_1__flower_1__flower_support" data-repeat-id="repeat_m1" data-repeat-shift="-1" data-mount-id="proto_sw_1_1__flower_1__flower_support" stroke="#007800" stroke-width="0.010" stroke-linejoin="round" stroke-linecap="round" data-flower-id="flower_1"/></g><g id="flower-support--repeat_0" data-instance-id="flower-support--repeat_0" data-repeat-id="repeat_0" data-repeat-shift="0"><polyline points="0.8304,1.0023 0.8301,0.9976 0.8296,0.9931 0.8287,0.9888 0.8277,0.9846 0.8264,0.9807 0.8248,0.9769 0.8231,0.9733 0.8211,0.9698 0.819,0.9665 0.8167,0.9633 0.8143,0.9603 0.8117,0.9574 0.8091,0.9546 0.8063,0.9519 0.8034,0.9493 0.8004,0.9468 0.7974,0.9443 0.7944,0.942 0.7913,0.9397 0.7882,0.9375 0.7851,0.9353 0.782,0.9332 0.779,0.9312 0.776,0.9291 0.7731,0.9271 0.7702,0.9251 0.7675,0.9231 0.7648,0.9211 0.7623,0.9191 0.7599,0.917 0.7577,0.915 0.7557,0.9129 0.7538,0.9108 0.7521,0.9086 0.7507,0.9064 0.7494,0.9041 0.7485,0.9018 0.7477,0.8993 0.7473,0.8968 0.7472,0.8942" fill="none" id="repeat_0--flower-support--proto_sw_1_1__flower_2__flower_support" data-instance-id="repeat_0--flower-support--proto_sw_1_1__flower_2__flower_support" data-repeat-id="repeat_0" data-repeat-shift="0" data-mount-id="proto_sw_1_1__flower_2__flower_support" stroke="#007800" stroke-width="0.010" stroke-linejoin="round" stroke-linecap="round" data-flower-id="flower_2"/><polyline points="0.5126,0.8725 0.5052,0.8787 0.4976,0.8846 0.4899,0.8902 0.4819,0.8954 0.4739,0.9003 0.4657,0.9049 0.4574,0.9092 0.449,0.9131 0.4406,0.9168 0.4321,0.9201 0.4236,0.9231 0.4151,0.9258 0.4066,0.9281 0.3982,0.9302 0.3898,0.9319 0.3815,0.9333 0.3733,0.9343 0.3652,0.9351 0.3573,0.9356 0.3495,0.9357 0.3419,0.9355 0.3345,0.935 0.3273,0.9341 0.3204,0.933 0.3137,0.9315 0.3073,0.9297 0.3012,0.9276 0.2955,0.9252 0.2901,0.9225 0.285,0.9194 0.2803,0.916 0.2761,0.9123 0.2722,0.9083 0.2688,0.904 0.2659,0.8994 0.2635,0.8944 0.2616,0.8891 0.2601,0.8835 0.2593,0.8776 0.259,0.8714" fill="none" id="repeat_0--flower-support--proto_sw_1_1__flower_1__flower_support" data-instance-id="repeat_0--flower-support--proto_sw_1_1__flower_1__flower_support" data-repeat-id="repeat_0" data-repeat-shift="0" data-mount-id="proto_sw_1_1__flower_1__flower_support" stroke="#007800" stroke-width="0.010" stroke-linejoin="round" stroke-linecap="round" data-flower-id="flower_1"/></g><g id="flower-support--repeat_p1" data-instance-id="flower-support--repeat_p1" data-repeat-id="repeat_p1" data-repeat-shift="1"><polyline points="1.8304,1.0023 1.8301,0.9976 1.8296,0.9931 1.8287,0.9888 1.8277,0.9846 1.8264,0.9807 1.8248,0.9769 1.8231,0.9733 1.8211,0.9698 1.819,0.9665 1.8167,0.9633 1.8143,0.9603 1.8117,0.9574 1.8091,0.9546 1.8063,0.9519 1.8034,0.9493 1.8004,0.9468 1.7974,0.9443 1.7944,0.942 1.7913,0.9397 1.7882,0.9375 1.7851,0.9353 1.782,0.9332 1.779,0.9312 1.776,0.9291 1.7731,0.9271 1.7702,0.9251 1.7675,0.9231 1.7648,0.9211 1.7623,0.9191 1.7599,0.917 1.7577,0.915 1.7557,0.9129 1.7538,0.9108 1.7521,0.9086 1.7507,0.9064 1.7494,0.9041 1.7485,0.9018 1.7477,0.8993 1.7473,0.8968 1.7472,0.8942" fill="none" id="repeat_p1--flower-support--proto_sw_1_1__flower_2__flower_support" data-instance-id="repeat_p1--flower-support--proto_sw_1_1__flower_2__flower_support" data-repeat-id="repeat_p1" data-repeat-shift="1" data-mount-id="proto_sw_1_1__flower_2__flower_support" stroke="#007800" stroke-width="0.010" stroke-linejoin="round" stroke-linecap="round" data-flower-id="flower_2"/><polyline points="1.5126,0.8725 1.5052,0.8787 1.4976,0.8846 1.4899,0.8902 1.4819,0.8954 1.4739,0.9003 1.4657,0.9049 1.4574,0.9092 1.449,0.9131 1.4406,0.9168 1.4321,0.9201 1.4236,0.9231 1.4151,0.9258 1.4066,0.9281 1.3982,0.9302 1.3898,0.9319 1.3815,0.9333 1.3733,0.9343 1.3652,0.9351 1.3573,0.9356 1.3495,0.9357 1.3419,0.9355 1.3345,0.935 1.3273,0.9341 1.3204,0.933 1.3137,0.9315 1.3073,0.9297 1.3012,0.9276 1.2955,0.9252 1.2901,0.9225 1.285,0.9194 1.2803,0.916 1.2761,0.9123 1.2722,0.9083 1.2688,0.904 1.2659,0.8994 1.2635,0.8944 1.2616,0.8891 1.2601,0.8835 1.2593,0.8776 1.259,0.8714" fill="none" id="repeat_p1--flower-support--proto_sw_1_1__flower_1__flower_support" data-instance-id="repeat_p1--flower-support--proto_sw_1_1__flower_1__flower_support" data-repeat-id="repeat_p1" data-repeat-shift="1" data-mount-id="proto_sw_1_1__flower_1__flower_support" stroke="#007800" stroke-width="0.010" stroke-linejoin="round" stroke-linecap="round" data-flower-id="flower_1"/></g></g><g id="flower-anchor-layer" data-instance-id="flower-anchor-layer" data-role="flower_anchor"><g id="flower-anchor--repeat_m1" data-instance-id="flower-anchor--repeat_m1" data-repeat-id="repeat_m1" data-repeat-shift="-1"><ellipse id="repeat_m1--flower-anchor--flower_1" data-instance-id="repeat_m1--flower-anchor--flower_1" data-repeat-id="repeat_m1" data-repeat-shift="-1" cx="-0.741" cy="0.628" rx="0.1355" ry="0.2434" fill="#fff7fb" stroke="#ff0000" stroke-width="0.006" data-flower-id="flower_1"/><ellipse id="repeat_m1--flower-anchor--flower_2" data-instance-id="repeat_m1--flower-anchor--flower_2" data-repeat-id="repeat_m1" data-repeat-shift="-1" cx="-0.2528" cy="0.6368" rx="0.1335" ry="0.2574" fill="#fff7fb" stroke="#ff0000" stroke-width="0.006" data-flower-id="flower_2"/></g><g id="flower-anchor--repeat_0" data-instance-id="flower-anchor--repeat_0" data-repeat-id="repeat_0" data-repeat-shift="0"><ellipse id="repeat_0--flower-anchor--flower_1" data-instance-id="repeat_0--flower-anchor--flower_1" data-repeat-id="repeat_0" data-repeat-shift="0" cx="0.259" cy="0.628" rx="0.1355" ry="0.2434" fill="#fff7fb" stroke="#ff0000" stroke-width="0.006" data-flower-id="flower_1"/><ellipse id="repeat_0--flower-anchor--flower_2" data-instance-id="repeat_0--flower-anchor--flower_2" data-repeat-id="repeat_0" data-repeat-shift="0" cx="0.7472" cy="0.6368" rx="0.1335" ry="0.2574" fill="#fff7fb" stroke="#ff0000" stroke-width="0.006" data-flower-id="flower_2"/></g><g id="flower-anchor--repeat_p1" data-instance-id="flower-anchor--repeat_p1" data-repeat-id="repeat_p1" data-repeat-shift="1"><ellipse id="repeat_p1--flower-anchor--flower_1" data-instance-id="repeat_p1--flower-anchor--flower_1" data-repeat-id="repeat_p1" data-repeat-shift="1" cx="1.259" cy="0.628" rx="0.1355" ry="0.2434" fill="#fff7fb" stroke="#ff0000" stroke-width="0.006" data-flower-id="flower_1"/><ellipse id="repeat_p1--flower-anchor--flower_2" data-instance-id="repeat_p1--flower-anchor--flower_2" data-repeat-id="repeat_p1" data-repeat-shift="1" cx="1.7472" cy="0.6368" rx="0.1335" ry="0.2574" fill="#fff7fb" stroke="#ff0000" stroke-width="0.006" data-flower-id="flower_2"/></g></g><g id="branches-layer" data-instance-id="branches-layer" data-role="branches"><g id="branches--repeat_m1" data-instance-id="branches--repeat_m1" data-repeat-id="repeat_m1" data-repeat-shift="-1"><path id="repeat_m1--curve--proto_sw_1_1__seed_3906224916__global_l1_flow_v3__density_medium__baseline_fixedslot__selected_l1_005.L1" data-instance-id="repeat_m1--curve--proto_sw_1_1__seed_3906224916__global_l1_flow_v3__density_medium__baseline_fixedslot__selected_l1_005.L1" data-repeat-id="repeat_m1" data-repeat-shift="-1" d="M -0.4114,1.0789 C -0.3554,0.9834 -0.325,0.8017 -0.4447,0.7409" fill="none" stroke="#ff9900" stroke-width="0.01" stroke-linejoin="round" stroke-linecap="round" data-role="primary_branch" data-level="L1" data-curve-id="proto_sw_1_1__seed_3906224916__global_l1_flow_v3__density_medium__baseline_fixedslot__selected_l1_005.L1" data-parent-curve-id="None" data-lane-id="selected_l1_005" data-unit-id="proto_sw_1_1__seed_3906224916__global_l1_flow_v3__density_medium__baseline_fixedslot__selected_l1_005__Y-C__open_c__context_opposed__sample_0106"/><path id="repeat_m1--curve--proto_sw_1_1__seed_3906224916__global_l1_flow_v3__density_medium__baseline_fixedslot__selected_l1_005.L2.1" data-instance-id="repeat_m1--curve--proto_sw_1_1__seed_3906224916__global_l1_flow_v3__density_medium__baseline_fixedslot__selected_l1_005.L2.1" data-repeat-id="repeat_m1" data-repeat-shift="-1" d="M -0.3727,0.9811 C -0.4111,0.9214 -0.4299,0.8936 -0.4398,0.8233" fill="none" stroke="#00ffff" stroke-width="0.007" stroke-linejoin="round" stroke-linecap="round" data-role="secondary_branch" data-level="L2" data-curve-id="proto_sw_1_1__seed_3906224916__global_l1_flow_v3__density_medium__baseline_fixedslot__selected_l1_005.L2.1" data-parent-curve-id="proto_sw_1_1__seed_3906224916__global_l1_flow_v3__density_medium__baseline_fixedslot__selected_l1_005.L1" data-lane-id="selected_l1_005" data-unit-id="proto_sw_1_1__seed_3906224916__global_l1_flow_v3__density_medium__baseline_fixedslot__selected_l1_005__Y-C__open_c__context_opposed__sample_0106"/><path id="repeat_m1--curve--proto_sw_1_1__seed_3906224916__global_l1_flow_v3__density_medium__baseline_fixedslot__selected_l1_003.L1" data-instance-id="repeat_m1--curve--proto_sw_1_1__seed_3906224916__global_l1_flow_v3__density_medium__baseline_fixedslot__selected_l1_003.L1" data-repeat-id="repeat_m1" data-repeat-shift="-1" d="M -0.7311,0.1451 C -0.7767,0.2059 -0.8765,0.3173 -0.7996,0.3681" fill="none" stroke="#ff9900" stroke-width="0.01" stroke-linejoin="round" stroke-linecap="round" data-role="primary_branch" data-level="L1" data-curve-id="proto_sw_1_1__seed_3906224916__global_l1_flow_v3__density_medium__baseline_fixedslot__selected_l1_003.L1" data-parent-curve-id="None" data-lane-id="selected_l1_003" data-unit-id="proto_sw_1_1__seed_3906224916__global_l1_flow_v3__density_medium__baseline_fixedslot__selected_l1_003__L1-Only__independent_l1__context_preferred__sample_0050"/><path id="repeat_m1--curve--proto_sw_1_1__seed_3906224916__global_l1_flow_v3__density_medium__baseline_fixedslot__selected_l1_004.L1" data-instance-id="repeat_m1--curve--proto_sw_1_1__seed_3906224916__global_l1_flow_v3__density_medium__baseline_fixedslot__selected_l1_004.L1" data-repeat-id="repeat_m1" data-repeat-shift="-1" d="M -0.5793,0.4115 C -0.4786,0.3495 -0.3588,0.1936 -0.4411,0.0763" fill="none" stroke="#ff9900" stroke-width="0.01" stroke-linejoin="round" stroke-linecap="round" data-role="primary_branch" data-level="L1" data-curve-id="proto_sw_1_1__seed_3906224916__global_l1_flow_v3__density_medium__baseline_fixedslot__selected_l1_004.L1" data-parent-curve-id="None" data-lane-id="selected_l1_004" data-unit-id="proto_sw_1_1__seed_3906224916__global_l1_flow_v3__density_medium__baseline_fixedslot__selected_l1_004__Y-C__compact_c__context_opposed__sample_0077"/><path id="repeat_m1--curve--proto_sw_1_1__seed_3906224916__global_l1_flow_v3__density_medium__baseline_fixedslot__selected_l1_004.L2.1" data-instance-id="repeat_m1--curve--proto_sw_1_1__seed_3906224916__global_l1_flow_v3__density_medium__baseline_fixedslot__selected_l1_004.L2.1" data-repeat-id="repeat_m1" data-repeat-shift="-1" d="M -0.4937,0.3387 C -0.4173,0.3317 -0.3824,0.3272 -0.3204,0.282" fill="none" stroke="#00ffff" stroke-width="0.007" stroke-linejoin="round" stroke-linecap="round" data-role="secondary_branch" data-level="L2" data-curve-id="proto_sw_1_1__seed_3906224916__global_l1_flow_v3__density_medium__baseline_fixedslot__selected_l1_004.L2.1" data-parent-curve-id="proto_sw_1_1__seed_3906224916__global_l1_flow_v3__density_medium__baseline_fixedslot__selected_l1_004.L1" data-lane-id="selected_l1_004" data-unit-id="proto_sw_1_1__seed_3906224916__global_l1_flow_v3__density_medium__baseline_fixedslot__selected_l1_004__Y-C__compact_c__context_opposed__sample_0077"/><path id="repeat_m1--curve--proto_sw_1_1__seed_3906224916__global_l1_flow_v3__density_medium__baseline_fixedslot__selected_l1_001.L1" data-instance-id="repeat_m1--curve--proto_sw_1_1__seed_3906224916__global_l1_flow_v3__density_medium__baseline_fixedslot__selected_l1_001.L1" data-repeat-id="repeat_m1" data-repeat-shift="-1" d="M -0.9598,0.3772 C -1.0682,0.3303 -1.1162,0.2058 -1.1445,0.0653" fill="none" stroke="#ff9900" stroke-width="0.01" stroke-linejoin="round" stroke-linecap="round" data-role="primary_branch" data-level="L1" data-curve-id="proto_sw_1_1__seed_3906224916__global_l1_flow_v3__density_medium__baseline_fixedslot__selected_l1_001.L1" data-parent-curve-id="None" data-lane-id="selected_l1_001" data-unit-id="proto_sw_1_1__seed_3906224916__global_l1_flow_v3__density_medium__baseline_fixedslot__selected_l1_001__L1-Only__independent_l1__context_preferred__sample_0000"/><path id="repeat_m1--curve--proto_sw_1_1__seed_3906224916__global_l1_flow_v3__density_medium__baseline_fixedslot__selected_l1_002.L1" data-instance-id="repeat_m1--curve--proto_sw_1_1__seed_3906224916__global_l1_flow_v3__density_medium__baseline_fixedslot__selected_l1_002.L1" data-repeat-id="repeat_m1" data-repeat-shift="-1" d="M -0.844,0.0735 C -0.8403,0.1495 -0.839,0.2404 -0.9122,0.2966" fill="none" stroke="#ff9900" stroke-width="0.01" stroke-linejoin="round" stroke-linecap="round" data-role="primary_branch" data-level="L1" data-curve-id="proto_sw_1_1__seed_3906224916__global_l1_flow_v3__density_medium__baseline_fixedslot__selected_l1_002.L1" data-parent-curve-id="None" data-lane-id="selected_l1_002" data-unit-id="proto_sw_1_1__seed_3906224916__global_l1_flow_v3__density_medium__baseline_fixedslot__selected_l1_002__L1-Only__independent_l1__context_preferred__sample_0025"/><path id="repeat_m1--curve--proto_sw_1_1__seed_3906224916__global_l1_flow_v3__density_medium__baseline_fixedslot__selected_l1_006.L1" data-instance-id="repeat_m1--curve--proto_sw_1_1__seed_3906224916__global_l1_flow_v3__density_medium__baseline_fixedslot__selected_l1_006.L1" data-repeat-id="repeat_m1" data-repeat-shift="-1" d="M -0.0522,0.7998 C 0.0122,0.8403 0.0874,0.8914 0.0915,0.9835" fill="none" stroke="#ff9900" stroke-width="0.01" stroke-linejoin="round" stroke-linecap="round" data-role="primary_branch" data-level="L1" data-curve-id="proto_sw_1_1__seed_3906224916__global_l1_flow_v3__density_medium__baseline_fixedslot__selected_l1_006.L1" data-parent-curve-id="None" data-lane-id="selected_l1_006" data-unit-id="proto_sw_1_1__seed_3906224916__global_l1_flow_v3__density_medium__baseline_fixedslot__selected_l1_006__L1-Only__independent_l1__context_preferred__sample_0125"/></g><g id="branches--repeat_0" data-instance-id="branches--repeat_0" data-repeat-id="repeat_0" data-repeat-shift="0"><path id="repeat_0--curve--proto_sw_1_1__seed_3906224916__global_l1_flow_v3__density_medium__baseline_fixedslot__selected_l1_005.L1" data-instance-id="repeat_0--curve--proto_sw_1_1__seed_3906224916__global_l1_flow_v3__density_medium__baseline_fixedslot__selected_l1_005.L1" data-repeat-id="repeat_0" data-repeat-shift="0" d="M 0.5886,1.0789 C 0.6446,0.9834 0.675,0.8017 0.5553,0.7409" fill="none" stroke="#ff9900" stroke-width="0.01" stroke-linejoin="round" stroke-linecap="round" data-role="primary_branch" data-level="L1" data-curve-id="proto_sw_1_1__seed_3906224916__global_l1_flow_v3__density_medium__baseline_fixedslot__selected_l1_005.L1" data-parent-curve-id="None" data-lane-id="selected_l1_005" data-unit-id="proto_sw_1_1__seed_3906224916__global_l1_flow_v3__density_medium__baseline_fixedslot__selected_l1_005__Y-C__open_c__context_opposed__sample_0106"/><path id="repeat_0--curve--proto_sw_1_1__seed_3906224916__global_l1_flow_v3__density_medium__baseline_fixedslot__selected_l1_005.L2.1" data-instance-id="repeat_0--curve--proto_sw_1_1__seed_3906224916__global_l1_flow_v3__density_medium__baseline_fixedslot__selected_l1_005.L2.1" data-repeat-id="repeat_0" data-repeat-shift="0" d="M 0.6273,0.9811 C 0.5889,0.9214 0.5701,0.8936 0.5602,0.8233" fill="none" stroke="#00ffff" stroke-width="0.007" stroke-linejoin="round" stroke-linecap="round" data-role="secondary_branch" data-level="L2" data-curve-id="proto_sw_1_1__seed_3906224916__global_l1_flow_v3__density_medium__baseline_fixedslot__selected_l1_005.L2.1" data-parent-curve-id="proto_sw_1_1__seed_3906224916__global_l1_flow_v3__density_medium__baseline_fixedslot__selected_l1_005.L1" data-lane-id="selected_l1_005" data-unit-id="proto_sw_1_1__seed_3906224916__global_l1_flow_v3__density_medium__baseline_fixedslot__selected_l1_005__Y-C__open_c__context_opposed__sample_0106"/><path id="repeat_0--curve--proto_sw_1_1__seed_3906224916__global_l1_flow_v3__density_medium__baseline_fixedslot__selected_l1_003.L1" data-instance-id="repeat_0--curve--proto_sw_1_1__seed_3906224916__global_l1_flow_v3__density_medium__baseline_fixedslot__selected_l1_003.L1" data-repeat-id="repeat_0" data-repeat-shift="0" d="M 0.2689,0.1451 C 0.2233,0.2059 0.1235,0.3173 0.2004,0.3681" fill="none" stroke="#ff9900" stroke-width="0.01" stroke-linejoin="round" stroke-linecap="round" data-role="primary_branch" data-level="L1" data-curve-id="proto_sw_1_1__seed_3906224916__global_l1_flow_v3__density_medium__baseline_fixedslot__selected_l1_003.L1" data-parent-curve-id="None" data-lane-id="selected_l1_003" data-unit-id="proto_sw_1_1__seed_3906224916__global_l1_flow_v3__density_medium__baseline_fixedslot__selected_l1_003__L1-Only__independent_l1__context_preferred__sample_0050"/><path id="repeat_0--curve--proto_sw_1_1__seed_3906224916__global_l1_flow_v3__density_medium__baseline_fixedslot__selected_l1_004.L1" data-instance-id="repeat_0--curve--proto_sw_1_1__seed_3906224916__global_l1_flow_v3__density_medium__baseline_fixedslot__selected_l1_004.L1" data-repeat-id="repeat_0" data-repeat-shift="0" d="M 0.4207,0.4115 C 0.5214,0.3495 0.6412,0.1936 0.5589,0.0763" fill="none" stroke="#ff9900" stroke-width="0.01" stroke-linejoin="round" stroke-linecap="round" data-role="primary_branch" data-level="L1" data-curve-id="proto_sw_1_1__seed_3906224916__global_l1_flow_v3__density_medium__baseline_fixedslot__selected_l1_004.L1" data-parent-curve-id="None" data-lane-id="selected_l1_004" data-unit-id="proto_sw_1_1__seed_3906224916__global_l1_flow_v3__density_medium__baseline_fixedslot__selected_l1_004__Y-C__compact_c__context_opposed__sample_0077"/><path id="repeat_0--curve--proto_sw_1_1__seed_3906224916__global_l1_flow_v3__density_medium__baseline_fixedslot__selected_l1_004.L2.1" data-instance-id="repeat_0--curve--proto_sw_1_1__seed_3906224916__global_l1_flow_v3__density_medium__baseline_fixedslot__selected_l1_004.L2.1" data-repeat-id="repeat_0" data-repeat-shift="0" d="M 0.5063,0.3387 C 0.5827,0.3317 0.6176,0.3272 0.6796,0.282" fill="none" stroke="#00ffff" stroke-width="0.007" stroke-linejoin="round" stroke-linecap="round" data-role="secondary_branch" data-level="L2" data-curve-id="proto_sw_1_1__seed_3906224916__global_l1_flow_v3__density_medium__baseline_fixedslot__selected_l1_004.L2.1" data-parent-curve-id="proto_sw_1_1__seed_3906224916__global_l1_flow_v3__density_medium__baseline_fixedslot__selected_l1_004.L1" data-lane-id="selected_l1_004" data-unit-id="proto_sw_1_1__seed_3906224916__global_l1_flow_v3__density_medium__baseline_fixedslot__selected_l1_004__Y-C__compact_c__context_opposed__sample_0077"/><path id="repeat_0--curve--proto_sw_1_1__seed_3906224916__global_l1_flow_v3__density_medium__baseline_fixedslot__selected_l1_001.L1" data-instance-id="repeat_0--curve--proto_sw_1_1__seed_3906224916__global_l1_flow_v3__density_medium__baseline_fixedslot__selected_l1_001.L1" data-repeat-id="repeat_0" data-repeat-shift="0" d="M 0.0402,0.3772 C -0.0682,0.3303 -0.1162,0.2058 -0.1445,0.0653" fill="none" stroke="#ff9900" stroke-width="0.01" stroke-linejoin="round" stroke-linecap="round" data-role="primary_branch" data-level="L1" data-curve-id="proto_sw_1_1__seed_3906224916__global_l1_flow_v3__density_medium__baseline_fixedslot__selected_l1_001.L1" data-parent-curve-id="None" data-lane-id="selected_l1_001" data-unit-id="proto_sw_1_1__seed_3906224916__global_l1_flow_v3__density_medium__baseline_fixedslot__selected_l1_001__L1-Only__independent_l1__context_preferred__sample_0000"/><path id="repeat_0--curve--proto_sw_1_1__seed_3906224916__global_l1_flow_v3__density_medium__baseline_fixedslot__selected_l1_002.L1" data-instance-id="repeat_0--curve--proto_sw_1_1__seed_3906224916__global_l1_flow_v3__density_medium__baseline_fixedslot__selected_l1_002.L1" data-repeat-id="repeat_0" data-repeat-shift="0" d="M 0.156,0.0735 C 0.1597,0.1495 0.161,0.2404 0.0878,0.2966" fill="none" stroke="#ff9900" stroke-width="0.01" stroke-linejoin="round" stroke-linecap="round" data-role="primary_branch" data-level="L1" data-curve-id="proto_sw_1_1__seed_3906224916__global_l1_flow_v3__density_medium__baseline_fixedslot__selected_l1_002.L1" data-parent-curve-id="None" data-lane-id="selected_l1_002" data-unit-id="proto_sw_1_1__seed_3906224916__global_l1_flow_v3__density_medium__baseline_fixedslot__selected_l1_002__L1-Only__independent_l1__context_preferred__sample_0025"/><path id="repeat_0--curve--proto_sw_1_1__seed_3906224916__global_l1_flow_v3__density_medium__baseline_fixedslot__selected_l1_006.L1" data-instance-id="repeat_0--curve--proto_sw_1_1__seed_3906224916__global_l1_flow_v3__density_medium__baseline_fixedslot__selected_l1_006.L1" data-repeat-id="repeat_0" data-repeat-shift="0" d="M 0.9478,0.7998 C 1.0122,0.8403 1.0874,0.8914 1.0915,0.9835" fill="none" stroke="#ff9900" stroke-width="0.01" stroke-linejoin="round" stroke-linecap="round" data-role="primary_branch" data-level="L1" data-curve-id="proto_sw_1_1__seed_3906224916__global_l1_flow_v3__density_medium__baseline_fixedslot__selected_l1_006.L1" data-parent-curve-id="None" data-lane-id="selected_l1_006" data-unit-id="proto_sw_1_1__seed_3906224916__global_l1_flow_v3__density_medium__baseline_fixedslot__selected_l1_006__L1-Only__independent_l1__context_preferred__sample_0125"/></g><g id="branches--repeat_p1" data-instance-id="branches--repeat_p1" data-repeat-id="repeat_p1" data-repeat-shift="1"><path id="repeat_p1--curve--proto_sw_1_1__seed_3906224916__global_l1_flow_v3__density_medium__baseline_fixedslot__selected_l1_005.L1" data-instance-id="repeat_p1--curve--proto_sw_1_1__seed_3906224916__global_l1_flow_v3__density_medium__baseline_fixedslot__selected_l1_005.L1" data-repeat-id="repeat_p1" data-repeat-shift="1" d="M 1.5886,1.0789 C 1.6446,0.9834 1.675,0.8017 1.5553,0.7409" fill="none" stroke="#ff9900" stroke-width="0.01" stroke-linejoin="round" stroke-linecap="round" data-role="primary_branch" data-level="L1" data-curve-id="proto_sw_1_1__seed_3906224916__global_l1_flow_v3__density_medium__baseline_fixedslot__selected_l1_005.L1" data-parent-curve-id="None" data-lane-id="selected_l1_005" data-unit-id="proto_sw_1_1__seed_3906224916__global_l1_flow_v3__density_medium__baseline_fixedslot__selected_l1_005__Y-C__open_c__context_opposed__sample_0106"/><path id="repeat_p1--curve--proto_sw_1_1__seed_3906224916__global_l1_flow_v3__density_medium__baseline_fixedslot__selected_l1_005.L2.1" data-instance-id="repeat_p1--curve--proto_sw_1_1__seed_3906224916__global_l1_flow_v3__density_medium__baseline_fixedslot__selected_l1_005.L2.1" data-repeat-id="repeat_p1" data-repeat-shift="1" d="M 1.6273,0.9811 C 1.5889,0.9214 1.5701,0.8936 1.5602,0.8233" fill="none" stroke="#00ffff" stroke-width="0.007" stroke-linejoin="round" stroke-linecap="round" data-role="secondary_branch" data-level="L2" data-curve-id="proto_sw_1_1__seed_3906224916__global_l1_flow_v3__density_medium__baseline_fixedslot__selected_l1_005.L2.1" data-parent-curve-id="proto_sw_1_1__seed_3906224916__global_l1_flow_v3__density_medium__baseline_fixedslot__selected_l1_005.L1" data-lane-id="selected_l1_005" data-unit-id="proto_sw_1_1__seed_3906224916__global_l1_flow_v3__density_medium__baseline_fixedslot__selected_l1_005__Y-C__open_c__context_opposed__sample_0106"/><path id="repeat_p1--curve--proto_sw_1_1__seed_3906224916__global_l1_flow_v3__density_medium__baseline_fixedslot__selected_l1_003.L1" data-instance-id="repeat_p1--curve--proto_sw_1_1__seed_3906224916__global_l1_flow_v3__density_medium__baseline_fixedslot__selected_l1_003.L1" data-repeat-id="repeat_p1" data-repeat-shift="1" d="M 1.2689,0.1451 C 1.2233,0.2059 1.1235,0.3173 1.2004,0.3681" fill="none" stroke="#ff9900" stroke-width="0.01" stroke-linejoin="round" stroke-linecap="round" data-role="primary_branch" data-level="L1" data-curve-id="proto_sw_1_1__seed_3906224916__global_l1_flow_v3__density_medium__baseline_fixedslot__selected_l1_003.L1" data-parent-curve-id="None" data-lane-id="selected_l1_003" data-unit-id="proto_sw_1_1__seed_3906224916__global_l1_flow_v3__density_medium__baseline_fixedslot__selected_l1_003__L1-Only__independent_l1__context_preferred__sample_0050"/><path id="repeat_p1--curve--proto_sw_1_1__seed_3906224916__global_l1_flow_v3__density_medium__baseline_fixedslot__selected_l1_004.L1" data-instance-id="repeat_p1--curve--proto_sw_1_1__seed_3906224916__global_l1_flow_v3__density_medium__baseline_fixedslot__selected_l1_004.L1" data-repeat-id="repeat_p1" data-repeat-shift="1" d="M 1.4207,0.4115 C 1.5214,0.3495 1.6412,0.1936 1.5589,0.0763" fill="none" stroke="#ff9900" stroke-width="0.01" stroke-linejoin="round" stroke-linecap="round" data-role="primary_branch" data-level="L1" data-curve-id="proto_sw_1_1__seed_3906224916__global_l1_flow_v3__density_medium__baseline_fixedslot__selected_l1_004.L1" data-parent-curve-id="None" data-lane-id="selected_l1_004" data-unit-id="proto_sw_1_1__seed_3906224916__global_l1_flow_v3__density_medium__baseline_fixedslot__selected_l1_004__Y-C__compact_c__context_opposed__sample_0077"/><path id="repeat_p1--curve--proto_sw_1_1__seed_3906224916__global_l1_flow_v3__density_medium__baseline_fixedslot__selected_l1_004.L2.1" data-instance-id="repeat_p1--curve--proto_sw_1_1__seed_3906224916__global_l1_flow_v3__density_medium__baseline_fixedslot__selected_l1_004.L2.1" data-repeat-id="repeat_p1" data-repeat-shift="1" d="M 1.5063,0.3387 C 1.5827,0.3317 1.6176,0.3272 1.6796,0.282" fill="none" stroke="#00ffff" stroke-width="0.007" stroke-linejoin="round" stroke-linecap="round" data-role="secondary_branch" data-level="L2" data-curve-id="proto_sw_1_1__seed_3906224916__global_l1_flow_v3__density_medium__baseline_fixedslot__selected_l1_004.L2.1" data-parent-curve-id="proto_sw_1_1__seed_3906224916__global_l1_flow_v3__density_medium__baseline_fixedslot__selected_l1_004.L1" data-lane-id="selected_l1_004" data-unit-id="proto_sw_1_1__seed_3906224916__global_l1_flow_v3__density_medium__baseline_fixedslot__selected_l1_004__Y-C__compact_c__context_opposed__sample_0077"/><path id="repeat_p1--curve--proto_sw_1_1__seed_3906224916__global_l1_flow_v3__density_medium__baseline_fixedslot__selected_l1_001.L1" data-instance-id="repeat_p1--curve--proto_sw_1_1__seed_3906224916__global_l1_flow_v3__density_medium__baseline_fixedslot__selected_l1_001.L1" data-repeat-id="repeat_p1" data-repeat-shift="1" d="M 1.0402,0.3772 C 0.9318,0.3303 0.8838,0.2058 0.8555,0.0653" fill="none" stroke="#ff9900" stroke-width="0.01" stroke-linejoin="round" stroke-linecap="round" data-role="primary_branch" data-level="L1" data-curve-id="proto_sw_1_1__seed_3906224916__global_l1_flow_v3__density_medium__baseline_fixedslot__selected_l1_001.L1" data-parent-curve-id="None" data-lane-id="selected_l1_001" data-unit-id="proto_sw_1_1__seed_3906224916__global_l1_flow_v3__density_medium__baseline_fixedslot__selected_l1_001__L1-Only__independent_l1__context_preferred__sample_0000"/><path id="repeat_p1--curve--proto_sw_1_1__seed_3906224916__global_l1_flow_v3__density_medium__baseline_fixedslot__selected_l1_002.L1" data-instance-id="repeat_p1--curve--proto_sw_1_1__seed_3906224916__global_l1_flow_v3__density_medium__baseline_fixedslot__selected_l1_002.L1" data-repeat-id="repeat_p1" data-repeat-shift="1" d="M 1.156,0.0735 C 1.1597,0.1495 1.161,0.2404 1.0878,0.2966" fill="none" stroke="#ff9900" stroke-width="0.01" stroke-linejoin="round" stroke-linecap="round" data-role="primary_branch" data-level="L1" data-curve-id="proto_sw_1_1__seed_3906224916__global_l1_flow_v3__density_medium__baseline_fixedslot__selected_l1_002.L1" data-parent-curve-id="None" data-lane-id="selected_l1_002" data-unit-id="proto_sw_1_1__seed_3906224916__global_l1_flow_v3__density_medium__baseline_fixedslot__selected_l1_002__L1-Only__independent_l1__context_preferred__sample_0025"/><path id="repeat_p1--curve--proto_sw_1_1__seed_3906224916__global_l1_flow_v3__density_medium__baseline_fixedslot__selected_l1_006.L1" data-instance-id="repeat_p1--curve--proto_sw_1_1__seed_3906224916__global_l1_flow_v3__density_medium__baseline_fixedslot__selected_l1_006.L1" data-repeat-id="repeat_p1" data-repeat-shift="1" d="M 1.9478,0.7998 C 2.0122,0.8403 2.0874,0.8914 2.0915,0.9835" fill="none" stroke="#ff9900" stroke-width="0.01" stroke-linejoin="round" stroke-linecap="round" data-role="primary_branch" data-level="L1" data-curve-id="proto_sw_1_1__seed_3906224916__global_l1_flow_v3__density_medium__baseline_fixedslot__selected_l1_006.L1" data-parent-curve-id="None" data-lane-id="selected_l1_006" data-unit-id="proto_sw_1_1__seed_3906224916__global_l1_flow_v3__density_medium__baseline_fixedslot__selected_l1_006__L1-Only__independent_l1__context_preferred__sample_0125"/></g></g></svg>