<svg xmlns="http://www.w3.org/2000/svg" id="structural-svg--proto_sw_1_1--production-seed-200002" data-prototype-id="proto_sw_1_1" data-production-seed="200002" data-backbone-seed="1586078355" data-flower-seed="2795483619" data-branch-seed="3834742724" data-unit-seed="1346423801" data-backbone-variant-id="compact" data-density-level="medium" data-source-case="A023" data-source-contract-id="stage5e_joint_sparse_local_l2_selection_v2" data-source-plan-id="proto_sw_1_1__seed_3834742724__global_l1_flow_v3__density_medium" data-source-selection-id="proto_sw_1_1__seed_3834742724__global_l1_flow_v3__density_medium__unit_candidates_v2__global_unit_selection_joint_h2b" data-repeat-mode="triple" viewBox="-1.08 0 3.16 1.1875" width="3160" height="1188"><rect x="-1.08" y="0" width="3.16" height="1.1875" fill="#f1efe9"/><metadata>role_color_identity_v2: backbone=#0000ff; primary_branch=#ff9900; secondary_branch=#00ffff; flower_support=#007800; flower_anchor=#ff0000; unit_boundary=#000000(dashed). data-role is authoritative; stroke color is a visual fallback.</metadata><g id="unit-boundaries" data-instance-id="unit-boundaries" data-role="unit_boundary"><line id="unit-boundary--00" data-instance-id="unit-boundary--00" data-boundary-x="-1" x1="-1" y1="0" x2="-1" y2="1.1875" stroke="#000000" stroke-dasharray="0.012 0.008" stroke-width="0.004"/><line id="unit-boundary--01" data-instance-id="unit-boundary--01" data-boundary-x="0" x1="0" y1="0" x2="0" y2="1.1875" stroke="#000000" stroke-dasharray="0.012 0.008" stroke-width="0.004"/><line id="unit-boundary--02" data-instance-id="unit-boundary--02" data-boundary-x="1" x1="1" y1="0" x2="1" y2="1.1875" stroke="#000000" stroke-dasharray="0.012 0.008" stroke-width="0.004"/><line id="unit-boundary--03" data-instance-id="unit-boundary--03" data-boundary-x="2" x1="2" y1="0" x2="2" y2="1.1875" stroke="#000000" stroke-dasharray="0.012 0.008" stroke-width="0.004"/></g><g id="backbone-layer" data-instance-id="backbone-layer" data-role="backbone"><g id="backbone--repeat_m1" data-instance-id="backbone--repeat_m1" data-repeat-id="repeat_m1" data-repeat-shift="-1"><polyline points="-1,0.617 -0.9966,0.5818 -0.9926,0.5465 -0.9882,0.5113 -0.9833,0.4762 -0.978,0.4412 -0.9723,0.4065 -0.9661,0.3721 -0.9594,0.3382 -0.9521,0.3049 -0.9441,0.2722 -0.9353,0.2403 -0.9257,0.2093 -0.9151,0.1794 -0.9032,0.1509 -0.8897,0.1242 -0.8741,0.0997 -0.8561,0.0781 -0.835,0.0615 -0.8099,0.0522 -0.782,0.0522 -0.7537,0.0588 -0.7264,0.0698 -0.7006,0.0847 -0.6766,0.1031 -0.6547,0.1246 -0.635,0.1485 -0.6171,0.1747 -0.6013,0.2027 -0.587,0.2323 -0.5743,0.2632 -0.563,0.2952 -0.553,0.3282 -0.5442,0.3621 -0.5368,0.3969 -0.5315,0.4321 -0.5271,0.4675 -0.5227,0.5029 -0.5183,0.5384 -0.5139,0.5738 -0.5094,0.6091 -0.505,0.6443 -0.5006,0.6792 -0.4962,0.7138 -0.4918,0.748 -0.4874,0.7817 -0.483,0.8148 -0.4777,0.8471 -0.4714,0.8785 -0.4641,0.909 -0.4559,0.9386 -0.4466,0.9669 -0.4361,0.9939 -0.424,1.0194 -0.4104,1.0432 -0.3948,1.0649 -0.3771,1.0837 -0.3565,1.0993 -0.3332,1.1109 -0.3074,1.1173 -0.2794,1.1189 -0.2509,1.1162 -0.2228,1.1096 -0.1956,1.1002 -0.1696,1.086 -0.1486,1.0662 -0.132,1.043 -0.1169,1.0187 -0.1031,0.9931 -0.0903,0.9663 -0.0785,0.9385 -0.0676,0.9096 -0.0575,0.8799 -0.0481,0.8493 -0.0395,0.8179 -0.0315,0.7858 -0.0241,0.7531 -0.0173,0.7197 -0.011,0.6859 -0.0053,0.6516 0,0.617" fill="none" id="repeat_m1--backbone" data-instance-id="repeat_m1--backbone" data-repeat-id="repeat_m1" data-repeat-shift="-1" stroke="#0000ff" stroke-width="0.007" stroke-linejoin="round" stroke-linecap="round"/></g><g id="backbone--repeat_0" data-instance-id="backbone--repeat_0" data-repeat-id="repeat_0" data-repeat-shift="0"><polyline points="0,0.617 0.0034,0.5818 0.0074,0.5465 0.0118,0.5113 0.0167,0.4762 0.022,0.4412 0.0277,0.4065 0.0339,0.3721 0.0406,0.3382 0.0479,0.3049 0.0559,0.2722 0.0647,0.2403 0.0743,0.2093 0.0849,0.1794 0.0968,0.1509 0.1103,0.1242 0.1259,0.0997 0.1439,0.0781 0.165,0.0615 0.1901,0.0522 0.218,0.0522 0.2463,0.0588 0.2736,0.0698 0.2994,0.0847 0.3234,0.1031 0.3453,0.1246 0.365,0.1485 0.3829,0.1747 0.3987,0.2027 0.413,0.2323 0.4257,0.2632 0.437,0.2952 0.447,0.3282 0.4558,0.3621 0.4632,0.3969 0.4685,0.4321 0.4729,0.4675 0.4773,0.5029 0.4817,0.5384 0.4861,0.5738 0.4906,0.6091 0.495,0.6443 0.4994,0.6792 0.5038,0.7138 0.5082,0.748 0.5126,0.7817 0.517,0.8148 0.5223,0.8471 0.5286,0.8785 0.5359,0.909 0.5441,0.9386 0.5534,0.9669 0.5639,0.9939 0.576,1.0194 0.5896,1.0432 0.6052,1.0649 0.6229,1.0837 0.6435,1.0993 0.6668,1.1109 0.6926,1.1173 0.7206,1.1189 0.7491,1.1162 0.7772,1.1096 0.8044,1.1002 0.8304,1.086 0.8514,1.0662 0.868,1.043 0.8831,1.0187 0.8969,0.9931 0.9097,0.9663 0.9215,0.9385 0.9324,0.9096 0.9425,0.8799 0.9519,0.8493 0.9605,0.8179 0.9685,0.7858 0.9759,0.7531 0.9827,0.7197 0.989,0.6859 0.9947,0.6516 1,0.617" fill="none" id="repeat_0--backbone" data-instance-id="repeat_0--backbone" data-repeat-id="repeat_0" data-repeat-shift="0" stroke="#0000ff" stroke-width="0.014" stroke-linejoin="round" stroke-linecap="round"/></g><g id="backbone--repeat_p1" data-instance-id="backbone--repeat_p1" data-repeat-id="repeat_p1" data-repeat-shift="1"><polyline points="1,0.617 1.0034,0.5818 1.0074,0.5465 1.0118,0.5113 1.0167,0.4762 1.022,0.4412 1.0277,0.4065 1.0339,0.3721 1.0406,0.3382 1.0479,0.3049 1.0559,0.2722 1.0647,0.2403 1.0743,0.2093 1.0849,0.1794 1.0968,0.1509 1.1103,0.1242 1.1259,0.0997 1.1439,0.0781 1.165,0.0615 1.1901,0.0522 1.218,0.0522 1.2463,0.0588 1.2736,0.0698 1.2994,0.0847 1.3234,0.1031 1.3453,0.1246 1.365,0.1485 1.3829,0.1747 1.3987,0.2027 1.413,0.2323 1.4257,0.2632 1.437,0.2952 1.447,0.3282 1.4558,0.3621 1.4632,0.3969 1.4685,0.4321 1.4729,0.4675 1.4773,0.5029 1.4817,0.5384 1.4861,0.5738 1.4906,0.6091 1.495,0.6443 1.4994,0.6792 1.5038,0.7138 1.5082,0.748 1.5126,0.7817 1.517,0.8148 1.5223,0.8471 1.5286,0.8785 1.5359,0.909 1.5441,0.9386 1.5534,0.9669 1.5639,0.9939 1.576,1.0194 1.5896,1.0432 1.6052,1.0649 1.6229,1.0837 1.6435,1.0993 1.6668,1.1109 1.6926,1.1173 1.7206,1.1189 1.7491,1.1162 1.7772,1.1096 1.8044,1.1002 1.8304,1.086 1.8514,1.0662 1.868,1.043 1.8831,1.0187 1.8969,0.9931 1.9097,0.9663 1.9215,0.9385 1.9324,0.9096 1.9425,0.8799 1.9519,0.8493 1.9605,0.8179 1.9685,0.7858 1.9759,0.7531 1.9827,0.7197 1.989,0.6859 1.9947,0.6516 2,0.617" fill="none" id="repeat_p1--backbone" data-instance-id="repeat_p1--backbone" data-repeat-id="repeat_p1" data-repeat-shift="1" stroke="#0000ff" stroke-width="0.007" stroke-linejoin="round" stroke-linecap="round"/></g></g><g id="flower-support-layer" data-instance-id="flower-support-layer" data-role="flower_support"><g id="flower-support--repeat_m1" data-instance-id="flower-support--repeat_m1" data-repeat-id="repeat_m1" data-repeat-shift="-1"><polyline points="-0.0903,0.9663 -0.0967,0.968 -0.103,0.9695 -0.1093,0.9708 -0.1155,0.9718 -0.1217,0.9726 -0.1278,0.9732 -0.1338,0.9735 -0.1398,0.9737 -0.1457,0.9737 -0.1515,0.9734 -0.1572,0.973 -0.1628,0.9723 -0.1683,0.9715 -0.1737,0.9705 -0.179,0.9693 -0.1842,0.9679 -0.1892,0.9664 -0.1941,0.9647 -0.1988,0.9628 -0.2034,0.9608 -0.2078,0.9586 -0.2121,0.9563 -0.2162,0.9538 -0.2201,0.9512 -0.2238,0.9485 -0.2273,0.9456 -0.2306,0.9426 -0.2338,0.9395 -0.2367,0.9363 -0.2394,0.9329 -0.2419,0.9295 -0.2441,0.9259 -0.2461,0.9222 -0.2478,0.9185 -0.2493,0.9146 -0.2506,0.9107 -0.2516,0.9067 -0.2523,0.9026 -0.2527,0.8984 -0.2528,0.8942" fill="none" id="repeat_m1--flower-support--proto_sw_1_1__flower_2__flower_support" data-instance-id="repeat_m1--flower-support--proto_sw_1_1__flower_2__flower_support" data-repeat-id="repeat_m1" data-repeat-shift="-1" data-mount-id="proto_sw_1_1__flower_2__flower_support" stroke="#007800" stroke-width="0.010" stroke-linejoin="round" stroke-linecap="round" data-flower-id="flower_2"/><polyline points="-0.4714,0.8785 -0.4793,0.8845 -0.4875,0.8902 -0.4959,0.8956 -0.5044,0.9006 -0.513,0.9054 -0.5218,0.9098 -0.5307,0.9138 -0.5396,0.9176 -0.5486,0.921 -0.5577,0.9241 -0.5667,0.9269 -0.5758,0.9294 -0.5848,0.9316 -0.5938,0.9334 -0.6027,0.9349 -0.6115,0.9361 -0.6202,0.937 -0.6288,0.9376 -0.6372,0.9379 -0.6455,0.9378 -0.6535,0.9374 -0.6613,0.9367 -0.6689,0.9357 -0.6763,0.9344 -0.6833,0.9328 -0.69,0.9309 -0.6965,0.9286 -0.7026,0.9261 -0.7083,0.9232 -0.7136,0.92 -0.7185,0.9165 -0.723,0.9127 -0.7271,0.9086 -0.7306,0.9042 -0.7337,0.8995 -0.7363,0.8945 -0.7383,0.8892 -0.7398,0.8835 -0.7407,0.8776 -0.741,0.8714" fill="none" id="repeat_m1--flower-support--proto_sw_1_1__flower_1__flower_support" data-instance-id="repeat_m1--flower-support--proto_sw_1_1__flower_1__flower_support" data-repeat-id="repeat_m1" data-repeat-shift="-1" data-mount-id="proto_sw_1_1__flower_1__flower_support" stroke="#007800" stroke-width="0.010" stroke-linejoin="round" stroke-linecap="round" data-flower-id="flower_1"/></g><g id="flower-support--repeat_0" data-instance-id="flower-support--repeat_0" data-repeat-id="repeat_0" data-repeat-shift="0"><polyline points="0.9097,0.9663 0.9033,0.968 0.897,0.9695 0.8907,0.9708 0.8845,0.9718 0.8783,0.9726 0.8722,0.9732 0.8662,0.9735 0.8602,0.9737 0.8543,0.9737 0.8485,0.9734 0.8428,0.973 0.8372,0.9723 0.8317,0.9715 0.8263,0.9705 0.821,0.9693 0.8158,0.9679 0.8108,0.9664 0.8059,0.9647 0.8012,0.9628 0.7966,0.9608 0.7922,0.9586 0.7879,0.9563 0.7838,0.9538 0.7799,0.9512 0.7762,0.9485 0.7727,0.9456 0.7694,0.9426 0.7662,0.9395 0.7633,0.9363 0.7606,0.9329 0.7581,0.9295 0.7559,0.9259 0.7539,0.9222 0.7522,0.9185 0.7507,0.9146 0.7494,0.9107 0.7484,0.9067 0.7477,0.9026 0.7473,0.8984 0.7472,0.8942" fill="none" id="repeat_0--flower-support--proto_sw_1_1__flower_2__flower_support" data-instance-id="repeat_0--flower-support--proto_sw_1_1__flower_2__flower_support" data-repeat-id="repeat_0" data-repeat-shift="0" data-mount-id="proto_sw_1_1__flower_2__flower_support" stroke="#007800" stroke-width="0.010" stroke-linejoin="round" stroke-linecap="round" data-flower-id="flower_2"/><polyline points="0.5286,0.8785 0.5207,0.8845 0.5125,0.8902 0.5041,0.8956 0.4956,0.9006 0.487,0.9054 0.4782,0.9098 0.4693,0.9138 0.4604,0.9176 0.4514,0.921 0.4423,0.9241 0.4333,0.9269 0.4242,0.9294 0.4152,0.9316 0.4062,0.9334 0.3973,0.9349 0.3885,0.9361 0.3798,0.937 0.3712,0.9376 0.3628,0.9379 0.3545,0.9378 0.3465,0.9374 0.3387,0.9367 0.3311,0.9357 0.3237,0.9344 0.3167,0.9328 0.31,0.9309 0.3035,0.9286 0.2974,0.9261 0.2917,0.9232 0.2864,0.92 0.2815,0.9165 0.277,0.9127 0.2729,0.9086 0.2694,0.9042 0.2663,0.8995 0.2637,0.8945 0.2617,0.8892 0.2602,0.8835 0.2593,0.8776 0.259,0.8714" fill="none" id="repeat_0--flower-support--proto_sw_1_1__flower_1__flower_support" data-instance-id="repeat_0--flower-support--proto_sw_1_1__flower_1__flower_support" data-repeat-id="repeat_0" data-repeat-shift="0" data-mount-id="proto_sw_1_1__flower_1__flower_support" stroke="#007800" stroke-width="0.010" stroke-linejoin="round" stroke-linecap="round" data-flower-id="flower_1"/></g><g id="flower-support--repeat_p1" data-instance-id="flower-support--repeat_p1" data-repeat-id="repeat_p1" data-repeat-shift="1"><polyline points="1.9097,0.9663 1.9033,0.968 1.897,0.9695 1.8907,0.9708 1.8845,0.9718 1.8783,0.9726 1.8722,0.9732 1.8662,0.9735 1.8602,0.9737 1.8543,0.9737 1.8485,0.9734 1.8428,0.973 1.8372,0.9723 1.8317,0.9715 1.8263,0.9705 1.821,0.9693 1.8158,0.9679 1.8108,0.9664 1.8059,0.9647 1.8012,0.9628 1.7966,0.9608 1.7922,0.9586 1.7879,0.9563 1.7838,0.9538 1.7799,0.9512 1.7762,0.9485 1.7727,0.9456 1.7694,0.9426 1.7662,0.9395 1.7633,0.9363 1.7606,0.9329 1.7581,0.9295 1.7559,0.9259 1.7539,0.9222 1.7522,0.9185 1.7507,0.9146 1.7494,0.9107 1.7484,0.9067 1.7477,0.9026 1.7473,0.8984 1.7472,0.8942" fill="none" id="repeat_p1--flower-support--proto_sw_1_1__flower_2__flower_support" data-instance-id="repeat_p1--flower-support--proto_sw_1_1__flower_2__flower_support" data-repeat-id="repeat_p1" data-repeat-shift="1" data-mount-id="proto_sw_1_1__flower_2__flower_support" stroke="#007800" stroke-width="0.010" stroke-linejoin="round" stroke-linecap="round" data-flower-id="flower_2"/><polyline points="1.5286,0.8785 1.5207,0.8845 1.5125,0.8902 1.5041,0.8956 1.4956,0.9006 1.487,0.9054 1.4782,0.9098 1.4693,0.9138 1.4604,0.9176 1.4514,0.921 1.4423,0.9241 1.4333,0.9269 1.4242,0.9294 1.4152,0.9316 1.4062,0.9334 1.3973,0.9349 1.3885,0.9361 1.3798,0.937 1.3712,0.9376 1.3628,0.9379 1.3545,0.9378 1.3465,0.9374 1.3387,0.9367 1.3311,0.9357 1.3237,0.9344 1.3167,0.9328 1.31,0.9309 1.3035,0.9286 1.2974,0.9261 1.2917,0.9232 1.2864,0.92 1.2815,0.9165 1.277,0.9127 1.2729,0.9086 1.2694,0.9042 1.2663,0.8995 1.2637,0.8945 1.2617,0.8892 1.2602,0.8835 1.2593,0.8776 1.259,0.8714" fill="none" id="repeat_p1--flower-support--proto_sw_1_1__flower_1__flower_support" data-instance-id="repeat_p1--flower-support--proto_sw_1_1__flower_1__flower_support" data-repeat-id="repeat_p1" data-repeat-shift="1" data-mount-id="proto_sw_1_1__flower_1__flower_support" stroke="#007800" stroke-width="0.010" stroke-linejoin="round" stroke-linecap="round" data-flower-id="flower_1"/></g></g><g id="flower-anchor-layer" data-instance-id="flower-anchor-layer" data-role="flower_anchor"><g id="flower-anchor--repeat_m1" data-instance-id="flower-anchor--repeat_m1" data-repeat-id="repeat_m1" data-repeat-shift="-1"><ellipse id="repeat_m1--flower-anchor--flower_1" data-instance-id="repeat_m1--flower-anchor--flower_1" data-repeat-id="repeat_m1" data-repeat-shift="-1" cx="-0.741" cy="0.628" rx="0.1355" ry="0.2434" fill="#fff7fb" stroke="#ff0000" stroke-width="0.006" data-flower-id="flower_1"/><ellipse id="repeat_m1--flower-anchor--flower_2" data-instance-id="repeat_m1--flower-anchor--flower_2" data-repeat-id="repeat_m1" data-repeat-shift="-1" cx="-0.2528" cy="0.6368" rx="0.1335" ry="0.2574" fill="#fff7fb" stroke="#ff0000" stroke-width="0.006" data-flower-id="flower_2"/></g><g id="flower-anchor--repeat_0" data-instance-id="flower-anchor--repeat_0" data-repeat-id="repeat_0" data-repeat-shift="0"><ellipse id="repeat_0--flower-anchor--flower_1" data-instance-id="repeat_0--flower-anchor--flower_1" data-repeat-id="repeat_0" data-repeat-shift="0" cx="0.259" cy="0.628" rx="0.1355" ry="0.2434" fill="#fff7fb" stroke="#ff0000" stroke-width="0.006" data-flower-id="flower_1"/><ellipse id="repeat_0--flower-anchor--flower_2" data-instance-id="repeat_0--flower-anchor--flower_2" data-repeat-id="repeat_0" data-repeat-shift="0" cx="0.7472" cy="0.6368" rx="0.1335" ry="0.2574" fill="#fff7fb" stroke="#ff0000" stroke-width="0.006" data-flower-id="flower_2"/></g><g id="flower-anchor--repeat_p1" data-instance-id="flower-anchor--repeat_p1" data-repeat-id="repeat_p1" data-repeat-shift="1"><ellipse id="repeat_p1--flower-anchor--flower_1" data-instance-id="repeat_p1--flower-anchor--flower_1" data-repeat-id="repeat_p1" data-repeat-shift="1" cx="1.259" cy="0.628" rx="0.1355" ry="0.2434" fill="#fff7fb" stroke="#ff0000" stroke-width="0.006" data-flower-id="flower_1"/><ellipse id="repeat_p1--flower-anchor--flower_2" data-instance-id="repeat_p1--flower-anchor--flower_2" data-repeat-id="repeat_p1" data-repeat-shift="1" cx="1.7472" cy="0.6368" rx="0.1335" ry="0.2574" fill="#fff7fb" stroke="#ff0000" stroke-width="0.006" data-flower-id="flower_2"/></g></g><g id="branches-layer" data-instance-id="branches-layer" data-role="branches"><g id="branches--repeat_m1" data-instance-id="branches--repeat_m1" data-repeat-id="repeat_m1" data-repeat-shift="-1"><path id="repeat_m1--curve--proto_sw_1_1__seed_3834742724__global_l1_flow_v3__density_medium__selected_l1_005.L1" data-instance-id="repeat_m1--curve--proto_sw_1_1__seed_3834742724__global_l1_flow_v3__density_medium__selected_l1_005.L1" data-repeat-id="repeat_m1" data-repeat-shift="-1" d="M -0.2709,1.1181 C -0.2368,1.0753 -0.1984,1.1064 -0.1802,1.0511" fill="none" stroke="#ff9900" stroke-width="0.01" stroke-linejoin="round" stroke-linecap="round" data-role="primary_branch" data-level="L1" data-curve-id="proto_sw_1_1__seed_3834742724__global_l1_flow_v3__density_medium__selected_l1_005.L1" data-parent-curve-id="None" data-lane-id="selected_l1_005" data-unit-id="proto_sw_1_1__seed_3834742724__global_l1_flow_v3__density_medium__selected_l1_005__Y-C__compact_c__context_opposed__sample_0102"/><path id="repeat_m1--curve--proto_sw_1_1__seed_3834742724__global_l1_flow_v3__density_medium__selected_l1_005.L2.1" data-instance-id="repeat_m1--curve--proto_sw_1_1__seed_3834742724__global_l1_flow_v3__density_medium__selected_l1_005.L2.1" data-repeat-id="repeat_m1" data-repeat-shift="-1" d="M -0.2432,1.0966 C -0.2349,1.0742 -0.2334,1.0671 -0.2169,1.0498" fill="none" stroke="#00ffff" stroke-width="0.007" stroke-linejoin="round" stroke-linecap="round" data-role="secondary_branch" data-level="L2" data-curve-id="proto_sw_1_1__seed_3834742724__global_l1_flow_v3__density_medium__selected_l1_005.L2.1" data-parent-curve-id="proto_sw_1_1__seed_3834742724__global_l1_flow_v3__density_medium__selected_l1_005.L1" data-lane-id="selected_l1_005" data-unit-id="proto_sw_1_1__seed_3834742724__global_l1_flow_v3__density_medium__selected_l1_005__Y-C__compact_c__context_opposed__sample_0102"/><path id="repeat_m1--curve--proto_sw_1_1__seed_3834742724__global_l1_flow_v3__density_medium__selected_l1_002.L1" data-instance-id="repeat_m1--curve--proto_sw_1_1__seed_3834742724__global_l1_flow_v3__density_medium__selected_l1_002.L1" data-repeat-id="repeat_m1" data-repeat-shift="-1" d="M -0.9,0.1446 C -0.958,0.2264 -1.1119,0.1663 -1.1466,0.2057" fill="none" stroke="#ff9900" stroke-width="0.01" stroke-linejoin="round" stroke-linecap="round" data-role="primary_branch" data-level="L1" data-curve-id="proto_sw_1_1__seed_3834742724__global_l1_flow_v3__density_medium__selected_l1_002.L1" data-parent-curve-id="None" data-lane-id="selected_l1_002" data-unit-id="proto_sw_1_1__seed_3834742724__global_l1_flow_v3__density_medium__selected_l1_002__Y-C__open_c__context_opposed__sample_0031"/><path id="repeat_m1--curve--proto_sw_1_1__seed_3834742724__global_l1_flow_v3__density_medium__selected_l1_002.L2.1" data-instance-id="repeat_m1--curve--proto_sw_1_1__seed_3834742724__global_l1_flow_v3__density_medium__selected_l1_002.L2.1" data-repeat-id="repeat_m1" data-repeat-shift="-1" d="M -0.9658,0.1851 C -0.9967,0.2322 -0.9998,0.2427 -1.0464,0.2743" fill="none" stroke="#00ffff" stroke-width="0.007" stroke-linejoin="round" stroke-linecap="round" data-role="secondary_branch" data-level="L2" data-curve-id="proto_sw_1_1__seed_3834742724__global_l1_flow_v3__density_medium__selected_l1_002.L2.1" data-parent-curve-id="proto_sw_1_1__seed_3834742724__global_l1_flow_v3__density_medium__selected_l1_002.L1" data-lane-id="selected_l1_002" data-unit-id="proto_sw_1_1__seed_3834742724__global_l1_flow_v3__density_medium__selected_l1_002__Y-C__open_c__context_opposed__sample_0031"/><path id="repeat_m1--curve--proto_sw_1_1__seed_3834742724__global_l1_flow_v3__density_medium__selected_l1_003.L1" data-instance-id="repeat_m1--curve--proto_sw_1_1__seed_3834742724__global_l1_flow_v3__density_medium__selected_l1_003.L1" data-repeat-id="repeat_m1" data-repeat-shift="-1" d="M -0.7397,0.0644 C -0.6751,0.1049 -0.7362,0.2509 -0.6556,0.3042" fill="none" stroke="#ff9900" stroke-width="0.01" stroke-linejoin="round" stroke-linecap="round" data-role="primary_branch" data-level="L1" data-curve-id="proto_sw_1_1__seed_3834742724__global_l1_flow_v3__density_medium__selected_l1_003.L1" data-parent-curve-id="None" data-lane-id="selected_l1_003" data-unit-id="proto_sw_1_1__seed_3834742724__global_l1_flow_v3__density_medium__selected_l1_003__L1-Only__independent_l1__context_preferred__sample_0050"/><path id="repeat_m1--curve--proto_sw_1_1__seed_3834742724__global_l1_flow_v3__density_medium__selected_l1_004.L1" data-instance-id="repeat_m1--curve--proto_sw_1_1__seed_3834742724__global_l1_flow_v3__density_medium__selected_l1_004.L1" data-repeat-id="repeat_m1" data-repeat-shift="-1" d="M -0.5395,0.3841 C -0.5495,0.3086 -0.4409,0.1933 -0.3907,0.1782" fill="none" stroke="#ff9900" stroke-width="0.01" stroke-linejoin="round" stroke-linecap="round" data-role="primary_branch" data-level="L1" data-curve-id="proto_sw_1_1__seed_3834742724__global_l1_flow_v3__density_medium__selected_l1_004.L1" data-parent-curve-id="None" data-lane-id="selected_l1_004" data-unit-id="proto_sw_1_1__seed_3834742724__global_l1_flow_v3__density_medium__selected_l1_004__L1-Only__independent_l1__context_preferred__sample_0075"/><path id="repeat_m1--curve--proto_sw_1_1__seed_3834742724__global_l1_flow_v3__density_medium__selected_l1_001.L1" data-instance-id="repeat_m1--curve--proto_sw_1_1__seed_3834742724__global_l1_flow_v3__density_medium__selected_l1_001.L1" data-repeat-id="repeat_m1" data-repeat-shift="-1" d="M -0.9805,0.4573 C -0.9742,0.3687 -1.1318,0.3158 -1.1273,0.2499" fill="none" stroke="#ff9900" stroke-width="0.01" stroke-linejoin="round" stroke-linecap="round" data-role="primary_branch" data-level="L1" data-curve-id="proto_sw_1_1__seed_3834742724__global_l1_flow_v3__density_medium__selected_l1_001.L1" data-parent-curve-id="None" data-lane-id="selected_l1_001" data-unit-id="proto_sw_1_1__seed_3834742724__global_l1_flow_v3__density_medium__selected_l1_001__L1-Only__independent_l1__context_preferred__sample_0000"/></g><g id="branches--repeat_0" data-instance-id="branches--repeat_0" data-repeat-id="repeat_0" data-repeat-shift="0"><path id="repeat_0--curve--proto_sw_1_1__seed_3834742724__global_l1_flow_v3__density_medium__selected_l1_005.L1" data-instance-id="repeat_0--curve--proto_sw_1_1__seed_3834742724__global_l1_flow_v3__density_medium__selected_l1_005.L1" data-repeat-id="repeat_0" data-repeat-shift="0" d="M 0.7291,1.1181 C 0.7632,1.0753 0.8016,1.1064 0.8198,1.0511" fill="none" stroke="#ff9900" stroke-width="0.01" stroke-linejoin="round" stroke-linecap="round" data-role="primary_branch" data-level="L1" data-curve-id="proto_sw_1_1__seed_3834742724__global_l1_flow_v3__density_medium__selected_l1_005.L1" data-parent-curve-id="None" data-lane-id="selected_l1_005" data-unit-id="proto_sw_1_1__seed_3834742724__global_l1_flow_v3__density_medium__selected_l1_005__Y-C__compact_c__context_opposed__sample_0102"/><path id="repeat_0--curve--proto_sw_1_1__seed_3834742724__global_l1_flow_v3__density_medium__selected_l1_005.L2.1" data-instance-id="repeat_0--curve--proto_sw_1_1__seed_3834742724__global_l1_flow_v3__density_medium__selected_l1_005.L2.1" data-repeat-id="repeat_0" data-repeat-shift="0" d="M 0.7568,1.0966 C 0.7651,1.0742 0.7666,1.0671 0.7831,1.0498" fill="none" stroke="#00ffff" stroke-width="0.007" stroke-linejoin="round" stroke-linecap="round" data-role="secondary_branch" data-level="L2" data-curve-id="proto_sw_1_1__seed_3834742724__global_l1_flow_v3__density_medium__selected_l1_005.L2.1" data-parent-curve-id="proto_sw_1_1__seed_3834742724__global_l1_flow_v3__density_medium__selected_l1_005.L1" data-lane-id="selected_l1_005" data-unit-id="proto_sw_1_1__seed_3834742724__global_l1_flow_v3__density_medium__selected_l1_005__Y-C__compact_c__context_opposed__sample_0102"/><path id="repeat_0--curve--proto_sw_1_1__seed_3834742724__global_l1_flow_v3__density_medium__selected_l1_002.L1" data-instance-id="repeat_0--curve--proto_sw_1_1__seed_3834742724__global_l1_flow_v3__density_medium__selected_l1_002.L1" data-repeat-id="repeat_0" data-repeat-shift="0" d="M 0.1,0.1446 C 0.042,0.2264 -0.1119,0.1663 -0.1466,0.2057" fill="none" stroke="#ff9900" stroke-width="0.01" stroke-linejoin="round" stroke-linecap="round" data-role="primary_branch" data-level="L1" data-curve-id="proto_sw_1_1__seed_3834742724__global_l1_flow_v3__density_medium__selected_l1_002.L1" data-parent-curve-id="None" data-lane-id="selected_l1_002" data-unit-id="proto_sw_1_1__seed_3834742724__global_l1_flow_v3__density_medium__selected_l1_002__Y-C__open_c__context_opposed__sample_0031"/><path id="repeat_0--curve--proto_sw_1_1__seed_3834742724__global_l1_flow_v3__density_medium__selected_l1_002.L2.1" data-instance-id="repeat_0--curve--proto_sw_1_1__seed_3834742724__global_l1_flow_v3__density_medium__selected_l1_002.L2.1" data-repeat-id="repeat_0" data-repeat-shift="0" d="M 0.0342,0.1851 C 0.0033,0.2322 0.0002,0.2427 -0.0464,0.2743" fill="none" stroke="#00ffff" stroke-width="0.007" stroke-linejoin="round" stroke-linecap="round" data-role="secondary_branch" data-level="L2" data-curve-id="proto_sw_1_1__seed_3834742724__global_l1_flow_v3__density_medium__selected_l1_002.L2.1" data-parent-curve-id="proto_sw_1_1__seed_3834742724__global_l1_flow_v3__density_medium__selected_l1_002.L1" data-lane-id="selected_l1_002" data-unit-id="proto_sw_1_1__seed_3834742724__global_l1_flow_v3__density_medium__selected_l1_002__Y-C__open_c__context_opposed__sample_0031"/><path id="repeat_0--curve--proto_sw_1_1__seed_3834742724__global_l1_flow_v3__density_medium__selected_l1_003.L1" data-instance-id="repeat_0--curve--proto_sw_1_1__seed_3834742724__global_l1_flow_v3__density_medium__selected_l1_003.L1" data-repeat-id="repeat_0" data-repeat-shift="0" d="M 0.2603,0.0644 C 0.3249,0.1049 0.2638,0.2509 0.3444,0.3042" fill="none" stroke="#ff9900" stroke-width="0.01" stroke-linejoin="round" stroke-linecap="round" data-role="primary_branch" data-level="L1" data-curve-id="proto_sw_1_1__seed_3834742724__global_l1_flow_v3__density_medium__selected_l1_003.L1" data-parent-curve-id="None" data-lane-id="selected_l1_003" data-unit-id="proto_sw_1_1__seed_3834742724__global_l1_flow_v3__density_medium__selected_l1_003__L1-Only__independent_l1__context_preferred__sample_0050"/><path id="repeat_0--curve--proto_sw_1_1__seed_3834742724__global_l1_flow_v3__density_medium__selected_l1_004.L1" data-instance-id="repeat_0--curve--proto_sw_1_1__seed_3834742724__global_l1_flow_v3__density_medium__selected_l1_004.L1" data-repeat-id="repeat_0" data-repeat-shift="0" d="M 0.4605,0.3841 C 0.4505,0.3086 0.5591,0.1933 0.6093,0.1782" fill="none" stroke="#ff9900" stroke-width="0.01" stroke-linejoin="round" stroke-linecap="round" data-role="primary_branch" data-level="L1" data-curve-id="proto_sw_1_1__seed_3834742724__global_l1_flow_v3__density_medium__selected_l1_004.L1" data-parent-curve-id="None" data-lane-id="selected_l1_004" data-unit-id="proto_sw_1_1__seed_3834742724__global_l1_flow_v3__density_medium__selected_l1_004__L1-Only__independent_l1__context_preferred__sample_0075"/><path id="repeat_0--curve--proto_sw_1_1__seed_3834742724__global_l1_flow_v3__density_medium__selected_l1_001.L1" data-instance-id="repeat_0--curve--proto_sw_1_1__seed_3834742724__global_l1_flow_v3__density_medium__selected_l1_001.L1" data-repeat-id="repeat_0" data-repeat-shift="0" d="M 0.0195,0.4573 C 0.0258,0.3687 -0.1318,0.3158 -0.1273,0.2499" fill="none" stroke="#ff9900" stroke-width="0.01" stroke-linejoin="round" stroke-linecap="round" data-role="primary_branch" data-level="L1" data-curve-id="proto_sw_1_1__seed_3834742724__global_l1_flow_v3__density_medium__selected_l1_001.L1" data-parent-curve-id="None" data-lane-id="selected_l1_001" data-unit-id="proto_sw_1_1__seed_3834742724__global_l1_flow_v3__density_medium__selected_l1_001__L1-Only__independent_l1__context_preferred__sample_0000"/></g><g id="branches--repeat_p1" data-instance-id="branches--repeat_p1" data-repeat-id="repeat_p1" data-repeat-shift="1"><path id="repeat_p1--curve--proto_sw_1_1__seed_3834742724__global_l1_flow_v3__density_medium__selected_l1_005.L1" data-instance-id="repeat_p1--curve--proto_sw_1_1__seed_3834742724__global_l1_flow_v3__density_medium__selected_l1_005.L1" data-repeat-id="repeat_p1" data-repeat-shift="1" d="M 1.7291,1.1181 C 1.7632,1.0753 1.8016,1.1064 1.8198,1.0511" fill="none" stroke="#ff9900" stroke-width="0.01" stroke-linejoin="round" stroke-linecap="round" data-role="primary_branch" data-level="L1" data-curve-id="proto_sw_1_1__seed_3834742724__global_l1_flow_v3__density_medium__selected_l1_005.L1" data-parent-curve-id="None" data-lane-id="selected_l1_005" data-unit-id="proto_sw_1_1__seed_3834742724__global_l1_flow_v3__density_medium__selected_l1_005__Y-C__compact_c__context_opposed__sample_0102"/><path id="repeat_p1--curve--proto_sw_1_1__seed_3834742724__global_l1_flow_v3__density_medium__selected_l1_005.L2.1" data-instance-id="repeat_p1--curve--proto_sw_1_1__seed_3834742724__global_l1_flow_v3__density_medium__selected_l1_005.L2.1" data-repeat-id="repeat_p1" data-repeat-shift="1" d="M 1.7568,1.0966 C 1.7651,1.0742 1.7666,1.0671 1.7831,1.0498" fill="none" stroke="#00ffff" stroke-width="0.007" stroke-linejoin="round" stroke-linecap="round" data-role="secondary_branch" data-level="L2" data-curve-id="proto_sw_1_1__seed_3834742724__global_l1_flow_v3__density_medium__selected_l1_005.L2.1" data-parent-curve-id="proto_sw_1_1__seed_3834742724__global_l1_flow_v3__density_medium__selected_l1_005.L1" data-lane-id="selected_l1_005" data-unit-id="proto_sw_1_1__seed_3834742724__global_l1_flow_v3__density_medium__selected_l1_005__Y-C__compact_c__context_opposed__sample_0102"/><path id="repeat_p1--curve--proto_sw_1_1__seed_3834742724__global_l1_flow_v3__density_medium__selected_l1_002.L1" data-instance-id="repeat_p1--curve--proto_sw_1_1__seed_3834742724__global_l1_flow_v3__density_medium__selected_l1_002.L1" data-repeat-id="repeat_p1" data-repeat-shift="1" d="M 1.1,0.1446 C 1.042,0.2264 0.8881,0.1663 0.8534,0.2057" fill="none" stroke="#ff9900" stroke-width="0.01" stroke-linejoin="round" stroke-linecap="round" data-role="primary_branch" data-level="L1" data-curve-id="proto_sw_1_1__seed_3834742724__global_l1_flow_v3__density_medium__selected_l1_002.L1" data-parent-curve-id="None" data-lane-id="selected_l1_002" data-unit-id="proto_sw_1_1__seed_3834742724__global_l1_flow_v3__density_medium__selected_l1_002__Y-C__open_c__context_opposed__sample_0031"/><path id="repeat_p1--curve--proto_sw_1_1__seed_3834742724__global_l1_flow_v3__density_medium__selected_l1_002.L2.1" data-instance-id="repeat_p1--curve--proto_sw_1_1__seed_3834742724__global_l1_flow_v3__density_medium__selected_l1_002.L2.1" data-repeat-id="repeat_p1" data-repeat-shift="1" d="M 1.0342,0.1851 C 1.0033,0.2322 1.0002,0.2427 0.9536,0.2743" fill="none" stroke="#00ffff" stroke-width="0.007" stroke-linejoin="round" stroke-linecap="round" data-role="secondary_branch" data-level="L2" data-curve-id="proto_sw_1_1__seed_3834742724__global_l1_flow_v3__density_medium__selected_l1_002.L2.1" data-parent-curve-id="proto_sw_1_1__seed_3834742724__global_l1_flow_v3__density_medium__selected_l1_002.L1" data-lane-id="selected_l1_002" data-unit-id="proto_sw_1_1__seed_3834742724__global_l1_flow_v3__density_medium__selected_l1_002__Y-C__open_c__context_opposed__sample_0031"/><path id="repeat_p1--curve--proto_sw_1_1__seed_3834742724__global_l1_flow_v3__density_medium__selected_l1_003.L1" data-instance-id="repeat_p1--curve--proto_sw_1_1__seed_3834742724__global_l1_flow_v3__density_medium__selected_l1_003.L1" data-repeat-id="repeat_p1" data-repeat-shift="1" d="M 1.2603,0.0644 C 1.3249,0.1049 1.2638,0.2509 1.3444,0.3042" fill="none" stroke="#ff9900" stroke-width="0.01" stroke-linejoin="round" stroke-linecap="round" data-role="primary_branch" data-level="L1" data-curve-id="proto_sw_1_1__seed_3834742724__global_l1_flow_v3__density_medium__selected_l1_003.L1" data-parent-curve-id="None" data-lane-id="selected_l1_003" data-unit-id="proto_sw_1_1__seed_3834742724__global_l1_flow_v3__density_medium__selected_l1_003__L1-Only__independent_l1__context_preferred__sample_0050"/><path id="repeat_p1--curve--proto_sw_1_1__seed_3834742724__global_l1_flow_v3__density_medium__selected_l1_004.L1" data-instance-id="repeat_p1--curve--proto_sw_1_1__seed_3834742724__global_l1_flow_v3__density_medium__selected_l1_004.L1" data-repeat-id="repeat_p1" data-repeat-shift="1" d="M 1.4605,0.3841 C 1.4505,0.3086 1.5591,0.1933 1.6093,0.1782" fill="none" stroke="#ff9900" stroke-width="0.01" stroke-linejoin="round" stroke-linecap="round" data-role="primary_branch" data-level="L1" data-curve-id="proto_sw_1_1__seed_3834742724__global_l1_flow_v3__density_medium__selected_l1_004.L1" data-parent-curve-id="None" data-lane-id="selected_l1_004" data-unit-id="proto_sw_1_1__seed_3834742724__global_l1_flow_v3__density_medium__selected_l1_004__L1-Only__independent_l1__context_preferred__sample_0075"/><path id="repeat_p1--curve--proto_sw_1_1__seed_3834742724__global_l1_flow_v3__density_medium__selected_l1_001.L1" data-instance-id="repeat_p1--curve--proto_sw_1_1__seed_3834742724__global_l1_flow_v3__density_medium__selected_l1_001.L1" data-repeat-id="repeat_p1" data-repeat-shift="1" d="M 1.0195,0.4573 C 1.0258,0.3687 0.8682,0.3158 0.8727,0.2499" fill="none" stroke="#ff9900" stroke-width="0.01" stroke-linejoin="round" stroke-linecap="round" data-role="primary_branch" data-level="L1" data-curve-id="proto_sw_1_1__seed_3834742724__global_l1_flow_v3__density_medium__selected_l1_001.L1" data-parent-curve-id="None" data-lane-id="selected_l1_001" data-unit-id="proto_sw_1_1__seed_3834742724__global_l1_flow_v3__density_medium__selected_l1_001__L1-Only__independent_l1__context_preferred__sample_0000"/></g></g></svg>