<svg xmlns="http://www.w3.org/2000/svg" id="structural-svg--proto_sw_1_3--production-seed-100023" data-prototype-id="proto_sw_1_3" data-production-seed="100023" data-backbone-seed="2106203238" data-flower-seed="2894732563" data-branch-seed="3230428333" data-unit-seed="229793637" data-backbone-variant-id="swept" data-density-level="medium" data-source-case="C034" data-source-contract-id="Ours" data-source-plan-id="proto_sw_1_3__seed_3230428333__global_l1_flow_v3__density_medium" data-source-selection-id="proto_sw_1_3__seed_3230428333__global_l1_flow_v3__density_medium__unit_candidates_v2__global_unit_selection_joint_h2b" data-repeat-mode="triple" viewBox="-1.08 0 3.16 1.1875" width="3160" height="1188"><rect x="-1.08" y="0" width="3.16" height="1.1875" fill="#f1efe9"/><metadata>role_color_identity_v2: backbone=#0000ff; primary_branch=#ff9900; secondary_branch=#00ffff; flower_support=#007800; flower_anchor=#ff0000; unit_boundary=#000000(dashed). data-role is authoritative; stroke color is a visual fallback.</metadata><g id="unit-boundaries" data-instance-id="unit-boundaries" data-role="unit_boundary"><line id="unit-boundary--00" data-instance-id="unit-boundary--00" data-boundary-x="-1" x1="-1" y1="0" x2="-1" y2="1.1875" stroke="#000000" stroke-dasharray="0.012 0.008" stroke-width="0.004"/><line id="unit-boundary--01" data-instance-id="unit-boundary--01" data-boundary-x="0" x1="0" y1="0" x2="0" y2="1.1875" stroke="#000000" stroke-dasharray="0.012 0.008" stroke-width="0.004"/><line id="unit-boundary--02" data-instance-id="unit-boundary--02" data-boundary-x="1" x1="1" y1="0" x2="1" y2="1.1875" stroke="#000000" stroke-dasharray="0.012 0.008" stroke-width="0.004"/><line id="unit-boundary--03" data-instance-id="unit-boundary--03" data-boundary-x="2" x1="2" y1="0" x2="2" y2="1.1875" stroke="#000000" stroke-dasharray="0.012 0.008" stroke-width="0.004"/></g><g id="backbone-layer" data-instance-id="backbone-layer" data-role="backbone"><g id="backbone--repeat_m1" data-instance-id="backbone--repeat_m1" data-repeat-id="repeat_m1" data-repeat-shift="-1"><polyline points="-1,0.471 -0.9872,0.4871 -0.9766,0.5046 -0.967,0.5227 -0.958,0.541 -0.9493,0.5595 -0.9411,0.5782 -0.9331,0.597 -0.9253,0.616 -0.9178,0.6351 -0.9104,0.6543 -0.9032,0.6737 -0.8961,0.6932 -0.8891,0.7129 -0.8822,0.7327 -0.8755,0.7527 -0.8687,0.7728 -0.8615,0.793 -0.8535,0.8131 -0.8447,0.8329 -0.835,0.8525 -0.824,0.8715 -0.8118,0.8898 -0.7984,0.9072 -0.7837,0.9233 -0.7677,0.9379 -0.7502,0.9504 -0.7316,0.9605 -0.712,0.9681 -0.6917,0.9729 -0.6709,0.9745 -0.65,0.9735 -0.6292,0.9696 -0.6087,0.963 -0.5889,0.9537 -0.5701,0.9413 -0.553,0.9249 -0.5392,0.908 -0.525,0.8899 -0.5125,0.8711 -0.501,0.8519 -0.4902,0.8325 -0.4802,0.8128 -0.4707,0.7931 -0.4618,0.7732 -0.4535,0.7532 -0.4457,0.7332 -0.4384,0.7131 -0.4316,0.6931 -0.4252,0.6729 -0.4192,0.6528 -0.4137,0.6327 -0.4086,0.6125 -0.4039,0.5922 -0.3996,0.5725 -0.3953,0.5543 -0.3858,0.5364 -0.3757,0.5188 -0.3649,0.5017 -0.3535,0.4849 -0.3414,0.4686 -0.3287,0.4529 -0.3152,0.4377 -0.301,0.4234 -0.2858,0.4101 -0.2696,0.398 -0.2525,0.3875 -0.2342,0.379 -0.2148,0.3727 -0.1946,0.3696 -0.1737,0.3696 -0.1529,0.3731 -0.1324,0.3761 -0.1117,0.3792 -0.0918,0.3869 -0.0733,0.3975 -0.0562,0.4099 -0.0405,0.4239 -0.026,0.4388 -0.0126,0.4546 0,0.471" fill="none" id="repeat_m1--backbone" data-instance-id="repeat_m1--backbone" data-repeat-id="repeat_m1" data-repeat-shift="-1" stroke="#0000ff" stroke-width="0.007" stroke-linejoin="round" stroke-linecap="round"/></g><g id="backbone--repeat_0" data-instance-id="backbone--repeat_0" data-repeat-id="repeat_0" data-repeat-shift="0"><polyline points="0,0.471 0.0128,0.4871 0.0234,0.5046 0.033,0.5227 0.042,0.541 0.0507,0.5595 0.0589,0.5782 0.0669,0.597 0.0747,0.616 0.0822,0.6351 0.0896,0.6543 0.0968,0.6737 0.1039,0.6932 0.1109,0.7129 0.1178,0.7327 0.1245,0.7527 0.1313,0.7728 0.1385,0.793 0.1465,0.8131 0.1553,0.8329 0.165,0.8525 0.176,0.8715 0.1882,0.8898 0.2016,0.9072 0.2163,0.9233 0.2323,0.9379 0.2498,0.9504 0.2684,0.9605 0.288,0.9681 0.3083,0.9729 0.3291,0.9745 0.35,0.9735 0.3708,0.9696 0.3913,0.963 0.4111,0.9537 0.4299,0.9413 0.447,0.9249 0.4608,0.908 0.475,0.8899 0.4875,0.8711 0.499,0.8519 0.5098,0.8325 0.5198,0.8128 0.5293,0.7931 0.5382,0.7732 0.5465,0.7532 0.5543,0.7332 0.5616,0.7131 0.5684,0.6931 0.5748,0.6729 0.5808,0.6528 0.5863,0.6327 0.5914,0.6125 0.5961,0.5922 0.6004,0.5725 0.6047,0.5543 0.6142,0.5364 0.6243,0.5188 0.6351,0.5017 0.6465,0.4849 0.6586,0.4686 0.6713,0.4529 0.6848,0.4377 0.699,0.4234 0.7142,0.4101 0.7304,0.398 0.7475,0.3875 0.7658,0.379 0.7852,0.3727 0.8054,0.3696 0.8263,0.3696 0.8471,0.3731 0.8676,0.3761 0.8883,0.3792 0.9082,0.3869 0.9267,0.3975 0.9438,0.4099 0.9595,0.4239 0.974,0.4388 0.9874,0.4546 1,0.471" fill="none" id="repeat_0--backbone" data-instance-id="repeat_0--backbone" data-repeat-id="repeat_0" data-repeat-shift="0" stroke="#0000ff" stroke-width="0.014" stroke-linejoin="round" stroke-linecap="round"/></g><g id="backbone--repeat_p1" data-instance-id="backbone--repeat_p1" data-repeat-id="repeat_p1" data-repeat-shift="1"><polyline points="1,0.471 1.0128,0.4871 1.0234,0.5046 1.033,0.5227 1.042,0.541 1.0507,0.5595 1.0589,0.5782 1.0669,0.597 1.0747,0.616 1.0822,0.6351 1.0896,0.6543 1.0968,0.6737 1.1039,0.6932 1.1109,0.7129 1.1178,0.7327 1.1245,0.7527 1.1313,0.7728 1.1385,0.793 1.1465,0.8131 1.1553,0.8329 1.165,0.8525 1.176,0.8715 1.1882,0.8898 1.2016,0.9072 1.2163,0.9233 1.2323,0.9379 1.2498,0.9504 1.2684,0.9605 1.288,0.9681 1.3083,0.9729 1.3291,0.9745 1.35,0.9735 1.3708,0.9696 1.3913,0.963 1.4111,0.9537 1.4299,0.9413 1.447,0.9249 1.4608,0.908 1.475,0.8899 1.4875,0.8711 1.499,0.8519 1.5098,0.8325 1.5198,0.8128 1.5293,0.7931 1.5382,0.7732 1.5465,0.7532 1.5543,0.7332 1.5616,0.7131 1.5684,0.6931 1.5748,0.6729 1.5808,0.6528 1.5863,0.6327 1.5914,0.6125 1.5961,0.5922 1.6004,0.5725 1.6047,0.5543 1.6142,0.5364 1.6243,0.5188 1.6351,0.5017 1.6465,0.4849 1.6586,0.4686 1.6713,0.4529 1.6848,0.4377 1.699,0.4234 1.7142,0.4101 1.7304,0.398 1.7475,0.3875 1.7658,0.379 1.7852,0.3727 1.8054,0.3696 1.8263,0.3696 1.8471,0.3731 1.8676,0.3761 1.8883,0.3792 1.9082,0.3869 1.9267,0.3975 1.9438,0.4099 1.9595,0.4239 1.974,0.4388 1.9874,0.4546 2,0.471" fill="none" id="repeat_p1--backbone" data-instance-id="repeat_p1--backbone" data-repeat-id="repeat_p1" data-repeat-shift="1" stroke="#0000ff" stroke-width="0.007" stroke-linejoin="round" stroke-linecap="round"/></g></g><g id="flower-support-layer" data-instance-id="flower-support-layer" data-role="flower_support"><g id="flower-support--repeat_m1" data-instance-id="flower-support--repeat_m1" data-repeat-id="repeat_m1" data-repeat-shift="-1"><polyline points="-0.6709,0.9745 -0.668,0.9712 -0.6652,0.968 -0.6627,0.9648 -0.6604,0.9615 -0.6583,0.9582 -0.6564,0.9549 -0.6546,0.9516 -0.6531,0.9483 -0.6517,0.9449 -0.6505,0.9416 -0.6494,0.9383 -0.6485,0.9349 -0.6478,0.9316 -0.6471,0.9283 -0.6466,0.9249 -0.6462,0.9216 -0.6459,0.9183 -0.6457,0.915 -0.6456,0.9117 -0.6456,0.9085 -0.6457,0.9052 -0.6458,0.902 -0.646,0.8988 -0.6463,0.8956 -0.6466,0.8925 -0.6469,0.8894 -0.6473,0.8863 -0.6477,0.8832 -0.6481,0.8802 -0.6485,0.8772 -0.6489,0.8743 -0.6493,0.8714 -0.6497,0.8685 -0.65,0.8657 -0.6503,0.8629 -0.6506,0.8602 -0.6509,0.8576 -0.651,0.855 -0.6511,0.8524 -0.6512,0.8499" fill="none" id="repeat_m1--flower-support--proto_sw_1_3__flower_1__flower_support" data-instance-id="repeat_m1--flower-support--proto_sw_1_3__flower_1__flower_support" data-repeat-id="repeat_m1" data-repeat-shift="-1" data-mount-id="proto_sw_1_3__flower_1__flower_support" stroke="#007800" stroke-width="0.010" stroke-linejoin="round" stroke-linecap="round" data-flower-id="flower_1"/><polyline points="-0.553,0.9249 -0.5419,0.9297 -0.5305,0.9343 -0.5188,0.9387 -0.5068,0.9428 -0.4947,0.9466 -0.4823,0.9502 -0.4698,0.9536 -0.4572,0.9566 -0.4445,0.9594 -0.4317,0.962 -0.4189,0.9643 -0.406,0.9663 -0.3932,0.9681 -0.3805,0.9697 -0.3679,0.9709 -0.3554,0.972 -0.343,0.9727 -0.3308,0.9732 -0.3188,0.9735 -0.3071,0.9735 -0.2956,0.9733 -0.2845,0.9728 -0.2737,0.972 -0.2632,0.971 -0.2532,0.9698 -0.2435,0.9682 -0.2344,0.9665 -0.2257,0.9645 -0.2175,0.9622 -0.2099,0.9597 -0.2029,0.9569 -0.1964,0.9539 -0.1907,0.9507 -0.1855,0.9472 -0.1811,0.9434 -0.1775,0.9394 -0.1745,0.9352 -0.1724,0.9307 -0.1711,0.9259 -0.1707,0.9209" fill="none" id="repeat_m1--flower-support--proto_sw_1_3__flower_2__flower_support" data-instance-id="repeat_m1--flower-support--proto_sw_1_3__flower_2__flower_support" data-repeat-id="repeat_m1" data-repeat-shift="-1" data-mount-id="proto_sw_1_3__flower_2__flower_support" stroke="#007800" stroke-width="0.010" stroke-linejoin="round" stroke-linecap="round" data-flower-id="flower_2"/></g><g id="flower-support--repeat_0" data-instance-id="flower-support--repeat_0" data-repeat-id="repeat_0" data-repeat-shift="0"><polyline points="0.3291,0.9745 0.332,0.9712 0.3348,0.968 0.3373,0.9648 0.3396,0.9615 0.3417,0.9582 0.3436,0.9549 0.3454,0.9516 0.3469,0.9483 0.3483,0.9449 0.3495,0.9416 0.3506,0.9383 0.3515,0.9349 0.3522,0.9316 0.3529,0.9283 0.3534,0.9249 0.3538,0.9216 0.3541,0.9183 0.3543,0.915 0.3544,0.9117 0.3544,0.9085 0.3543,0.9052 0.3542,0.902 0.354,0.8988 0.3537,0.8956 0.3534,0.8925 0.3531,0.8894 0.3527,0.8863 0.3523,0.8832 0.3519,0.8802 0.3515,0.8772 0.3511,0.8743 0.3507,0.8714 0.3503,0.8685 0.35,0.8657 0.3497,0.8629 0.3494,0.8602 0.3491,0.8576 0.349,0.855 0.3489,0.8524 0.3488,0.8499" fill="none" id="repeat_0--flower-support--proto_sw_1_3__flower_1__flower_support" data-instance-id="repeat_0--flower-support--proto_sw_1_3__flower_1__flower_support" data-repeat-id="repeat_0" data-repeat-shift="0" data-mount-id="proto_sw_1_3__flower_1__flower_support" stroke="#007800" stroke-width="0.010" stroke-linejoin="round" stroke-linecap="round" data-flower-id="flower_1"/><polyline points="0.447,0.9249 0.4581,0.9297 0.4695,0.9343 0.4812,0.9387 0.4932,0.9428 0.5053,0.9466 0.5177,0.9502 0.5302,0.9536 0.5428,0.9566 0.5555,0.9594 0.5683,0.962 0.5811,0.9643 0.594,0.9663 0.6068,0.9681 0.6195,0.9697 0.6321,0.9709 0.6446,0.972 0.657,0.9727 0.6692,0.9732 0.6812,0.9735 0.6929,0.9735 0.7044,0.9733 0.7155,0.9728 0.7263,0.972 0.7368,0.971 0.7468,0.9698 0.7565,0.9682 0.7656,0.9665 0.7743,0.9645 0.7825,0.9622 0.7901,0.9597 0.7971,0.9569 0.8036,0.9539 0.8093,0.9507 0.8145,0.9472 0.8189,0.9434 0.8225,0.9394 0.8255,0.9352 0.8276,0.9307 0.8289,0.9259 0.8293,0.9209" fill="none" id="repeat_0--flower-support--proto_sw_1_3__flower_2__flower_support" data-instance-id="repeat_0--flower-support--proto_sw_1_3__flower_2__flower_support" data-repeat-id="repeat_0" data-repeat-shift="0" data-mount-id="proto_sw_1_3__flower_2__flower_support" stroke="#007800" stroke-width="0.010" stroke-linejoin="round" stroke-linecap="round" data-flower-id="flower_2"/></g><g id="flower-support--repeat_p1" data-instance-id="flower-support--repeat_p1" data-repeat-id="repeat_p1" data-repeat-shift="1"><polyline points="1.3291,0.9745 1.332,0.9712 1.3348,0.968 1.3373,0.9648 1.3396,0.9615 1.3417,0.9582 1.3436,0.9549 1.3454,0.9516 1.3469,0.9483 1.3483,0.9449 1.3495,0.9416 1.3506,0.9383 1.3515,0.9349 1.3522,0.9316 1.3529,0.9283 1.3534,0.9249 1.3538,0.9216 1.3541,0.9183 1.3543,0.915 1.3544,0.9117 1.3544,0.9085 1.3543,0.9052 1.3542,0.902 1.354,0.8988 1.3537,0.8956 1.3534,0.8925 1.3531,0.8894 1.3527,0.8863 1.3523,0.8832 1.3519,0.8802 1.3515,0.8772 1.3511,0.8743 1.3507,0.8714 1.3503,0.8685 1.35,0.8657 1.3497,0.8629 1.3494,0.8602 1.3491,0.8576 1.349,0.855 1.3489,0.8524 1.3488,0.8499" fill="none" id="repeat_p1--flower-support--proto_sw_1_3__flower_1__flower_support" data-instance-id="repeat_p1--flower-support--proto_sw_1_3__flower_1__flower_support" data-repeat-id="repeat_p1" data-repeat-shift="1" data-mount-id="proto_sw_1_3__flower_1__flower_support" stroke="#007800" stroke-width="0.010" stroke-linejoin="round" stroke-linecap="round" data-flower-id="flower_1"/><polyline points="1.447,0.9249 1.4581,0.9297 1.4695,0.9343 1.4812,0.9387 1.4932,0.9428 1.5053,0.9466 1.5177,0.9502 1.5302,0.9536 1.5428,0.9566 1.5555,0.9594 1.5683,0.962 1.5811,0.9643 1.594,0.9663 1.6068,0.9681 1.6195,0.9697 1.6321,0.9709 1.6446,0.972 1.657,0.9727 1.6692,0.9732 1.6812,0.9735 1.6929,0.9735 1.7044,0.9733 1.7155,0.9728 1.7263,0.972 1.7368,0.971 1.7468,0.9698 1.7565,0.9682 1.7656,0.9665 1.7743,0.9645 1.7825,0.9622 1.7901,0.9597 1.7971,0.9569 1.8036,0.9539 1.8093,0.9507 1.8145,0.9472 1.8189,0.9434 1.8225,0.9394 1.8255,0.9352 1.8276,0.9307 1.8289,0.9259 1.8293,0.9209" fill="none" id="repeat_p1--flower-support--proto_sw_1_3__flower_2__flower_support" data-instance-id="repeat_p1--flower-support--proto_sw_1_3__flower_2__flower_support" data-repeat-id="repeat_p1" data-repeat-shift="1" data-mount-id="proto_sw_1_3__flower_2__flower_support" stroke="#007800" stroke-width="0.010" stroke-linejoin="round" stroke-linecap="round" data-flower-id="flower_2"/></g></g><g id="flower-anchor-layer" data-instance-id="flower-anchor-layer" data-role="flower_anchor"><g id="flower-anchor--repeat_m1" data-instance-id="flower-anchor--repeat_m1" data-repeat-id="repeat_m1" data-repeat-shift="-1"><ellipse id="repeat_m1--flower-anchor--flower_1" data-instance-id="repeat_m1--flower-anchor--flower_1" data-repeat-id="repeat_m1" data-repeat-shift="-1" cx="-0.6512" cy="0.6549" rx="0.1516" ry="0.195" fill="#fff7fb" stroke="#ff0000" stroke-width="0.006" data-flower-id="flower_1"/><ellipse id="repeat_m1--flower-anchor--flower_2" data-instance-id="repeat_m1--flower-anchor--flower_2" data-repeat-id="repeat_m1" data-repeat-shift="-1" cx="-0.1707" cy="0.7259" rx="0.1516" ry="0.195" fill="#fff7fb" stroke="#ff0000" stroke-width="0.006" data-flower-id="flower_2"/></g><g id="flower-anchor--repeat_0" data-instance-id="flower-anchor--repeat_0" data-repeat-id="repeat_0" data-repeat-shift="0"><ellipse id="repeat_0--flower-anchor--flower_1" data-instance-id="repeat_0--flower-anchor--flower_1" data-repeat-id="repeat_0" data-repeat-shift="0" cx="0.3488" cy="0.6549" rx="0.1516" ry="0.195" fill="#fff7fb" stroke="#ff0000" stroke-width="0.006" data-flower-id="flower_1"/><ellipse id="repeat_0--flower-anchor--flower_2" data-instance-id="repeat_0--flower-anchor--flower_2" data-repeat-id="repeat_0" data-repeat-shift="0" cx="0.8293" cy="0.7259" rx="0.1516" ry="0.195" fill="#fff7fb" stroke="#ff0000" stroke-width="0.006" data-flower-id="flower_2"/></g><g id="flower-anchor--repeat_p1" data-instance-id="flower-anchor--repeat_p1" data-repeat-id="repeat_p1" data-repeat-shift="1"><ellipse id="repeat_p1--flower-anchor--flower_1" data-instance-id="repeat_p1--flower-anchor--flower_1" data-repeat-id="repeat_p1" data-repeat-shift="1" cx="1.3488" cy="0.6549" rx="0.1516" ry="0.195" fill="#fff7fb" stroke="#ff0000" stroke-width="0.006" data-flower-id="flower_1"/><ellipse id="repeat_p1--flower-anchor--flower_2" data-instance-id="repeat_p1--flower-anchor--flower_2" data-repeat-id="repeat_p1" data-repeat-shift="1" cx="1.8293" cy="0.7259" rx="0.1516" ry="0.195" fill="#fff7fb" stroke="#ff0000" stroke-width="0.006" data-flower-id="flower_2"/></g></g><g id="branches-layer" data-instance-id="branches-layer" data-role="branches"><g id="branches--repeat_m1" data-instance-id="branches--repeat_m1" data-repeat-id="repeat_m1" data-repeat-shift="-1"><path id="repeat_m1--curve--proto_sw_1_3__seed_3230428333__global_l1_flow_v3__density_medium__selected_l1_001.L1" data-instance-id="repeat_m1--curve--proto_sw_1_3__seed_3230428333__global_l1_flow_v3__density_medium__selected_l1_001.L1" data-repeat-id="repeat_m1" data-repeat-shift="-1" d="M -0.9435,0.5726 C -0.9093,0.6272 -0.8661,0.5566 -0.8326,0.5929" fill="none" stroke="#ff9900" stroke-width="0.01" stroke-linejoin="round" stroke-linecap="round" data-role="primary_branch" data-level="L1" data-curve-id="proto_sw_1_3__seed_3230428333__global_l1_flow_v3__density_medium__selected_l1_001.L1" data-parent-curve-id="None" data-lane-id="selected_l1_001" data-unit-id="proto_sw_1_3__seed_3230428333__global_l1_flow_v3__density_medium__selected_l1_001__L1-Only__independent_l1__context_preferred__sample_0000"/><path id="repeat_m1--curve--proto_sw_1_3__seed_3230428333__global_l1_flow_v3__density_medium__selected_l1_003.L1" data-instance-id="repeat_m1--curve--proto_sw_1_3__seed_3230428333__global_l1_flow_v3__density_medium__selected_l1_003.L1" data-repeat-id="repeat_m1" data-repeat-shift="-1" d="M -0.3225,0.4459 C -0.4417,0.5241 -0.3853,0.5588 -0.4495,0.6338" fill="none" stroke="#ff9900" stroke-width="0.01" stroke-linejoin="round" stroke-linecap="round" data-role="primary_branch" data-level="L1" data-curve-id="proto_sw_1_3__seed_3230428333__global_l1_flow_v3__density_medium__selected_l1_003.L1" data-parent-curve-id="None" data-lane-id="selected_l1_003" data-unit-id="proto_sw_1_3__seed_3230428333__global_l1_flow_v3__density_medium__selected_l1_003__L1-Only__independent_l1__context_preferred__sample_0050"/><path id="repeat_m1--curve--proto_sw_1_3__seed_3230428333__global_l1_flow_v3__density_medium__selected_l1_002.L1" data-instance-id="repeat_m1--curve--proto_sw_1_3__seed_3230428333__global_l1_flow_v3__density_medium__selected_l1_002.L1" data-repeat-id="repeat_m1" data-repeat-shift="-1" d="M -0.8549,0.8095 C -0.8143,0.9445 -0.9012,0.9499 -0.8505,1.0363" fill="none" stroke="#ff9900" stroke-width="0.01" stroke-linejoin="round" stroke-linecap="round" data-role="primary_branch" data-level="L1" data-curve-id="proto_sw_1_3__seed_3230428333__global_l1_flow_v3__density_medium__selected_l1_002.L1" data-parent-curve-id="None" data-lane-id="selected_l1_002" data-unit-id="proto_sw_1_3__seed_3230428333__global_l1_flow_v3__density_medium__selected_l1_002__Y-C__open_c__context_preferred__sample_0030"/><path id="repeat_m1--curve--proto_sw_1_3__seed_3230428333__global_l1_flow_v3__density_medium__selected_l1_002.L2.1" data-instance-id="repeat_m1--curve--proto_sw_1_3__seed_3230428333__global_l1_flow_v3__density_medium__selected_l1_002.L2.1" data-repeat-id="repeat_m1" data-repeat-shift="-1" d="M -0.8668,0.9833 C -0.9045,1.0164 -0.9135,1.0195 -0.9371,1.0637" fill="none" stroke="#00ffff" stroke-width="0.007" stroke-linejoin="round" stroke-linecap="round" data-role="secondary_branch" data-level="L2" data-curve-id="proto_sw_1_3__seed_3230428333__global_l1_flow_v3__density_medium__selected_l1_002.L2.1" data-parent-curve-id="proto_sw_1_3__seed_3230428333__global_l1_flow_v3__density_medium__selected_l1_002.L1" data-lane-id="selected_l1_002" data-unit-id="proto_sw_1_3__seed_3230428333__global_l1_flow_v3__density_medium__selected_l1_002__Y-C__open_c__context_preferred__sample_0030"/><path id="repeat_m1--curve--proto_sw_1_3__seed_3230428333__global_l1_flow_v3__density_medium__selected_l1_005.L1" data-instance-id="repeat_m1--curve--proto_sw_1_3__seed_3230428333__global_l1_flow_v3__density_medium__selected_l1_005.L1" data-repeat-id="repeat_m1" data-repeat-shift="-1" d="M -0.0202,0.4456 C 0.0273,0.4808 0.102,0.4138 0.2024,0.4023" fill="none" stroke="#ff9900" stroke-width="0.01" stroke-linejoin="round" stroke-linecap="round" data-role="primary_branch" data-level="L1" data-curve-id="proto_sw_1_3__seed_3230428333__global_l1_flow_v3__density_medium__selected_l1_005.L1" data-parent-curve-id="None" data-lane-id="selected_l1_005" data-unit-id="proto_sw_1_3__seed_3230428333__global_l1_flow_v3__density_medium__selected_l1_005__L1-Only__independent_l1__context_preferred__sample_0100"/><path id="repeat_m1--curve--proto_sw_1_3__seed_3230428333__global_l1_flow_v3__density_medium__selected_l1_004.L1" data-instance-id="repeat_m1--curve--proto_sw_1_3__seed_3230428333__global_l1_flow_v3__density_medium__selected_l1_004.L1" data-repeat-id="repeat_m1" data-repeat-shift="-1" d="M -0.2,0.3704 C -0.3409,0.3283 -0.3714,0.2125 -0.3877,0.1231" fill="none" stroke="#ff9900" stroke-width="0.01" stroke-linejoin="round" stroke-linecap="round" data-role="primary_branch" data-level="L1" data-curve-id="proto_sw_1_3__seed_3230428333__global_l1_flow_v3__density_medium__selected_l1_004.L1" data-parent-curve-id="None" data-lane-id="selected_l1_004" data-unit-id="proto_sw_1_3__seed_3230428333__global_l1_flow_v3__density_medium__selected_l1_004__L1-Only__independent_l1__context_preferred__sample_0075"/></g><g id="branches--repeat_0" data-instance-id="branches--repeat_0" data-repeat-id="repeat_0" data-repeat-shift="0"><path id="repeat_0--curve--proto_sw_1_3__seed_3230428333__global_l1_flow_v3__density_medium__selected_l1_001.L1" data-instance-id="repeat_0--curve--proto_sw_1_3__seed_3230428333__global_l1_flow_v3__density_medium__selected_l1_001.L1" data-repeat-id="repeat_0" data-repeat-shift="0" d="M 0.0565,0.5726 C 0.0907,0.6272 0.1339,0.5566 0.1674,0.5929" fill="none" stroke="#ff9900" stroke-width="0.01" stroke-linejoin="round" stroke-linecap="round" data-role="primary_branch" data-level="L1" data-curve-id="proto_sw_1_3__seed_3230428333__global_l1_flow_v3__density_medium__selected_l1_001.L1" data-parent-curve-id="None" data-lane-id="selected_l1_001" data-unit-id="proto_sw_1_3__seed_3230428333__global_l1_flow_v3__density_medium__selected_l1_001__L1-Only__independent_l1__context_preferred__sample_0000"/><path id="repeat_0--curve--proto_sw_1_3__seed_3230428333__global_l1_flow_v3__density_medium__selected_l1_003.L1" data-instance-id="repeat_0--curve--proto_sw_1_3__seed_3230428333__global_l1_flow_v3__density_medium__selected_l1_003.L1" data-repeat-id="repeat_0" data-repeat-shift="0" d="M 0.6775,0.4459 C 0.5583,0.5241 0.6147,0.5588 0.5505,0.6338" fill="none" stroke="#ff9900" stroke-width="0.01" stroke-linejoin="round" stroke-linecap="round" data-role="primary_branch" data-level="L1" data-curve-id="proto_sw_1_3__seed_3230428333__global_l1_flow_v3__density_medium__selected_l1_003.L1" data-parent-curve-id="None" data-lane-id="selected_l1_003" data-unit-id="proto_sw_1_3__seed_3230428333__global_l1_flow_v3__density_medium__selected_l1_003__L1-Only__independent_l1__context_preferred__sample_0050"/><path id="repeat_0--curve--proto_sw_1_3__seed_3230428333__global_l1_flow_v3__density_medium__selected_l1_002.L1" data-instance-id="repeat_0--curve--proto_sw_1_3__seed_3230428333__global_l1_flow_v3__density_medium__selected_l1_002.L1" data-repeat-id="repeat_0" data-repeat-shift="0" d="M 0.1451,0.8095 C 0.1857,0.9445 0.0988,0.9499 0.1495,1.0363" fill="none" stroke="#ff9900" stroke-width="0.01" stroke-linejoin="round" stroke-linecap="round" data-role="primary_branch" data-level="L1" data-curve-id="proto_sw_1_3__seed_3230428333__global_l1_flow_v3__density_medium__selected_l1_002.L1" data-parent-curve-id="None" data-lane-id="selected_l1_002" data-unit-id="proto_sw_1_3__seed_3230428333__global_l1_flow_v3__density_medium__selected_l1_002__Y-C__open_c__context_preferred__sample_0030"/><path id="repeat_0--curve--proto_sw_1_3__seed_3230428333__global_l1_flow_v3__density_medium__selected_l1_002.L2.1" data-instance-id="repeat_0--curve--proto_sw_1_3__seed_3230428333__global_l1_flow_v3__density_medium__selected_l1_002.L2.1" data-repeat-id="repeat_0" data-repeat-shift="0" d="M 0.1332,0.9833 C 0.0955,1.0164 0.0865,1.0195 0.0629,1.0637" fill="none" stroke="#00ffff" stroke-width="0.007" stroke-linejoin="round" stroke-linecap="round" data-role="secondary_branch" data-level="L2" data-curve-id="proto_sw_1_3__seed_3230428333__global_l1_flow_v3__density_medium__selected_l1_002.L2.1" data-parent-curve-id="proto_sw_1_3__seed_3230428333__global_l1_flow_v3__density_medium__selected_l1_002.L1" data-lane-id="selected_l1_002" data-unit-id="proto_sw_1_3__seed_3230428333__global_l1_flow_v3__density_medium__selected_l1_002__Y-C__open_c__context_preferred__sample_0030"/><path id="repeat_0--curve--proto_sw_1_3__seed_3230428333__global_l1_flow_v3__density_medium__selected_l1_005.L1" data-instance-id="repeat_0--curve--proto_sw_1_3__seed_3230428333__global_l1_flow_v3__density_medium__selected_l1_005.L1" data-repeat-id="repeat_0" data-repeat-shift="0" d="M 0.9798,0.4456 C 1.0273,0.4808 1.102,0.4138 1.2024,0.4023" fill="none" stroke="#ff9900" stroke-width="0.01" stroke-linejoin="round" stroke-linecap="round" data-role="primary_branch" data-level="L1" data-curve-id="proto_sw_1_3__seed_3230428333__global_l1_flow_v3__density_medium__selected_l1_005.L1" data-parent-curve-id="None" data-lane-id="selected_l1_005" data-unit-id="proto_sw_1_3__seed_3230428333__global_l1_flow_v3__density_medium__selected_l1_005__L1-Only__independent_l1__context_preferred__sample_0100"/><path id="repeat_0--curve--proto_sw_1_3__seed_3230428333__global_l1_flow_v3__density_medium__selected_l1_004.L1" data-instance-id="repeat_0--curve--proto_sw_1_3__seed_3230428333__global_l1_flow_v3__density_medium__selected_l1_004.L1" data-repeat-id="repeat_0" data-repeat-shift="0" d="M 0.8,0.3704 C 0.6591,0.3283 0.6286,0.2125 0.6123,0.1231" fill="none" stroke="#ff9900" stroke-width="0.01" stroke-linejoin="round" stroke-linecap="round" data-role="primary_branch" data-level="L1" data-curve-id="proto_sw_1_3__seed_3230428333__global_l1_flow_v3__density_medium__selected_l1_004.L1" data-parent-curve-id="None" data-lane-id="selected_l1_004" data-unit-id="proto_sw_1_3__seed_3230428333__global_l1_flow_v3__density_medium__selected_l1_004__L1-Only__independent_l1__context_preferred__sample_0075"/></g><g id="branches--repeat_p1" data-instance-id="branches--repeat_p1" data-repeat-id="repeat_p1" data-repeat-shift="1"><path id="repeat_p1--curve--proto_sw_1_3__seed_3230428333__global_l1_flow_v3__density_medium__selected_l1_001.L1" data-instance-id="repeat_p1--curve--proto_sw_1_3__seed_3230428333__global_l1_flow_v3__density_medium__selected_l1_001.L1" data-repeat-id="repeat_p1" data-repeat-shift="1" d="M 1.0565,0.5726 C 1.0907,0.6272 1.1339,0.5566 1.1674,0.5929" fill="none" stroke="#ff9900" stroke-width="0.01" stroke-linejoin="round" stroke-linecap="round" data-role="primary_branch" data-level="L1" data-curve-id="proto_sw_1_3__seed_3230428333__global_l1_flow_v3__density_medium__selected_l1_001.L1" data-parent-curve-id="None" data-lane-id="selected_l1_001" data-unit-id="proto_sw_1_3__seed_3230428333__global_l1_flow_v3__density_medium__selected_l1_001__L1-Only__independent_l1__context_preferred__sample_0000"/><path id="repeat_p1--curve--proto_sw_1_3__seed_3230428333__global_l1_flow_v3__density_medium__selected_l1_003.L1" data-instance-id="repeat_p1--curve--proto_sw_1_3__seed_3230428333__global_l1_flow_v3__density_medium__selected_l1_003.L1" data-repeat-id="repeat_p1" data-repeat-shift="1" d="M 1.6775,0.4459 C 1.5583,0.5241 1.6147,0.5588 1.5505,0.6338" fill="none" stroke="#ff9900" stroke-width="0.01" stroke-linejoin="round" stroke-linecap="round" data-role="primary_branch" data-level="L1" data-curve-id="proto_sw_1_3__seed_3230428333__global_l1_flow_v3__density_medium__selected_l1_003.L1" data-parent-curve-id="None" data-lane-id="selected_l1_003" data-unit-id="proto_sw_1_3__seed_3230428333__global_l1_flow_v3__density_medium__selected_l1_003__L1-Only__independent_l1__context_preferred__sample_0050"/><path id="repeat_p1--curve--proto_sw_1_3__seed_3230428333__global_l1_flow_v3__density_medium__selected_l1_002.L1" data-instance-id="repeat_p1--curve--proto_sw_1_3__seed_3230428333__global_l1_flow_v3__density_medium__selected_l1_002.L1" data-repeat-id="repeat_p1" data-repeat-shift="1" d="M 1.1451,0.8095 C 1.1857,0.9445 1.0988,0.9499 1.1495,1.0363" fill="none" stroke="#ff9900" stroke-width="0.01" stroke-linejoin="round" stroke-linecap="round" data-role="primary_branch" data-level="L1" data-curve-id="proto_sw_1_3__seed_3230428333__global_l1_flow_v3__density_medium__selected_l1_002.L1" data-parent-curve-id="None" data-lane-id="selected_l1_002" data-unit-id="proto_sw_1_3__seed_3230428333__global_l1_flow_v3__density_medium__selected_l1_002__Y-C__open_c__context_preferred__sample_0030"/><path id="repeat_p1--curve--proto_sw_1_3__seed_3230428333__global_l1_flow_v3__density_medium__selected_l1_002.L2.1" data-instance-id="repeat_p1--curve--proto_sw_1_3__seed_3230428333__global_l1_flow_v3__density_medium__selected_l1_002.L2.1" data-repeat-id="repeat_p1" data-repeat-shift="1" d="M 1.1332,0.9833 C 1.0955,1.0164 1.0865,1.0195 1.0629,1.0637" fill="none" stroke="#00ffff" stroke-width="0.007" stroke-linejoin="round" stroke-linecap="round" data-role="secondary_branch" data-level="L2" data-curve-id="proto_sw_1_3__seed_3230428333__global_l1_flow_v3__density_medium__selected_l1_002.L2.1" data-parent-curve-id="proto_sw_1_3__seed_3230428333__global_l1_flow_v3__density_medium__selected_l1_002.L1" data-lane-id="selected_l1_002" data-unit-id="proto_sw_1_3__seed_3230428333__global_l1_flow_v3__density_medium__selected_l1_002__Y-C__open_c__context_preferred__sample_0030"/><path id="repeat_p1--curve--proto_sw_1_3__seed_3230428333__global_l1_flow_v3__density_medium__selected_l1_005.L1" data-instance-id="repeat_p1--curve--proto_sw_1_3__seed_3230428333__global_l1_flow_v3__density_medium__selected_l1_005.L1" data-repeat-id="repeat_p1" data-repeat-shift="1" d="M 1.9798,0.4456 C 2.0273,0.4808 2.102,0.4138 2.2024,0.4023" fill="none" stroke="#ff9900" stroke-width="0.01" stroke-linejoin="round" stroke-linecap="round" data-role="primary_branch" data-level="L1" data-curve-id="proto_sw_1_3__seed_3230428333__global_l1_flow_v3__density_medium__selected_l1_005.L1" data-parent-curve-id="None" data-lane-id="selected_l1_005" data-unit-id="proto_sw_1_3__seed_3230428333__global_l1_flow_v3__density_medium__selected_l1_005__L1-Only__independent_l1__context_preferred__sample_0100"/><path id="repeat_p1--curve--proto_sw_1_3__seed_3230428333__global_l1_flow_v3__density_medium__selected_l1_004.L1" data-instance-id="repeat_p1--curve--proto_sw_1_3__seed_3230428333__global_l1_flow_v3__density_medium__selected_l1_004.L1" data-repeat-id="repeat_p1" data-repeat-shift="1" d="M 1.8,0.3704 C 1.6591,0.3283 1.6286,0.2125 1.6123,0.1231" fill="none" stroke="#ff9900" stroke-width="0.01" stroke-linejoin="round" stroke-linecap="round" data-role="primary_branch" data-level="L1" data-curve-id="proto_sw_1_3__seed_3230428333__global_l1_flow_v3__density_medium__selected_l1_004.L1" data-parent-curve-id="None" data-lane-id="selected_l1_004" data-unit-id="proto_sw_1_3__seed_3230428333__global_l1_flow_v3__density_medium__selected_l1_004__L1-Only__independent_l1__context_preferred__sample_0075"/></g></g></svg>