<svg xmlns="http://www.w3.org/2000/svg" id="structural-svg--proto_sw_1_1--production-seed-200001" data-prototype-id="proto_sw_1_1" data-production-seed="200001" data-backbone-seed="2099076444" data-flower-seed="668946205" data-branch-seed="157358250" data-unit-seed="1522627173" data-backbone-variant-id="swept" data-density-level="simple" data-source-case="A016" data-source-contract-id="stage5e_joint_sparse_local_l2_selection_v2" data-source-plan-id="proto_sw_1_1__seed_157358250__global_l1_flow_v3__density_simple" data-source-selection-id="proto_sw_1_1__seed_157358250__global_l1_flow_v3__density_simple__unit_candidates_v2__global_unit_selection_joint_h2b" data-repeat-mode="triple" viewBox="-1.08 0 3.16 1.1875" width="3160" height="1188"><rect x="-1.08" y="0" width="3.16" height="1.1875" fill="#f1efe9"/><metadata>role_color_identity_v2: backbone=#0000ff; primary_branch=#ff9900; secondary_branch=#00ffff; flower_support=#007800; flower_anchor=#ff0000; unit_boundary=#000000(dashed). data-role is authoritative; stroke color is a visual fallback.</metadata><g id="unit-boundaries" data-instance-id="unit-boundaries" data-role="unit_boundary"><line id="unit-boundary--00" data-instance-id="unit-boundary--00" data-boundary-x="-1" x1="-1" y1="0" x2="-1" y2="1.1875" stroke="#000000" stroke-dasharray="0.012 0.008" stroke-width="0.004"/><line id="unit-boundary--01" data-instance-id="unit-boundary--01" data-boundary-x="0" x1="0" y1="0" x2="0" y2="1.1875" stroke="#000000" stroke-dasharray="0.012 0.008" stroke-width="0.004"/><line id="unit-boundary--02" data-instance-id="unit-boundary--02" data-boundary-x="1" x1="1" y1="0" x2="1" y2="1.1875" stroke="#000000" stroke-dasharray="0.012 0.008" stroke-width="0.004"/><line id="unit-boundary--03" data-instance-id="unit-boundary--03" data-boundary-x="2" x1="2" y1="0" x2="2" y2="1.1875" stroke="#000000" stroke-dasharray="0.012 0.008" stroke-width="0.004"/></g><g id="backbone-layer" data-instance-id="backbone-layer" data-role="backbone"><g id="backbone--repeat_m1" data-instance-id="backbone--repeat_m1" data-repeat-id="repeat_m1" data-repeat-shift="-1"><polyline points="-1,0.611 -0.9966,0.5833 -0.9926,0.5553 -0.9882,0.527 -0.9833,0.4982 -0.978,0.469 -0.9723,0.4393 -0.9661,0.4091 -0.9594,0.3784 -0.9521,0.347 -0.9441,0.3152 -0.9353,0.2828 -0.9257,0.25 -0.9151,0.217 -0.9032,0.1842 -0.8897,0.1523 -0.8741,0.1226 -0.8561,0.0983 -0.835,0.0847 -0.8099,0.0859 -0.782,0.0968 -0.7537,0.1143 -0.7264,0.1369 -0.7006,0.1633 -0.6766,0.1924 -0.6547,0.2232 -0.635,0.2549 -0.6171,0.287 -0.6013,0.3193 -0.587,0.3516 -0.5743,0.3837 -0.563,0.4157 -0.553,0.4474 -0.5442,0.4785 -0.5368,0.5092 -0.5315,0.5393 -0.5271,0.569 -0.5227,0.5983 -0.5183,0.6273 -0.5139,0.656 -0.5094,0.6845 -0.505,0.7129 -0.5006,0.741 -0.4962,0.7689 -0.4918,0.7966 -0.4874,0.824 -0.483,0.8511 -0.4777,0.878 -0.4714,0.9045 -0.4641,0.9305 -0.4559,0.9559 -0.4466,0.9806 -0.4361,1.0042 -0.424,1.0261 -0.4104,1.0455 -0.3948,1.062 -0.3771,1.0748 -0.3565,1.082 -0.3332,1.0843 -0.3074,1.082 -0.2794,1.0757 -0.2509,1.0662 -0.2228,1.0542 -0.1956,1.0364 -0.1696,1.0145 -0.1486,0.991 -0.132,0.9672 -0.1169,0.9431 -0.1031,0.9188 -0.0903,0.8943 -0.0785,0.8696 -0.0676,0.8447 -0.0575,0.8196 -0.0481,0.7944 -0.0395,0.7689 -0.0315,0.7433 -0.0241,0.7174 -0.0173,0.6913 -0.011,0.6649 -0.0053,0.6381 0,0.611" fill="none" id="repeat_m1--backbone" data-instance-id="repeat_m1--backbone" data-repeat-id="repeat_m1" data-repeat-shift="-1" stroke="#0000ff" stroke-width="0.007" stroke-linejoin="round" stroke-linecap="round"/></g><g id="backbone--repeat_0" data-instance-id="backbone--repeat_0" data-repeat-id="repeat_0" data-repeat-shift="0"><polyline points="0,0.611 0.0034,0.5833 0.0074,0.5553 0.0118,0.527 0.0167,0.4982 0.022,0.469 0.0277,0.4393 0.0339,0.4091 0.0406,0.3784 0.0479,0.347 0.0559,0.3152 0.0647,0.2828 0.0743,0.25 0.0849,0.217 0.0968,0.1842 0.1103,0.1523 0.1259,0.1226 0.1439,0.0983 0.165,0.0847 0.1901,0.0859 0.218,0.0968 0.2463,0.1143 0.2736,0.1369 0.2994,0.1633 0.3234,0.1924 0.3453,0.2232 0.365,0.2549 0.3829,0.287 0.3987,0.3193 0.413,0.3516 0.4257,0.3837 0.437,0.4157 0.447,0.4474 0.4558,0.4785 0.4632,0.5092 0.4685,0.5393 0.4729,0.569 0.4773,0.5983 0.4817,0.6273 0.4861,0.656 0.4906,0.6845 0.495,0.7129 0.4994,0.741 0.5038,0.7689 0.5082,0.7966 0.5126,0.824 0.517,0.8511 0.5223,0.878 0.5286,0.9045 0.5359,0.9305 0.5441,0.9559 0.5534,0.9806 0.5639,1.0042 0.576,1.0261 0.5896,1.0455 0.6052,1.062 0.6229,1.0748 0.6435,1.082 0.6668,1.0843 0.6926,1.082 0.7206,1.0757 0.7491,1.0662 0.7772,1.0542 0.8044,1.0364 0.8304,1.0145 0.8514,0.991 0.868,0.9672 0.8831,0.9431 0.8969,0.9188 0.9097,0.8943 0.9215,0.8696 0.9324,0.8447 0.9425,0.8196 0.9519,0.7944 0.9605,0.7689 0.9685,0.7433 0.9759,0.7174 0.9827,0.6913 0.989,0.6649 0.9947,0.6381 1,0.611" fill="none" id="repeat_0--backbone" data-instance-id="repeat_0--backbone" data-repeat-id="repeat_0" data-repeat-shift="0" stroke="#0000ff" stroke-width="0.014" stroke-linejoin="round" stroke-linecap="round"/></g><g id="backbone--repeat_p1" data-instance-id="backbone--repeat_p1" data-repeat-id="repeat_p1" data-repeat-shift="1"><polyline points="1,0.611 1.0034,0.5833 1.0074,0.5553 1.0118,0.527 1.0167,0.4982 1.022,0.469 1.0277,0.4393 1.0339,0.4091 1.0406,0.3784 1.0479,0.347 1.0559,0.3152 1.0647,0.2828 1.0743,0.25 1.0849,0.217 1.0968,0.1842 1.1103,0.1523 1.1259,0.1226 1.1439,0.0983 1.165,0.0847 1.1901,0.0859 1.218,0.0968 1.2463,0.1143 1.2736,0.1369 1.2994,0.1633 1.3234,0.1924 1.3453,0.2232 1.365,0.2549 1.3829,0.287 1.3987,0.3193 1.413,0.3516 1.4257,0.3837 1.437,0.4157 1.447,0.4474 1.4558,0.4785 1.4632,0.5092 1.4685,0.5393 1.4729,0.569 1.4773,0.5983 1.4817,0.6273 1.4861,0.656 1.4906,0.6845 1.495,0.7129 1.4994,0.741 1.5038,0.7689 1.5082,0.7966 1.5126,0.824 1.517,0.8511 1.5223,0.878 1.5286,0.9045 1.5359,0.9305 1.5441,0.9559 1.5534,0.9806 1.5639,1.0042 1.576,1.0261 1.5896,1.0455 1.6052,1.062 1.6229,1.0748 1.6435,1.082 1.6668,1.0843 1.6926,1.082 1.7206,1.0757 1.7491,1.0662 1.7772,1.0542 1.8044,1.0364 1.8304,1.0145 1.8514,0.991 1.868,0.9672 1.8831,0.9431 1.8969,0.9188 1.9097,0.8943 1.9215,0.8696 1.9324,0.8447 1.9425,0.8196 1.9519,0.7944 1.9605,0.7689 1.9685,0.7433 1.9759,0.7174 1.9827,0.6913 1.989,0.6649 1.9947,0.6381 2,0.611" fill="none" id="repeat_p1--backbone" data-instance-id="repeat_p1--backbone" data-repeat-id="repeat_p1" data-repeat-shift="1" stroke="#0000ff" stroke-width="0.007" stroke-linejoin="round" stroke-linecap="round"/></g></g><g id="flower-support-layer" data-instance-id="flower-support-layer" data-role="flower_support"><g id="flower-support--repeat_m1" data-instance-id="flower-support--repeat_m1" data-repeat-id="repeat_m1" data-repeat-shift="-1"><polyline points="-0.1486,0.991 -0.1495,0.9862 -0.1507,0.9816 -0.1522,0.9773 -0.1539,0.9732 -0.1559,0.9694 -0.1581,0.9658 -0.1606,0.9623 -0.1632,0.9591 -0.166,0.9561 -0.169,0.9532 -0.1722,0.9505 -0.1754,0.9479 -0.1788,0.9455 -0.1823,0.9432 -0.1859,0.9411 -0.1895,0.939 -0.1932,0.9371 -0.1969,0.9352 -0.2007,0.9334 -0.2044,0.9317 -0.2081,0.93 -0.2118,0.9284 -0.2154,0.9268 -0.219,0.9252 -0.2225,0.9236 -0.2258,0.9221 -0.2291,0.9205 -0.2322,0.9189 -0.2351,0.9173 -0.2379,0.9156 -0.2405,0.9139 -0.2429,0.9121 -0.2451,0.9103 -0.2471,0.9083 -0.2488,0.9063 -0.2502,0.9041 -0.2513,0.9018 -0.2522,0.8994 -0.2527,0.8969 -0.2528,0.8942" fill="none" id="repeat_m1--flower-support--proto_sw_1_1__flower_2__flower_support" data-instance-id="repeat_m1--flower-support--proto_sw_1_1__flower_2__flower_support" data-repeat-id="repeat_m1" data-repeat-shift="-1" data-mount-id="proto_sw_1_1__flower_2__flower_support" stroke="#007800" stroke-width="0.010" stroke-linejoin="round" stroke-linecap="round" data-flower-id="flower_2"/><polyline points="-0.4777,0.878 -0.4854,0.884 -0.4934,0.8897 -0.5016,0.8951 -0.5099,0.9002 -0.5183,0.9049 -0.5269,0.9093 -0.5355,0.9134 -0.5443,0.9172 -0.5531,0.9206 -0.5619,0.9238 -0.5708,0.9266 -0.5796,0.9291 -0.5884,0.9313 -0.5972,0.9331 -0.6059,0.9347 -0.6145,0.9359 -0.623,0.9368 -0.6314,0.9374 -0.6396,0.9376 -0.6477,0.9376 -0.6555,0.9372 -0.6632,0.9366 -0.6706,0.9356 -0.6777,0.9343 -0.6846,0.9327 -0.6912,0.9308 -0.6975,0.9285 -0.7034,0.926 -0.709,0.9231 -0.7142,0.92 -0.719,0.9165 -0.7234,0.9127 -0.7274,0.9086 -0.7309,0.9042 -0.7339,0.8995 -0.7364,0.8945 -0.7384,0.8892 -0.7398,0.8835 -0.7407,0.8776 -0.741,0.8714" fill="none" id="repeat_m1--flower-support--proto_sw_1_1__flower_1__flower_support" data-instance-id="repeat_m1--flower-support--proto_sw_1_1__flower_1__flower_support" data-repeat-id="repeat_m1" data-repeat-shift="-1" data-mount-id="proto_sw_1_1__flower_1__flower_support" stroke="#007800" stroke-width="0.010" stroke-linejoin="round" stroke-linecap="round" data-flower-id="flower_1"/></g><g id="flower-support--repeat_0" data-instance-id="flower-support--repeat_0" data-repeat-id="repeat_0" data-repeat-shift="0"><polyline points="0.8514,0.991 0.8505,0.9862 0.8493,0.9816 0.8478,0.9773 0.8461,0.9732 0.8441,0.9694 0.8419,0.9658 0.8394,0.9623 0.8368,0.9591 0.834,0.9561 0.831,0.9532 0.8278,0.9505 0.8246,0.9479 0.8212,0.9455 0.8177,0.9432 0.8141,0.9411 0.8105,0.939 0.8068,0.9371 0.8031,0.9352 0.7993,0.9334 0.7956,0.9317 0.7919,0.93 0.7882,0.9284 0.7846,0.9268 0.781,0.9252 0.7775,0.9236 0.7742,0.9221 0.7709,0.9205 0.7678,0.9189 0.7649,0.9173 0.7621,0.9156 0.7595,0.9139 0.7571,0.9121 0.7549,0.9103 0.7529,0.9083 0.7512,0.9063 0.7498,0.9041 0.7487,0.9018 0.7478,0.8994 0.7473,0.8969 0.7472,0.8942" fill="none" id="repeat_0--flower-support--proto_sw_1_1__flower_2__flower_support" data-instance-id="repeat_0--flower-support--proto_sw_1_1__flower_2__flower_support" data-repeat-id="repeat_0" data-repeat-shift="0" data-mount-id="proto_sw_1_1__flower_2__flower_support" stroke="#007800" stroke-width="0.010" stroke-linejoin="round" stroke-linecap="round" data-flower-id="flower_2"/><polyline points="0.5223,0.878 0.5146,0.884 0.5066,0.8897 0.4984,0.8951 0.4901,0.9002 0.4817,0.9049 0.4731,0.9093 0.4645,0.9134 0.4557,0.9172 0.4469,0.9206 0.4381,0.9238 0.4292,0.9266 0.4204,0.9291 0.4116,0.9313 0.4028,0.9331 0.3941,0.9347 0.3855,0.9359 0.377,0.9368 0.3686,0.9374 0.3604,0.9376 0.3523,0.9376 0.3445,0.9372 0.3368,0.9366 0.3294,0.9356 0.3223,0.9343 0.3154,0.9327 0.3088,0.9308 0.3025,0.9285 0.2966,0.926 0.291,0.9231 0.2858,0.92 0.281,0.9165 0.2766,0.9127 0.2726,0.9086 0.2691,0.9042 0.2661,0.8995 0.2636,0.8945 0.2616,0.8892 0.2602,0.8835 0.2593,0.8776 0.259,0.8714" fill="none" id="repeat_0--flower-support--proto_sw_1_1__flower_1__flower_support" data-instance-id="repeat_0--flower-support--proto_sw_1_1__flower_1__flower_support" data-repeat-id="repeat_0" data-repeat-shift="0" data-mount-id="proto_sw_1_1__flower_1__flower_support" stroke="#007800" stroke-width="0.010" stroke-linejoin="round" stroke-linecap="round" data-flower-id="flower_1"/></g><g id="flower-support--repeat_p1" data-instance-id="flower-support--repeat_p1" data-repeat-id="repeat_p1" data-repeat-shift="1"><polyline points="1.8514,0.991 1.8505,0.9862 1.8493,0.9816 1.8478,0.9773 1.8461,0.9732 1.8441,0.9694 1.8419,0.9658 1.8394,0.9623 1.8368,0.9591 1.834,0.9561 1.831,0.9532 1.8278,0.9505 1.8246,0.9479 1.8212,0.9455 1.8177,0.9432 1.8141,0.9411 1.8105,0.939 1.8068,0.9371 1.8031,0.9352 1.7993,0.9334 1.7956,0.9317 1.7919,0.93 1.7882,0.9284 1.7846,0.9268 1.781,0.9252 1.7775,0.9236 1.7742,0.9221 1.7709,0.9205 1.7678,0.9189 1.7649,0.9173 1.7621,0.9156 1.7595,0.9139 1.7571,0.9121 1.7549,0.9103 1.7529,0.9083 1.7512,0.9063 1.7498,0.9041 1.7487,0.9018 1.7478,0.8994 1.7473,0.8969 1.7472,0.8942" fill="none" id="repeat_p1--flower-support--proto_sw_1_1__flower_2__flower_support" data-instance-id="repeat_p1--flower-support--proto_sw_1_1__flower_2__flower_support" data-repeat-id="repeat_p1" data-repeat-shift="1" data-mount-id="proto_sw_1_1__flower_2__flower_support" stroke="#007800" stroke-width="0.010" stroke-linejoin="round" stroke-linecap="round" data-flower-id="flower_2"/><polyline points="1.5223,0.878 1.5146,0.884 1.5066,0.8897 1.4984,0.8951 1.4901,0.9002 1.4817,0.9049 1.4731,0.9093 1.4645,0.9134 1.4557,0.9172 1.4469,0.9206 1.4381,0.9238 1.4292,0.9266 1.4204,0.9291 1.4116,0.9313 1.4028,0.9331 1.3941,0.9347 1.3855,0.9359 1.377,0.9368 1.3686,0.9374 1.3604,0.9376 1.3523,0.9376 1.3445,0.9372 1.3368,0.9366 1.3294,0.9356 1.3223,0.9343 1.3154,0.9327 1.3088,0.9308 1.3025,0.9285 1.2966,0.926 1.291,0.9231 1.2858,0.92 1.281,0.9165 1.2766,0.9127 1.2726,0.9086 1.2691,0.9042 1.2661,0.8995 1.2636,0.8945 1.2616,0.8892 1.2602,0.8835 1.2593,0.8776 1.259,0.8714" fill="none" id="repeat_p1--flower-support--proto_sw_1_1__flower_1__flower_support" data-instance-id="repeat_p1--flower-support--proto_sw_1_1__flower_1__flower_support" data-repeat-id="repeat_p1" data-repeat-shift="1" data-mount-id="proto_sw_1_1__flower_1__flower_support" stroke="#007800" stroke-width="0.010" stroke-linejoin="round" stroke-linecap="round" data-flower-id="flower_1"/></g></g><g id="flower-anchor-layer" data-instance-id="flower-anchor-layer" data-role="flower_anchor"><g id="flower-anchor--repeat_m1" data-instance-id="flower-anchor--repeat_m1" data-repeat-id="repeat_m1" data-repeat-shift="-1"><ellipse id="repeat_m1--flower-anchor--flower_1" data-instance-id="repeat_m1--flower-anchor--flower_1" data-repeat-id="repeat_m1" data-repeat-shift="-1" cx="-0.741" cy="0.628" rx="0.1355" ry="0.2434" fill="#fff7fb" stroke="#ff0000" stroke-width="0.006" data-flower-id="flower_1"/><ellipse id="repeat_m1--flower-anchor--flower_2" data-instance-id="repeat_m1--flower-anchor--flower_2" data-repeat-id="repeat_m1" data-repeat-shift="-1" cx="-0.2528" cy="0.6368" rx="0.1335" ry="0.2574" fill="#fff7fb" stroke="#ff0000" stroke-width="0.006" data-flower-id="flower_2"/></g><g id="flower-anchor--repeat_0" data-instance-id="flower-anchor--repeat_0" data-repeat-id="repeat_0" data-repeat-shift="0"><ellipse id="repeat_0--flower-anchor--flower_1" data-instance-id="repeat_0--flower-anchor--flower_1" data-repeat-id="repeat_0" data-repeat-shift="0" cx="0.259" cy="0.628" rx="0.1355" ry="0.2434" fill="#fff7fb" stroke="#ff0000" stroke-width="0.006" data-flower-id="flower_1"/><ellipse id="repeat_0--flower-anchor--flower_2" data-instance-id="repeat_0--flower-anchor--flower_2" data-repeat-id="repeat_0" data-repeat-shift="0" cx="0.7472" cy="0.6368" rx="0.1335" ry="0.2574" fill="#fff7fb" stroke="#ff0000" stroke-width="0.006" data-flower-id="flower_2"/></g><g id="flower-anchor--repeat_p1" data-instance-id="flower-anchor--repeat_p1" data-repeat-id="repeat_p1" data-repeat-shift="1"><ellipse id="repeat_p1--flower-anchor--flower_1" data-instance-id="repeat_p1--flower-anchor--flower_1" data-repeat-id="repeat_p1" data-repeat-shift="1" cx="1.259" cy="0.628" rx="0.1355" ry="0.2434" fill="#fff7fb" stroke="#ff0000" stroke-width="0.006" data-flower-id="flower_1"/><ellipse id="repeat_p1--flower-anchor--flower_2" data-instance-id="repeat_p1--flower-anchor--flower_2" data-repeat-id="repeat_p1" data-repeat-shift="1" cx="1.7472" cy="0.6368" rx="0.1335" ry="0.2574" fill="#fff7fb" stroke="#ff0000" stroke-width="0.006" data-flower-id="flower_2"/></g></g><g id="branches-layer" data-instance-id="branches-layer" data-role="branches"><g id="branches--repeat_m1" data-instance-id="branches--repeat_m1" data-repeat-id="repeat_m1" data-repeat-shift="-1"><path id="repeat_m1--curve--proto_sw_1_1__seed_157358250__global_l1_flow_v3__density_simple__selected_l1_001.L1" data-instance-id="repeat_m1--curve--proto_sw_1_1__seed_157358250__global_l1_flow_v3__density_simple__selected_l1_001.L1" data-repeat-id="repeat_m1" data-repeat-shift="-1" d="M -0.9812,0.4866 C -0.9904,0.3467 -1.1111,0.3616 -1.113,0.2686" fill="none" stroke="#ff9900" stroke-width="0.01" stroke-linejoin="round" stroke-linecap="round" data-role="primary_branch" data-level="L1" data-curve-id="proto_sw_1_1__seed_157358250__global_l1_flow_v3__density_simple__selected_l1_001.L1" data-parent-curve-id="None" data-lane-id="selected_l1_001" data-unit-id="proto_sw_1_1__seed_157358250__global_l1_flow_v3__density_simple__selected_l1_001__L1-Only__independent_l1__context_preferred__sample_0000"/><path id="repeat_m1--curve--proto_sw_1_1__seed_157358250__global_l1_flow_v3__density_simple__selected_l1_002.L1" data-instance-id="repeat_m1--curve--proto_sw_1_1__seed_157358250__global_l1_flow_v3__density_simple__selected_l1_002.L1" data-repeat-id="repeat_m1" data-repeat-shift="-1" d="M -0.8648,0.11 C -0.8598,0.1949 -0.8133,0.1696 -0.8293,0.217" fill="none" stroke="#ff9900" stroke-width="0.01" stroke-linejoin="round" stroke-linecap="round" data-role="primary_branch" data-level="L1" data-curve-id="proto_sw_1_1__seed_157358250__global_l1_flow_v3__density_simple__selected_l1_002.L1" data-parent-curve-id="None" data-lane-id="selected_l1_002" data-unit-id="proto_sw_1_1__seed_157358250__global_l1_flow_v3__density_simple__selected_l1_002__L1-Only__independent_l1__context_preferred__sample_0025"/><path id="repeat_m1--curve--proto_sw_1_1__seed_157358250__global_l1_flow_v3__density_simple__selected_l1_003.L1" data-instance-id="repeat_m1--curve--proto_sw_1_1__seed_157358250__global_l1_flow_v3__density_simple__selected_l1_003.L1" data-repeat-id="repeat_m1" data-repeat-shift="-1" d="M -0.5922,0.34 C -0.614,0.2503 -0.5802,0.1761 -0.5183,0.0962" fill="none" stroke="#ff9900" stroke-width="0.01" stroke-linejoin="round" stroke-linecap="round" data-role="primary_branch" data-level="L1" data-curve-id="proto_sw_1_1__seed_157358250__global_l1_flow_v3__density_simple__selected_l1_003.L1" data-parent-curve-id="None" data-lane-id="selected_l1_003" data-unit-id="proto_sw_1_1__seed_157358250__global_l1_flow_v3__density_simple__selected_l1_003__L1-Only__independent_l1__context_preferred__sample_0050"/><path id="repeat_m1--curve--proto_sw_1_1__seed_157358250__global_l1_flow_v3__density_simple__selected_l1_004.L1" data-instance-id="repeat_m1--curve--proto_sw_1_1__seed_157358250__global_l1_flow_v3__density_simple__selected_l1_004.L1" data-repeat-id="repeat_m1" data-repeat-shift="-1" d="M -0.3394,1.0836 C -0.4745,1.0008 -0.522,1.1695 -0.5888,1.1356" fill="none" stroke="#ff9900" stroke-width="0.01" stroke-linejoin="round" stroke-linecap="round" data-role="primary_branch" data-level="L1" data-curve-id="proto_sw_1_1__seed_157358250__global_l1_flow_v3__density_simple__selected_l1_004.L1" data-parent-curve-id="None" data-lane-id="selected_l1_004" data-unit-id="proto_sw_1_1__seed_157358250__global_l1_flow_v3__density_simple__selected_l1_004__Y-C__compact_c__context_opposed__sample_0077"/><path id="repeat_m1--curve--proto_sw_1_1__seed_157358250__global_l1_flow_v3__density_simple__selected_l1_004.L2.1" data-instance-id="repeat_m1--curve--proto_sw_1_1__seed_157358250__global_l1_flow_v3__density_simple__selected_l1_004.L2.1" data-repeat-id="repeat_m1" data-repeat-shift="-1" d="M -0.4604,1.0728 C -0.5128,1.0571 -0.5317,1.0501 -0.5857,1.0588" fill="none" stroke="#00ffff" stroke-width="0.007" stroke-linejoin="round" stroke-linecap="round" data-role="secondary_branch" data-level="L2" data-curve-id="proto_sw_1_1__seed_157358250__global_l1_flow_v3__density_simple__selected_l1_004.L2.1" data-parent-curve-id="proto_sw_1_1__seed_157358250__global_l1_flow_v3__density_simple__selected_l1_004.L1" data-lane-id="selected_l1_004" data-unit-id="proto_sw_1_1__seed_157358250__global_l1_flow_v3__density_simple__selected_l1_004__Y-C__compact_c__context_opposed__sample_0077"/></g><g id="branches--repeat_0" data-instance-id="branches--repeat_0" data-repeat-id="repeat_0" data-repeat-shift="0"><path id="repeat_0--curve--proto_sw_1_1__seed_157358250__global_l1_flow_v3__density_simple__selected_l1_001.L1" data-instance-id="repeat_0--curve--proto_sw_1_1__seed_157358250__global_l1_flow_v3__density_simple__selected_l1_001.L1" data-repeat-id="repeat_0" data-repeat-shift="0" d="M 0.0188,0.4866 C 0.0096,0.3467 -0.1111,0.3616 -0.113,0.2686" fill="none" stroke="#ff9900" stroke-width="0.01" stroke-linejoin="round" stroke-linecap="round" data-role="primary_branch" data-level="L1" data-curve-id="proto_sw_1_1__seed_157358250__global_l1_flow_v3__density_simple__selected_l1_001.L1" data-parent-curve-id="None" data-lane-id="selected_l1_001" data-unit-id="proto_sw_1_1__seed_157358250__global_l1_flow_v3__density_simple__selected_l1_001__L1-Only__independent_l1__context_preferred__sample_0000"/><path id="repeat_0--curve--proto_sw_1_1__seed_157358250__global_l1_flow_v3__density_simple__selected_l1_002.L1" data-instance-id="repeat_0--curve--proto_sw_1_1__seed_157358250__global_l1_flow_v3__density_simple__selected_l1_002.L1" data-repeat-id="repeat_0" data-repeat-shift="0" d="M 0.1352,0.11 C 0.1402,0.1949 0.1867,0.1696 0.1707,0.217" fill="none" stroke="#ff9900" stroke-width="0.01" stroke-linejoin="round" stroke-linecap="round" data-role="primary_branch" data-level="L1" data-curve-id="proto_sw_1_1__seed_157358250__global_l1_flow_v3__density_simple__selected_l1_002.L1" data-parent-curve-id="None" data-lane-id="selected_l1_002" data-unit-id="proto_sw_1_1__seed_157358250__global_l1_flow_v3__density_simple__selected_l1_002__L1-Only__independent_l1__context_preferred__sample_0025"/><path id="repeat_0--curve--proto_sw_1_1__seed_157358250__global_l1_flow_v3__density_simple__selected_l1_003.L1" data-instance-id="repeat_0--curve--proto_sw_1_1__seed_157358250__global_l1_flow_v3__density_simple__selected_l1_003.L1" data-repeat-id="repeat_0" data-repeat-shift="0" d="M 0.4078,0.34 C 0.386,0.2503 0.4198,0.1761 0.4817,0.0962" fill="none" stroke="#ff9900" stroke-width="0.01" stroke-linejoin="round" stroke-linecap="round" data-role="primary_branch" data-level="L1" data-curve-id="proto_sw_1_1__seed_157358250__global_l1_flow_v3__density_simple__selected_l1_003.L1" data-parent-curve-id="None" data-lane-id="selected_l1_003" data-unit-id="proto_sw_1_1__seed_157358250__global_l1_flow_v3__density_simple__selected_l1_003__L1-Only__independent_l1__context_preferred__sample_0050"/><path id="repeat_0--curve--proto_sw_1_1__seed_157358250__global_l1_flow_v3__density_simple__selected_l1_004.L1" data-instance-id="repeat_0--curve--proto_sw_1_1__seed_157358250__global_l1_flow_v3__density_simple__selected_l1_004.L1" data-repeat-id="repeat_0" data-repeat-shift="0" d="M 0.6606,1.0836 C 0.5255,1.0008 0.478,1.1695 0.4112,1.1356" fill="none" stroke="#ff9900" stroke-width="0.01" stroke-linejoin="round" stroke-linecap="round" data-role="primary_branch" data-level="L1" data-curve-id="proto_sw_1_1__seed_157358250__global_l1_flow_v3__density_simple__selected_l1_004.L1" data-parent-curve-id="None" data-lane-id="selected_l1_004" data-unit-id="proto_sw_1_1__seed_157358250__global_l1_flow_v3__density_simple__selected_l1_004__Y-C__compact_c__context_opposed__sample_0077"/><path id="repeat_0--curve--proto_sw_1_1__seed_157358250__global_l1_flow_v3__density_simple__selected_l1_004.L2.1" data-instance-id="repeat_0--curve--proto_sw_1_1__seed_157358250__global_l1_flow_v3__density_simple__selected_l1_004.L2.1" data-repeat-id="repeat_0" data-repeat-shift="0" d="M 0.5396,1.0728 C 0.4872,1.0571 0.4683,1.0501 0.4143,1.0588" fill="none" stroke="#00ffff" stroke-width="0.007" stroke-linejoin="round" stroke-linecap="round" data-role="secondary_branch" data-level="L2" data-curve-id="proto_sw_1_1__seed_157358250__global_l1_flow_v3__density_simple__selected_l1_004.L2.1" data-parent-curve-id="proto_sw_1_1__seed_157358250__global_l1_flow_v3__density_simple__selected_l1_004.L1" data-lane-id="selected_l1_004" data-unit-id="proto_sw_1_1__seed_157358250__global_l1_flow_v3__density_simple__selected_l1_004__Y-C__compact_c__context_opposed__sample_0077"/></g><g id="branches--repeat_p1" data-instance-id="branches--repeat_p1" data-repeat-id="repeat_p1" data-repeat-shift="1"><path id="repeat_p1--curve--proto_sw_1_1__seed_157358250__global_l1_flow_v3__density_simple__selected_l1_001.L1" data-instance-id="repeat_p1--curve--proto_sw_1_1__seed_157358250__global_l1_flow_v3__density_simple__selected_l1_001.L1" data-repeat-id="repeat_p1" data-repeat-shift="1" d="M 1.0188,0.4866 C 1.0096,0.3467 0.8889,0.3616 0.887,0.2686" fill="none" stroke="#ff9900" stroke-width="0.01" stroke-linejoin="round" stroke-linecap="round" data-role="primary_branch" data-level="L1" data-curve-id="proto_sw_1_1__seed_157358250__global_l1_flow_v3__density_simple__selected_l1_001.L1" data-parent-curve-id="None" data-lane-id="selected_l1_001" data-unit-id="proto_sw_1_1__seed_157358250__global_l1_flow_v3__density_simple__selected_l1_001__L1-Only__independent_l1__context_preferred__sample_0000"/><path id="repeat_p1--curve--proto_sw_1_1__seed_157358250__global_l1_flow_v3__density_simple__selected_l1_002.L1" data-instance-id="repeat_p1--curve--proto_sw_1_1__seed_157358250__global_l1_flow_v3__density_simple__selected_l1_002.L1" data-repeat-id="repeat_p1" data-repeat-shift="1" d="M 1.1352,0.11 C 1.1402,0.1949 1.1867,0.1696 1.1707,0.217" fill="none" stroke="#ff9900" stroke-width="0.01" stroke-linejoin="round" stroke-linecap="round" data-role="primary_branch" data-level="L1" data-curve-id="proto_sw_1_1__seed_157358250__global_l1_flow_v3__density_simple__selected_l1_002.L1" data-parent-curve-id="None" data-lane-id="selected_l1_002" data-unit-id="proto_sw_1_1__seed_157358250__global_l1_flow_v3__density_simple__selected_l1_002__L1-Only__independent_l1__context_preferred__sample_0025"/><path id="repeat_p1--curve--proto_sw_1_1__seed_157358250__global_l1_flow_v3__density_simple__selected_l1_003.L1" data-instance-id="repeat_p1--curve--proto_sw_1_1__seed_157358250__global_l1_flow_v3__density_simple__selected_l1_003.L1" data-repeat-id="repeat_p1" data-repeat-shift="1" d="M 1.4078,0.34 C 1.386,0.2503 1.4198,0.1761 1.4817,0.0962" fill="none" stroke="#ff9900" stroke-width="0.01" stroke-linejoin="round" stroke-linecap="round" data-role="primary_branch" data-level="L1" data-curve-id="proto_sw_1_1__seed_157358250__global_l1_flow_v3__density_simple__selected_l1_003.L1" data-parent-curve-id="None" data-lane-id="selected_l1_003" data-unit-id="proto_sw_1_1__seed_157358250__global_l1_flow_v3__density_simple__selected_l1_003__L1-Only__independent_l1__context_preferred__sample_0050"/><path id="repeat_p1--curve--proto_sw_1_1__seed_157358250__global_l1_flow_v3__density_simple__selected_l1_004.L1" data-instance-id="repeat_p1--curve--proto_sw_1_1__seed_157358250__global_l1_flow_v3__density_simple__selected_l1_004.L1" data-repeat-id="repeat_p1" data-repeat-shift="1" d="M 1.6606,1.0836 C 1.5255,1.0008 1.478,1.1695 1.4112,1.1356" fill="none" stroke="#ff9900" stroke-width="0.01" stroke-linejoin="round" stroke-linecap="round" data-role="primary_branch" data-level="L1" data-curve-id="proto_sw_1_1__seed_157358250__global_l1_flow_v3__density_simple__selected_l1_004.L1" data-parent-curve-id="None" data-lane-id="selected_l1_004" data-unit-id="proto_sw_1_1__seed_157358250__global_l1_flow_v3__density_simple__selected_l1_004__Y-C__compact_c__context_opposed__sample_0077"/><path id="repeat_p1--curve--proto_sw_1_1__seed_157358250__global_l1_flow_v3__density_simple__selected_l1_004.L2.1" data-instance-id="repeat_p1--curve--proto_sw_1_1__seed_157358250__global_l1_flow_v3__density_simple__selected_l1_004.L2.1" data-repeat-id="repeat_p1" data-repeat-shift="1" d="M 1.5396,1.0728 C 1.4872,1.0571 1.4683,1.0501 1.4143,1.0588" fill="none" stroke="#00ffff" stroke-width="0.007" stroke-linejoin="round" stroke-linecap="round" data-role="secondary_branch" data-level="L2" data-curve-id="proto_sw_1_1__seed_157358250__global_l1_flow_v3__density_simple__selected_l1_004.L2.1" data-parent-curve-id="proto_sw_1_1__seed_157358250__global_l1_flow_v3__density_simple__selected_l1_004.L1" data-lane-id="selected_l1_004" data-unit-id="proto_sw_1_1__seed_157358250__global_l1_flow_v3__density_simple__selected_l1_004__Y-C__compact_c__context_opposed__sample_0077"/></g></g></svg>